<svg xmlns="http://www.w3.org/2000/svg" width="390.49997" height="426.81703" viewBox="0 0 390.49997 426.81703"><defs><style>.a{fill:#fff;}</style></defs><title>Flecha-kanzansio</title><path d="M250.04326,425.59677l-1.1077,2.21538a1.11643,1.11643,0,0,0-.178.5577,1.13627,1.13627,0,0,0,.02679.59814,1.52984,1.52984,0,0,0,.68934.89645,1.51412,1.51412,0,0,0,1.15584.15121,1.49479,1.49479,0,0,0,.89645-.68934l1.10769-2.21539a1.11637,1.11637,0,0,0,.178-.55769,1.13627,1.13627,0,0,0-.02679-.59814,1.5298,1.5298,0,0,0-.68934-.89645,1.51408,1.51408,0,0,0-1.15584-.15121,1.49474,1.49474,0,0,0-.89644.68934Z" transform="translate(-5.5 -3.25595)"/><rect x="5.64645" y="198.14645" width="0.70711" height="0.70711" transform="translate(-144.10334 59.12599) rotate(-45)"/><polygon class="a" points="0.5 194.744 0 195.244 0.5 195.744 1 195.244 0.5 194.744 0.5 194.744"/><polygon points="168.629 363.154 336.539 195.244 168.629 27.334 195.256 0.707 389.793 195.244 195.256 389.781 168.629 363.154"/><path class="a" d="M200.75592,4.67015,394.58578,198.5,200.75592,392.32986,174.836,366.40991l167.20281-167.2028.70709-.70711-.70709-.70711L174.836,30.5901,200.75592,4.67015m0-1.4142L173.42178,30.5901,341.33167,198.5,173.42178,366.40991l27.33414,27.33414L396,198.5,200.75592,3.256Z" transform="translate(-5.5 -3.25595)"/><rect x="5.64645" y="198.14645" width="0.70711" height="0.70711" transform="translate(-144.10334 59.12599) rotate(-45)"/><polygon class="a" points="0.5 194.744 0 195.244 0.5 195.744 1 195.244 0.5 194.744 0.5 194.744"/><rect x="5.64645" y="198.14645" width="0.70711" height="0.70711" transform="translate(-144.10334 59.12599) rotate(-45)"/><polygon class="a" points="0.5 194.744 0 195.244 0.5 195.744 1 195.244 0.5 194.744 0.5 194.744"/><polygon points="112.984 307.51 225.25 195.244 112.984 82.979 140.1 55.864 279.48 195.244 140.1 334.625 112.984 307.51"/><path class="a" d="M145.5995,59.82661,284.27286,198.5,145.5995,337.17337l-26.408-26.408,111.55819-111.5582.70711-.70712-.70711-.70712L119.19147,86.23466l26.408-26.408m0-1.41423L117.77724,86.23466,230.04254,198.5,117.77724,310.76532l27.82226,27.8223L285.68707,198.5,145.5995,58.41238Z" transform="translate(-5.5 -3.25595)"/><rect x="5.64645" y="198.14645" width="0.70711" height="0.70711" transform="translate(-144.10334 59.12599) rotate(-45)"/><polygon class="a" points="0.5 194.744 0 195.244 0.5 195.744 1 195.244 0.5 194.744 0.5 194.744"/><polygon points="56.852 251.377 112.984 195.244 56.852 139.111 84.455 111.508 168.191 195.244 84.455 278.98 56.852 251.377"/><path class="a" d="M89.95494,115.47115,172.9838,198.5,89.95494,281.52887,63.05875,254.63266l55.42557-55.42557.70712-.70709-.70712-.70709L63.05875,142.36734l26.89619-26.89619m0-1.4142L61.64456,142.36734,117.77722,198.5,61.64456,254.63266l28.31038,28.31039L174.398,198.5l-84.443-84.443Z" transform="translate(-5.5 -3.25595)"/><rect x="5.64645" y="198.14645" width="0.70711" height="0.70711" transform="translate(-144.10334 59.12599) rotate(-45)"/><polygon class="a" points="0.5 194.744 0 195.244 0.5 195.744 1 195.244 0.5 194.744 0.5 194.744"/><rect x="5.64645" y="198.14645" width="0.70711" height="0.70711" transform="translate(-144.10334 59.12599) rotate(-45)"/><polygon class="a" points="0.5 194.744 0 195.244 0.5 195.744 1 195.244 0.5 194.744 0.5 194.744"/><polygon points="1.207 195.732 1.695 195.244 1.207 194.756 28.322 167.641 55.926 195.244 28.322 222.848 1.207 195.732"/><path class="a" d="M33.82227,171.60384,60.71844,198.5,33.82227,225.39616l-26.408-26.408.4881-.48811-.4881-.48811,26.40805-26.408m0-1.41423L6,198.01189l.48811.48811L6,198.98811l27.82227,27.82228L62.13266,198.5,33.82227,170.18961Z" transform="translate(-5.5 -3.25595)"/><rect x="5.64645" y="198.14645" width="0.70711" height="0.70711" transform="translate(-144.10334 59.12599) rotate(-45)"/><polygon class="a" points="0.5 194.744 0 195.244 0.5 195.744 1 195.244 0.5 194.744 0.5 194.744"/><rect x="5.64645" y="198.14645" width="0.70711" height="0.70711" transform="translate(-144.10334 59.12599) rotate(-45)"/><polygon class="a" points="0.5 194.744 0 195.244 0.5 195.744 1 195.244 0.5 194.744 0.5 194.744"/></svg>