<?xml version="1.0" encoding="utf-8"?>
<!-- Generator: Adobe Illustrator 24.0.2, SVG Export Plug-In . SVG Version: 6.00 Build 0)  -->
<svg version="1.1" id="Capa_1" xmlns="http://www.w3.org/2000/svg" xmlns:xlink="http://www.w3.org/1999/xlink" x="0px" y="0px"
	 viewBox="0 0 75 75" style="enable-background:new 0 0 75 75;" xml:space="preserve">
<path d="M51.6,62.9c1.7-2.4,4.6-6.6,6-8.6s2.5-3.8,3.1-4.7s0-0.1,0.2-0.4s0.1-0.1,0.1-0.1c3.8-9.3,7-17.5,12.7-25.8
	c0-0.5,0.1-1.1,0.1-1.6C65,21.4,56.7,19,47.9,18.8c-0.3,2.1-0.7,4.1-1,6.2c6.2-0.2,11.6,0.8,17.7,2c-1.5,3.4-3,6.8-4.5,10.2
	c-0.7-1.4-1.6-2.6-2.6-3.7c-2.5-2.3-4.8-3.8-8.5-3.7c-3.1,0.1-6.1,1-8.7,2.5c-1.4,0.9-2.6,2.1-3.7,3.4c-3.9-5.7-7.8-11.4-12-16.9
	c4.2-6.8,10.5-11,15.6-17C38,1.6,35.8,1.3,33.6,1c-8.6,7.4-13,13.7-18.7,23.5c-1-8.6-4.3-14.8-8.4-22.3c-2,0.8-4,1.5-6,2.3
	c7,13.8,9,23.5,8.7,39c0,0.3,0,0.4,0,0.6c0.2,3.9,1.2,7.9,3.7,10.9c2.2,2.7,5.6,4.2,9.1,4.1c3.1,0,6.1-0.9,8.7-2.7
	c2.9-1.8,4.4-4.5,6.2-7.5c0.6-0.9,1.5-2.9,2-4s1-1.9,1.5-2.8c0.1-0.2,0.2-0.4,0.3-0.5c0.4-0.8,0.9-1.5,1.5-2.2
	c0.8-0.9,1.8-1.6,2.8-2.1c1.1-0.6,2.4-0.9,3.6-1c1.9,0,3.6,0.2,5.1,1.5c1.4,1.2,2.1,2.9,2.2,4.6c-0.1,1.7-0.5,3.4-1.2,5
	c0,0.1,0,0.1-0.1,0.1c-4.2,6.6-8.7,13.1-12.8,19.8c0,0.5-0.1,1-0.1,1.6C52.1,70,59.3,68.4,69.1,73c0.9-1.9,1.9-3.8,2.8-5.7
	C64.8,63.5,59.6,62.2,51.6,62.9z M32,43.9c-1.2,2.5-2.8,5.4-4.8,6.8c-1.4,1.1-3.2,1.8-5,1.8c-2,0.2-3.9-0.6-5.2-2.2
	c-1.5-1.6-1.9-3.9-2-6c0-0.1,0-0.3,0-0.4c0-0.1,0-0.2,0-0.3c0.2-3.7,0.2-7.5,0.1-11.2c1.9-2.8,3.8-5.7,5.7-8.5
	C25,29.8,28.8,36,33,41.9C32.8,42.4,32.2,43.6,32,43.9z"/>
<path d="M27.2,40.6c0,1.5-1.2,2.8-2.7,2.8c-1.4,0.1-2.6-0.9-2.7-2.3c0-0.1,0-0.2,0-0.3c0-1.5,1.2-2.7,2.7-2.7
	c1.3-0.2,2.5,0.8,2.7,2.1C27.2,40.4,27.2,40.5,27.2,40.6z"/>
</svg>
