<svg xmlns="http://www.w3.org/2000/svg" width="75" height="75" viewBox="0 0 75 75"><defs><style>.a{fill:#fff;}</style></defs><title>kanzasio</title><path class="a" d="M51.55893,62.88971c1.65164-2.356,4.63808-6.62762,6.00225-8.58482S60.07649,50.552,60.70049,49.573s.04129-.08938.21389-.35592.06987-.11761.07831-.13837c3.79741-9.31872,6.99255-17.501,12.72673-25.82283.025-.54237.06377-1.08794.09622-1.63145-8.82021-.2184-17.09091-2.61479-25.891-2.79046-.31837,2.07566-.68565,4.14339-.99433,6.22048,6.23086-.16666,11.645.81108,17.69757,2.00146q-2.199,5.10414-4.49446,10.15917a16.42993,16.42993,0,0,0-2.6364-3.70164c-2.52312-2.33193-4.76528-3.77533-8.45642-3.727a18.76887,18.76887,0,0,0-8.73853,2.5031,16.61844,16.61844,0,0,0-3.70643,3.38827C32.70423,29.99126,28.78882,24.314,24.6339,18.80546c4.2407-6.81428,10.53117-10.953,15.6474-16.991C38.04114,1.56764,35.79636,1.31662,33.5651,1,25.01377,8.4209,20.53453,14.73915,14.91317,24.47847c-.98578-8.58716-4.32363-14.83958-8.39864-22.29265-2.0154.76687-4.04113,1.49986-6.0496,2.287,6.95046,13.84467,8.9526,23.49888,8.68,39.03638-.00473.27013.00251.41392.01192.5734.23123,3.92192,1.15348,7.93743,3.65156,10.85264a11.22624,11.22624,0,0,0,9.05863,4.081,15.14891,15.14891,0,0,0,8.69861-2.65071c2.88691-1.78683,4.36356-4.52812,6.20228-7.52141.55293-.9001,1.45219-2.94953,2.01042-3.97781s.97477-1.917,1.52251-2.84265c.13375-.226.22461-.38215.33355-.54186A14.13461,14.13461,0,0,1,42.152,39.31656a9.2115,9.2115,0,0,1,2.81966-2.13846,9.82185,9.82185,0,0,1,3.64871-.95521c1.94573.0138,3.63787.20322,5.08144,1.54527a6.21271,6.21271,0,0,1,2.16127,4.64333,12.371,12.371,0,0,1-1.21,4.977.81517.81517,0,0,1-.06737.1491C50.359,54.15477,45.86125,60.63284,41.76354,67.34533c-.02487.5195-.05932,1.03889-.0669,1.55856C52.08921,69.9823,59.35,68.39813,69.07016,73c.89857-1.91721,1.92086-3.77459,2.79257-5.70007C64.757,63.53994,59.615,62.16824,51.55893,62.88971ZM32.017,43.94638c-1.16654,2.45735-2.8435,5.41722-4.80212,6.79765a8.07149,8.07149,0,0,1-5.01152,1.77963,6.0255,6.0255,0,0,1-5.19893-2.18677c-1.47049-1.602-1.87358-3.8727-2.02792-6.04019a4.15719,4.15719,0,0,1,.01962-.41615c.00667-.12423.01625-.19678.024-.34479.19342-3.72846.20066-7.48438.14089-11.2276q2.90019-4.23576,5.69944-8.535c4.14756,5.98308,7.8958,12.18772,12.143,18.12118C32.78488,42.36649,32.19009,43.58162,32.017,43.94638Z"/><path class="a" d="M27.23659,40.62609A2.79285,2.79285,0,0,1,24.50408,43.43a2.486,2.486,0,0,1-2.677-2.54377,2.73843,2.73843,0,0,1,2.68506-2.73559,2.43328,2.43328,0,0,1,2.72445,2.47545Z"/></svg>