<svg xmlns="http://www.w3.org/2000/svg" xmlns:xlink="http://www.w3.org/1999/xlink" width="107.3501mm" height="107.3501mm" viewBox="0 0 304.29949 304.29949"><defs><style>.a{fill:none;}.b{clip-path:url(#a);}.c{fill:#e73354;}.d{fill:#3e80c2;}.e{fill:#c0181a;}.f{clip-path:url(#b);}.g{fill:#020304;}.h{fill:#050608;}.i{fill:#010202;}.j{fill:#0e0f13;}.k{fill:#fefefe;}.l{fill:#a6a4a8;}.m{fill:#acaaae;}.n{fill:#c1c1c1;}.o{fill:#918e93;}.p{fill:#202126;}.q{fill:#fcfbfc;}.r{fill:#8e8b91;}.s{fill:#68656b;}.t{fill:#949196;}.u{fill:#101115;}.v{fill:#000100;}.w{fill:#fff;}</style><clipPath id="a"><rect class="a" x="0.00016" y="-0.44814" width="304.74756" height="304.74805"/></clipPath><clipPath id="b"><polygon class="a" points="12.347 153.113 152.157 153.113 152.157 292.913 12.347 292.913 12.347 154.073 12.347 153.113"/></clipPath></defs><title>nodasian</title><g class="b"><rect class="c" x="-19.08822" y="-22.8456" width="347.26172" height="362.21484"/></g><path d="M155.14737,148.18656v-26.72h-6v27.68h-133.8v-134.77h133.8v88.06h6v-94.06h-145.8v146.77h139.8v11.58h6v-12.54H288.95743V287.98661H155.14737v-111.83c-.11-.07-.21-.14-.31-.21-.16-.12-.33-.23-.49-.35-.17-.12-.33-.23005-.5-.36a51.008,51.008,0,0,1-4.69-3.83l-.01-.01v122.59H294.95743v-145.8Zm-6-38.77v4.96h6v-4.96Zm0,12.05v10.92h2v-10.92Z"/><path class="d" d="M293.95743,153.14658v140.61h-139.61v-118.16c.16.12.33.23.49.35.1.07.2.14.31.21,0,0,0,.01.01,0a63.53652,63.53652,0,0,0,7.04,4.2c7.55-3.61005,14.08-8.22,18.81-13.63h-26.66v-13.58Z"/><path class="d" d="M294.45743,152.64658v141.61h-140.61v-119.02c.17.12994.33.24.5.36.16.12.33.23.49.35v117.31h138.63v-139.61h-138.63v13.08h-.99v-14.08Z"/><path class="e" d="M202.53971,209.19248h76.92383v5.50684H243.58268v10.23926h18.32714V264.089H219.74869V224.93858h17.9834V214.69932H202.53971Zm68.835,63.07031v-48.2705l7.31445.43017c-.08691.602-.5166,1.03223-1.63476,1.20459v57.47754h-5.67969v-5.335H210.88541v5.59277H205.2067V223.99229l7.31348.43017c-.08594.602-.51563,1.03223-1.63477,1.20459v46.63574ZM224.73893,229.9293v12.13232h13.33691V229.9293Zm0,16.86474v12.30372h13.33691V246.794Zm32.00879-4.73242V229.9293H243.23893v12.13232Zm0,17.03614V246.794H243.23893v12.30372Z"/><polygon points="290.957 11.387 290.957 151.197 151.147 151.197 151.147 121.467 183.137 121.467 183.137 114.377 151.147 114.377 151.147 109.417 183.137 109.417 183.137 102.437 151.147 102.437 151.147 11.387 290.957 11.387"/><path class="d" d="M244.68326,57.32725H278.652v3.83691H206.07975V57.32725h33.248V52.692H212.39225V49.1749h26.93554V44.69932H214.31217v-3.5166h25.01562V36.4669H206.15787V32.87022h33.16992V28.39463H214.79068v-3.437h24.53711V19.84238l6.95313.39991c-.08008.63916-.47852,1.03857-1.59766,1.11865v3.59668h24.85742v7.9126h8.8711V36.4669h-8.8711v8.23242H244.68326V49.1749h27.97266V52.692H244.68326ZM206.07975,91.77549V87.859H278.652v3.9165Zm9.1914-26.855h54.42774v18.8623H215.27115Zm5.27344,3.35693V72.673H239.488V68.27744Zm0,7.67285V80.506H239.488V75.95029Zm43.7207-3.27734V68.27744H244.52311V72.673Zm0,7.833V75.95029H244.52311V80.506Zm-19.582-52.11133v4.47559h19.42188V28.39463Zm0,8.07227v4.71582h19.42188V36.4669Z"/><g class="f"><path d="M123.26334,184.90244c-1.80469,3.40332,5.312,7.05225,9.16211,17.18262,3.603,9.48047-.98389,10.61328,1.38037,29.72852.9624,7.78027,2.15283,11.07519.75391,16.835-.437,1.79785-.56348,1.52148-4.582,12.12207-3.86963,10.21093-3.13038,8.82715-3.99659,10.71093-3.10986,6.76075-5.54394,9.16407-4.38086,11.72852a4.87077,4.87077,0,0,0,4.3584,2.67969c2.08741-.07031,3.99854-1.915,6.7959-7.293a96.9883,96.9883,0,0,0,8.07569-23.44141c.98242-4.51074,1.3457-7.14843,3.50976-10.3916,2.63672-3.95215,5.00928-4.40137,7.085-6.71973,4.958-5.53759,2.395-15.23925-1.39892-28.89648-4.08106-14.68945-6.25928-22.09766-13.01026-25.21484C131.88492,181.56406,124.83365,181.94151,123.26334,184.90244Z"/><path class="g" d="M83.40055,245.86143a21.73453,21.73453,0,0,1-6.23242,2.84277c-2.83692.7627-5.50293,2.0166-8.44776,2.46289-.3125.04688-.63379.05957-.94726.08789-.11426-.74121.55713-.501.66552-.94824a5.09443,5.09443,0,0,1-2.26172-.47559,10.6212,10.6212,0,0,1,3.29981-.65136,13.82445,13.82445,0,0,1-5.19043-4.36817,14.33771,14.33771,0,0,1-1.602-2.59375c-.26221-.65625-.5-1.01074-.919-.26172-.14892.26563-.57861.29-.83154.4043a25.15563,25.15563,0,0,0,5.144,5.5791,11.45,11.45,0,0,1-4.63574-.79,28.59451,28.59451,0,0,1-7.41113-3.94043c-1.1958-.79-.34619-1.16406.06152-1.42773a35.26221,35.26221,0,0,1,3.33155-1.8877c2.1831-1.09472,4.33593-2.252,6.53466-3.31933,6.01563-2.9209,12.044-5.81446,18.15235-8.53272,2.12549-.9458,4.35791-1.65136,6.53613-2.48095a2.24177,2.24177,0,0,1,1.48584-.021,20.05576,20.05576,0,0,0,7.43164.89258c-1.20654,1.05713-2.69092.57226-3.856,1.189.604.8335,1.53907.28321,2.23975,1.28028a7.73628,7.73628,0,0,0-3.53076.10937c.9082.709,1.78955.54688,2.80078,1.09619-.9668.05323-1.72363.09522-2.481.13721a58.60784,58.60784,0,0,1-6.7583.61719,11.83183,11.83183,0,0,0-2.59326.75879c-.68457.20507-.39014.87011-.20264,1.45214a1.07878,1.07878,0,0,1-.00537.80567c-.15576.09375-.27051.19238-.51172.00488a3.4218,3.4218,0,0,0-5.35107,1.40039c-.2959.89258.1626,1.39063.85644,1.36426,1.47608-.05664,3.04493.09668,4.18506-1.04687.25-.252.59571-.50879.91065-.34961.45849.23242.31494.80371.35791,1.22558a18.064,18.064,0,0,1-1.27979,8.01367C82.80875,244.837,83.42643,245.03037,83.40055,245.86143Z"/><path class="h" d="M113.7316,222.02354q.33984-3.21168.67871-6.42334c.09717-.53321.59034-.46094.8833-.69483a26.23091,26.23091,0,0,1,10.11914-6.0039,11.65645,11.65645,0,0,0,3.07666-1.46534c-.12744,1.10743-.87158,1.22559-1.38671,1.8125,1.96289.146,3.70312.165,5.01855-1.207.21484.397-.00635.53907-.14746.6753-1.78369,1.71728-1.91895,4.52539-2.67676,6.92285-.1123.35449.0293,1.18554-.40967.96582-.57812-.28906.104-.80469-.04-1.27149-.65478-1.50341-1.74707-2.21484-2.93115-1.91455-.27636.07032-.48974.187-.3999.60352-.00781.75732-.36279.23291-.58838.09326a2.38536,2.38536,0,0,0-2.44482.07715.87177.87177,0,0,0-.44385,1.0664.77586.77586,0,0,0,.9873.53467,5.39113,5.39113,0,0,0,1.65137-.32519c.68067-.34766,1.00244.064,1.31983.72949a7.35853,7.35853,0,0,1,.47705,4.27344c-.05371.42773-.13819.84424-.24121,1.46728,1.35449-.97412,1.9746-2.41455,2.72021-3.95508.272.86719-.17041,1.34034-.17236,2.03907.63183-.25489.97949-.96778,1.68554-1.03614-2.48877,5.80274-11.14843,9.83887-14.44677,8.916.45752-.71484,1.4331-.02979,1.92138-.7207a5.01993,5.01993,0,0,1-2.68652-.60694c.96143-.34521,2.10449.15625,3.11279-.48144a16.3247,16.3247,0,0,1-4.13379-3.60694A.50051.50051,0,0,1,113.7316,222.02354Z"/><path d="M62.19254,230.54258c1.332-1.02051,2.96338-1.41992,4.40137-2.2251a65.18661,65.18661,0,0,1,10.89306-5.1416c3.91407-1.3208,7.63672-3.1333,11.68116-4.11035,2.31494-.55859,4.76709-.52881,7.1289-.88477a31.39108,31.39108,0,0,1,5.68994-.355c-1.19287,1.15674-2.58691,1.11914-3.79492,1.479-6.84619,2.03857-13.93115,3.39062-20.52588,6.15283-5.05176,2.11572-10.13818,4.15039-15.20947,6.22119-.30957-.07422-.7417.18115-.88965-.35547C61.4152,230.7711,62.18131,231.0333,62.19254,230.54258Z"/><path d="M115.29361,214.90537c-.09326.53955-.59277.45655-.8833.69483.20948-4.97608,2.794-7.93213,5.7583-10.6294a48.10035,48.10035,0,0,1,11.18311-7.38183c1.17334-.58252,2.41357-1.02686,3.63867-1.49756a1.8056,1.8056,0,0,1,1.58594.03906c-6.81934,1.62158-11.16553,7.28272-16.43164,11.438,2.04638-.5791,3.84228-1.75342,6.05371-1.9126-1.6919.75781-3.37451,1.53565-5.07813,2.26758a11.63416,11.63416,0,0,0-5.23584,4.2417,6.43806,6.43806,0,0,0-.86377,2.31494C114.967,214.735,114.99918,214.91953,115.29361,214.90537Z"/><path class="i" d="M67.91764,233.14414A62.18535,62.18535,0,0,1,81.4943,225.9083c4.772-1.9209,9.97168-2.47168,15.07959-3.92969-.65772,1.09717-1.72266,1.0586-2.83887,1.36182,1.36426.6001,2.54346.27539,3.67529,1.03662-1.27392-.12939-2.521.11377-3.81982-.54053a2.45769,2.45769,0,0,0-1.62451-.30859,62.58122,62.58122,0,0,0-14.69239,4.70752C74.113,229.78477,71.02311,231.482,67.91764,233.14414Z"/><path d="M83.40055,245.86143q-.52734-.68555-1.05518-1.3711a34.1403,34.1403,0,0,0,7.58252-5.165c.02588.95118-.52246,1.26954-.70215,1.96.95215-.03321,1.31494-1.05957,2.15723-1.13477-.22363.98633-1.33447,2.03027-3.64063,3.35547C86.31363,244.32627,84.84879,245.07822,83.40055,245.86143Z"/><path d="M62.19254,230.54258c-.06006.397-.97852.90088.26416,1.13623a50.0204,50.0204,0,0,1-5.71094,2.34766c-3.08886.80761-5.72607,2.59375-8.36426,4.35058-.19726.13184-.33349.48535-.6831.22461C48.67643,236.879,55.80436,232.91611,62.19254,230.54258Z"/><path class="j" d="M113.7316,222.02354q.252.23144.50244.46386c-.46728.30323-.0166,1.14161-.53173,1.51514A2.82664,2.82664,0,0,1,113.7316,222.02354Z"/><path class="k" d="M76.62906,239.60459c-.36377,1.32715-.686,2.68652-1.98388,3.55078a3.18229,3.18229,0,0,0,2.61621-1.05566.91172.91172,0,0,0,.6416-.42774,5.1388,5.1388,0,0,0,.46289-.68554c.44141-.834,1.13916-1.47461,2.00732-1.15723.791.28906.09424,1.29688.45166,1.94531-.707,3.04883-2.24658,5.09864-5.0122,5.76758-.98145.23633-1.85889.82031-2.94239.7207a7.91606,7.91606,0,0,1-4.59619-2.61035,7.78479,7.78479,0,0,1-2.08545-2.876,1.96171,1.96171,0,0,1,.26709-2.34082c.36573-.53418.87256.34277,1.32666.54882a2.36987,2.36987,0,0,1,.80127.70118,5.421,5.421,0,0,0,3.8877,2.47265,3.10948,3.10948,0,0,1-2.627-2.4541c-.32764-.80371-.28711-1.39551.42529-1.69726.26367-.11133.39551-.46192.64453-.63868,1.09961-.78027,1.53369-.72265,2.626.38086a1.79046,1.79046,0,0,1,1.6958-.45508C75.7067,239.09287,76.1774,238.9083,76.62906,239.60459Z"/><path class="l" d="M80.82486,241.77451c-.70459-.5166-.17187-1.18359-.43554-1.833a3.00782,3.00782,0,0,0-1.89746,1.35742c-.24854.39648-.31739,1.44238-1.23.80078a19.85668,19.85668,0,0,0,1.55664-3.14649c1.2788-.83007,1.96679-.63867,2.51172.69727Z"/><path class="m" d="M73.5402,239.74912c-.45264.13965-1.02881.51758-.74854-.66113-1.99365.38477-2.91064,1.24316-2.84228,2.62109a1.20772,1.20772,0,0,1-.47754-1.03808,3.16123,3.16123,0,0,1,2.188-2.4043c.22266-.02637.44581-.05371.66407-.09668.73193-.1416,1.56787-.43555.98974,1.08789C73.27945,239.34873,73.45963,239.58213,73.5402,239.74912Z"/><path class="n" d="M69.47184,240.671q.23877.52.47754,1.03808a3.38988,3.38988,0,0,0,2.86279,2.30274c-1.09815.56543-2.167.13672-3.167-.78321-.686-.63183-1.29493-1.38964-1.93848-2.09082-.48779-.69531-1.313-1.23046-1.06348-2.27832a18.51515,18.51515,0,0,0,2.27295,2.85547c.2334.19336.2876.82325.67041.66407.39844-.16407.03858-.61426-.05029-.93555C69.46207,241.1749,69.34049,240.91709,69.47184,240.671Z"/><path class="o" d="M66.64322,238.85947c.09229.88379.83057,1.46094,1.06348,2.27832-1.29932-.708-1.439-.55761-1.51807,1.63868-.53466-.30762-.59716-.98536-.93994-1.44336-.54785-.75977-.79345-1.38867.18848-1.65723.47217-.12891.58887-.91894,1.21826-.81543Z"/><path class="p" d="M81.33024,239.65049c-.77686-1.18164-1.65284-.80469-2.51172-.69727a1.77456,1.77456,0,0,1,.86963-.97461c.48535-.20507.915-.60351,1.47265-.10058C81.80631,238.46006,81.35172,239.06162,81.33024,239.65049Z"/><path class="n" d="M66.65543,238.86045c-.53125.48633-.77295,1.418-1.68457,1.32031q.13843.57716.27783,1.15235c-.77441-.78125-1.02929-1.42871-.03125-1.94825C65.67984,239.14365,65.96647,238.51572,66.65543,238.86045Z"/><path class="l" d="M76.62906,239.60459,75.236,239.294c.1665-.63085.52392-1.02343,1.15088-.73828C76.83707,238.75986,76.83365,239.2169,76.62906,239.60459Z"/><path class="q" d="M117.49625,219.76182c-.1206-.19873-.25732-.39893-.06738-.58545a3.50659,3.50659,0,0,1,.98681-1.2627c.5625-.45654,1.10938-.37207,1.64307.36866l-.01025-.00489c.43506.33887.72754.07617,1.01513-.15039.64063-.50439,1.09327-.23193,1.41065.67285-.17188.75733-.34326,1.51514-.585,2.57959,1.29687-.94531,1.32568-2.58349,2.0581-3.61132.6001-.29981.89014.13867,1.09912.772.88526,5.14453-4.09765,7.71582-6.99658,5.89258a12.83592,12.83592,0,0,1-2.47168-2.19434c-.396-1.105.14209-1.32227.87793-1.35107,1.30127,1.352,2.63379,2.54931,4.51367,1.99316-.89062-.46826-1.69922-.61328-2.28125-1.3833C118.16178,221.02842,118.04654,220.211,117.49625,219.76182Z"/><path class="r" d="M122.47428,218.7999c-.48047-.54492-.9336-1.17431-1.42725-.252-.32129.59961-.68017.11279-.99853-.27051.3955-.25244.78711-.51123,1.187-.75439.229-.13965.27344-.80567.75635-.24121C122.37565,217.73057,122.99234,218.1251,122.47428,218.7999Z"/><path class="r" d="M120.05875,218.28233c-.67822-.45508-1.27148-.74707-1.67773.20654-.14844.34912-.62549.46484-.95215.6875.09912-1.19092.57031-1.91748,1.7251-1.73584.41259.06445.52783-.39844.89892-.47559C120.2194,217.44834,119.59684,217.78379,120.05875,218.28233Z"/><path class="s" d="M125.04654,218.54014c-.35742-.27832-.66015-.688-1.09912-.77246-.32763-.50147.03125-.84961.043-1.27491a.42343.42343,0,0,1,.50635-.38134c.30371.02051.38867.33056.395.60742C124.90592,217.32383,125.36881,217.96543,125.04654,218.54014Z"/><path class="t" d="M116.45621,220.88731a1.39172,1.39172,0,0,0-.87793,1.35107,2.28931,2.28931,0,0,1-.80957-1.26221c-.04492-.70117.07373-1.21484.83643-.99218A1.83316,1.83316,0,0,1,116.45621,220.88731Z"/><path class="u" d="M115.60514,219.984a.94284.94284,0,0,0-.83643.99218,2.61415,2.61415,0,0,1-.25342-.63476c-.04736-.44434-.47509-1.10742.00684-1.2793C114.97916,218.899,115.39029,219.401,115.60514,219.984Z"/><path class="r" d="M117.49625,219.76182c.96924.09521.8042,1.14941,1.19238,1.73535A2.008,2.008,0,0,1,117.49625,219.76182Z"/><path d="M96.35514,219.02647c-3.17823,1.03418-6.42188,1.87158-9.65137,2.75586a118.36883,118.36883,0,0,0-16.58594,6.14306c-1.36279.603-2.7207,1.21729-4.08056,1.82617q-.093-.2058-.18555-.41162c2.34668-1.18847,4.6626-2.44384,7.04639-3.55127A111.644,111.644,0,0,1,89.778,219.52842a42.551,42.551,0,0,1,6.6665-.80518C96.58268,218.91856,96.62906,219.0626,96.35514,219.02647Z"/><path class="r" d="M96.35514,219.02647c.02929-.10108.05957-.20215.08935-.30323a4.668,4.668,0,0,1,1.9585-.15722A3.33554,3.33554,0,0,1,96.35514,219.02647Z"/><path d="M115.89615,211.03428c2.96436-4.71729,7.07032-7.84912,11.48535-10.55567A116.83137,116.83137,0,0,0,115.89615,211.03428Z"/><path d="M107.39566,229.40537a17.9767,17.9767,0,0,0,4.76465,9.60742,1.30147,1.30147,0,0,0,1.41211.41309.68639.68639,0,0,0,.14405-1.1123,16.25591,16.25591,0,0,1-4.34278-8.76954C109.22379,228.588,107.20865,228.21152,107.39566,229.40537Z"/><path d="M118.9733,249.63584a9.1828,9.1828,0,0,1-.17334,2.03125,8.28683,8.28683,0,0,1-.22754.84277q-.082.25342-.17871.50293l-.083.20606-.05175.12305.002-.00489a9.12374,9.12374,0,0,1-.45361.86621l-.13916.22754c-.06006.09668.07666-.10644-.03125.04493-.103.14453-.20362.29-.31153.43164l-.165.21c-.12744.16406.06934-.07422-.01806.02246-.10938.12109-.21729.24316-.33106.36035l-.18847.1875c-.0254.02539-.24756.22168-.05274.05273-.13476.11621-.269.23243-.4082.34375-.29.23047-.78858.75489-.65381,1.17383.13818.42969.76367.041.95019-.10742a10.751,10.751,0,0,0,4.14063-8.48047c-.01172-.45117-.45508-.37891-.75-.19726C119.506,248.68467,118.96109,249.17588,118.9733,249.63584Z"/><path d="M112.20182,271.88291q1.48242-2.543,2.96484-5.08789c.13965-.24023-.48047-.20117-.5459-.19629a3.24052,3.24052,0,0,0-1.23437.34082q-2.19947,1.13526-4.39893,2.27246a17.79765,17.79765,0,0,0-3.55322,2.02344,2.6903,2.6903,0,0,0-.90039,1.249c-.12549.44239-.13916,1.05372.41455,1.166a3.98753,3.98753,0,0,0,2.22461-.46,12.82987,12.82987,0,0,0,2.13281-1.19141c.38281-.26269-.32812-.2959-.458-.28613a2.88339,2.88339,0,0,0-1.38183.43359,11.85716,11.85716,0,0,1-1.44239.81836q-.43212.17286.18506-.03027c.29053.04492.40332-.01465.34034-.17773.0122-.08692-.03418-.23243-.03223-.32422a1.41,1.41,0,0,1,.13574-.55567,3.67738,3.67738,0,0,1,1.76856-1.5332c2.16259-1.13574,4.34033-2.24316,6.51025-3.36426q-.88989.07178-1.78027.14356-1.48243,2.543-2.96436,5.08789c-.17041.292.71191.17871.79785.165C111.31266,272.32334,112.00846,272.21494,112.20182,271.88291Z"/><path d="M113.09684,273.796a3.91451,3.91451,0,0,1-1.78565,3.38965,9.03026,9.03026,0,0,1-4.60449,1.17871c-.24023.01953-1.0332.09863-1.02295.46582.00977.35449.9043.32031,1.08252.30566,2.11084-.17383,4.36035-.38769,6.1875-1.56152a4.50362,4.50362,0,0,0,2.249-3.93946C115.16324,273.08994,113.05729,273.23936,113.09684,273.796Z"/><path d="M140.1359,191.59141c9.41894,19.57617,19.33105,39.83935,36.38916,53.96924.7832.64843,2.14844.585,2.9209,1.22461-17.05762-14.1294-26.97022-34.39307-36.38867-53.96875C142.70816,192.09092,140.47135,192.28867,140.1359,191.59141Z"/><path d="M143.91568,255.62315a160.25263,160.25263,0,0,0,20.731,30.16015c.61719.709,2.36279.42285,2.96533,1.11426a160.25233,160.25233,0,0,1-20.731-30.16016C146.50309,256.02549,144.279,256.30772,143.91568,255.62315Z"/><path d="M139.64225,254.1085a186.23039,186.23039,0,0,0,17.99267,34.48242c.56641.85449,1.81641,1.251,2.376,2.09473a186.2015,186.2015,0,0,1-17.99268-34.48243C141.6691,255.31944,139.98356,254.97178,139.64225,254.1085Z"/><path d="M137.65787,265.19736a108.94719,108.94719,0,0,0,13.10938,17.89258c-.70264-.77148-1.09717-1.8291-1.80371-2.60449a77.73753,77.73753,0,0,1-9.55957-12.78223C138.92008,266.88584,138.03824,265.839,137.65787,265.19736Z"/><path d="M135.7194,271.74717a160.56561,160.56561,0,0,1,9.85791,15.06152c.50537.875,1.85742,1.25586,2.35546,2.11817a160.46421,160.46421,0,0,0-9.85791-15.06153C137.45816,273.0294,136.33024,272.57529,135.7194,271.74717Z"/><path d="M128.11832,273.80381a81.41172,81.41172,0,0,0,10.98633,17.65625c-.57373-.70215.05469-2.40137-.5332-3.12207a81.47948,81.47948,0,0,1-10.98682-17.65625C128.007,271.60361,127.69156,272.87119,128.11832,273.80381Z"/><path d="M126.43277,279.15147a100.05424,100.05424,0,0,0,6.37793,13.02734c-.48339-.8291.11036-2.29883-.38281-3.14453a99.9397,99.9397,0,0,1-6.37744-13.02832C126.42887,276.94639,126.05,278.19932,126.43277,279.15147Z"/><path d="M120.49479,286.3292q.83862,2.44336,1.67773,4.8877a6.33739,6.33739,0,0,0,1.55176.3164,6.72568,6.72568,0,0,1,1.55859.28516q-.83936-2.44482-1.67822-4.8877a6.29209,6.29209,0,0,0-1.55176-.3164A6.76835,6.76835,0,0,1,120.49479,286.3292Z"/><path d="M48.05533,245.6085c7.17188,17.27441,20.22657,30.96386,33.02783,44.22754-.52587-.54493.48829-2.59961-.06054-3.167-12.80127-13.26367-25.85547-26.95312-33.02783-44.22753C48.36832,243.34092,47.67545,244.69346,48.05533,245.6085Z"/><path d="M49.72086,257.80576A205.17932,205.17932,0,0,0,83.13053,308.839c-.36182-.40528,1.26172-2.60938.87353-3.04493a205.1678,205.1678,0,0,1-33.41015-51.0332C50.92154,255.47471,49.38,257.06358,49.72086,257.80576Z"/><path d="M52.276,270.2833a362.27942,362.27942,0,0,1,21.00683,42.36524c.34033.8164,2.3252.93554,2.65528,1.72754a362.36936,362.36936,0,0,0-21.00684-42.36622C54.45328,271.18662,52.74283,271.088,52.276,270.2833Z"/><path d="M44.693,274.94541q10.6626,21.09814,20.05469,42.79981c-.2002-.46192,2.11669-2.03418,1.90039-2.53418q-9.38892-21.69434-20.0542-42.79981C46.79557,272.81065,44.47232,274.50889,44.693,274.94541Z"/><path d="M45.95572,284.46006A291.214,291.214,0,0,1,59.8151,321.3624c-.22852-.76074,1.48633-2.12109,1.249-2.91113a291.21139,291.21139,0,0,0-13.85888-36.90234C47.49234,282.17979,45.65445,283.797,45.95572,284.46006Z"/><path d="M31.21988,268.422q4.33374,9.23438,8.271,18.64551,1.92407,4.61133,3.74756,9.2627.91187,2.3247,1.79834,4.66113a20.10161,20.10161,0,0,1,1.62158,4.96289q-.05859-1.5542-.11816-3.1084a1.56477,1.56477,0,0,1-.79395,1.50781c-.458.28223.54785,2.9043.125,3.165,1.334-.82226.84424-3.81543.62354-5.16015a28.87348,28.87348,0,0,0-1.87891-5.31153q-1.262-3.30615-2.57422-6.59277Q36.94547,277.69541,31.09537,265.256C31.50406,266.128,30.80289,267.5333,31.21988,268.422Z"/><path d="M28.18326,277.57627a183.34053,183.34053,0,0,1,14.53955,36.498c.189.69629.39063,1.3916.606,2.08008.044.13964.32959,1.085.18115.53906a209.8365,209.8365,0,0,0-16.22021-42.15625C27.76578,275.45127,27.70279,276.6544,28.18326,277.57627Z"/><path d="M17.422,274.919q6.83936,18.61816,11.90918,37.8125c.14649.55372,2.89649.40137,3.03272.916Q27.29922,294.46982,20.45426,275.836C20.22916,275.22276,17.63443,275.49717,17.422,274.919Z"/><path d="M121.88492,198.66465a43.3636,43.3636,0,0,0-13.35742,12.30957,27.3936,27.3936,0,0,0,2.4082,2.05811c5.57471-2.34278,7.88819-9.561,14.1084-10.62647-.64746.11084-1.72461-2.17578-2.4082-2.0581-6.22022,1.06494-8.5332,8.28369-14.1084,10.62646l2.4082,2.05811a43.36351,43.36351,0,0,1,13.35743-12.30957C124.0192,200.88535,122.19791,198.47959,121.88492,198.66465Z"/><path d="M126.42789,198.78086a38.37908,38.37908,0,0,0-17.417,16.39014c.44971-.86231,1.93994-1.19239,2.39795-2.06983a32.13629,32.13629,0,0,1,5.09033-7.22656,23.8123,23.8123,0,0,1,7.53076-5.02344C124.9567,200.42246,125.51285,199.20371,126.42789,198.78086Z"/><path d="M119.54361,204.70908q-4.18138,4.41725-8.36181,8.83448c.66015-.69776,2.23535-.54346,2.90869-1.25489q4.18066-4.4165,8.36182-8.83447C121.79215,204.152,120.21647,203.99766,119.54361,204.70908Z"/><path d="M94.91617,218.67783q-18.06372,5.10132-36.374,9.25147c.65234-.148,1.85449,2.04541,2.54248,1.88916q18.30615-4.14844,36.374-9.251C96.8566,220.7374,95.55436,218.49766,94.91617,218.67783Z"/><path d="M89.24527,226.90244A124.05291,124.05291,0,0,0,56.42691,233.629l1.104,2.96972a124.03093,124.03093,0,0,1,32.81787-6.727C90.071,229.89024,89.568,226.88047,89.24527,226.90244Z"/><path d="M91.32877,222.72959a54.53329,54.53329,0,0,0-28.72217,6.78125c.47559-.26269,2.26514,1.80957,2.77539,1.52735a54.532,54.532,0,0,1,28.72217-6.78125C93.17057,224.21836,92.28385,222.76963,91.32877,222.72959Z"/><path d="M138.25846,209.44883q6.69286,14.94507,13.38476,29.89014a12.54775,12.54775,0,0,0,2.374.70019q2.87548.80566,5.76172,1.57422c1.92285.5166,3.84668,1.03125,5.77441,1.52734a11.51079,11.51079,0,0,1,2.40527.585q-6.69287-14.94435-13.38476-29.89014a12.55206,12.55206,0,0,0-2.374-.69971q-2.87548-.8064-5.76171-1.57519c-1.92286-.51612-3.84668-1.03077-5.77491-1.52735A11.42347,11.42347,0,0,1,138.25846,209.44883Z"/><path d="M142.6901,226.97471a232.0334,232.0334,0,0,1,11.8501,33.6416,16.89811,16.89811,0,0,0,2.41894.52441q2.92676.59181,5.86182,1.14649c1.956.374,3.91162.74512,5.87109,1.09863a19.6026,19.6026,0,0,1,2.4419.40723A232.034,232.034,0,0,0,159.28434,230.151a13.77545,13.77545,0,0,0-2.41895-.52393q-2.92749-.59253-5.86182-1.147c-1.95605-.374-3.91259-.74561-5.87207-1.09912A13.23276,13.23276,0,0,1,142.6901,226.97471Z"/><path d="M176.029,274.32139q-8.16138-12.10107-17.06641-23.67188c.20752.26953-4.24658,6.45606-4.63574,7.0625-1.07569,1.67578-2.14942,3.35254-3.207,5.03907a12.21988,12.21988,0,0,0-1.28663,2.11425q8.90187,11.56788,17.06641,23.67188c-.01709-.02539,1.59131-2.36035,1.38721-2.04981q1.64063-2.49462,3.24853-5.01269c1.0752-1.67578,2.14893-3.35254,3.207-5.03906C174.9025,276.18076,176.14029,274.48643,176.029,274.32139Z"/><path d="M162.89176,262.7208a146.722,146.722,0,0,0-13.3916-24.25976,10.35079,10.35079,0,0,0-2.33936-.8086q-2.83593-.936-5.68408-1.83593c-1.89746-.6045-3.79541-1.20606-5.69922-1.79-.42969-.13184-2.165-.38575-2.37549-.69385a146.78732,146.78732,0,0,1,13.39209,24.26025,12.0898,12.0898,0,0,0,2.33887.80762q2.83666.9375,5.68457,1.83691c1.89746.60352,3.79541,1.20508,5.69873,1.78907A10.84491,10.84491,0,0,1,162.89176,262.7208Z"/><path d="M147.02213,270.95811q-1.72119-3.84375-3.44189-7.68653a11.01707,11.01707,0,0,0-1.5918-1.89453q-1.9519-2.26024-3.93311-4.49609-1.9768-2.23829-3.97021-4.46289c-.46094-.51172-1.41065-1.21094-1.68164-1.81543q1.72119,3.84228,3.4414,7.68555a11.09322,11.09322,0,0,0,1.59229,1.8955q1.9519,2.26026,3.9331,4.49512,1.97682,2.23974,3.97022,4.46387C145.80143,269.65342,146.75113,270.35264,147.02213,270.95811Z"/><path d="M145.08219,278.16709q-2.38989-5.33788-4.77979-10.6748a14.41381,14.41381,0,0,0-2.44189-.40528c-1.96826-.29882-3.93945-.58105-5.91113-.8584s-3.94336-.55273-5.918-.80957a14.48112,14.48112,0,0,1-2.4585-.28613q2.38989,5.33643,4.78027,10.67481a14.5,14.5,0,0,0,2.44141.40429q2.95239.44824,5.91113.85938c1.97168.27637,3.94385.55273,5.91846.80957A14.481,14.481,0,0,1,145.08219,278.16709Z"/><path d="M121.5319,154.51035a311.13952,311.13952,0,0,1,25.31933,54.82959c-.02051-.05908,1.85938-2.1167,1.63623-1.85644q1.94459-2.26758,3.8584-4.56006,1.919-2.28882,3.8208-4.5918c.21484-.26172,1.62988-1.68945,1.54492-1.93359A311.18138,311.18138,0,0,0,132.39176,141.568c.1709.29248-5.03223,5.86572-5.49463,6.417q-1.919,2.28882-3.8208,4.5918C122.89469,152.79746,121.444,154.36045,121.5319,154.51035Z"/><path d="M116.13932,157.441a166.47953,166.47953,0,0,1,13.46435,27.3125c.15625.40722,1.74805,1.499,1.88037,1.60888q2.29469,1.91089,4.61524,3.79151,2.31665,1.88524,4.64746,3.75342c.41992.33447,1.7832,1.06591,1.95557,1.51611a166.45816,166.45816,0,0,0-13.46387-27.3125,10.48647,10.48647,0,0,0-1.88037-1.60889q-2.29614-1.91088-4.61621-3.792c-1.544-1.25635-3.08936-2.51221-4.64649-3.75293C117.57584,158.54307,116.47037,157.98154,116.13932,157.441Z"/><path d="M101.56852,164.38145a19.38956,19.38956,0,0,1,5.96045,7.2041c1.67138,3.04785,3.22705,6.16553,4.76269,9.28369q4.92114,9.99317,9.16211,20.29932c-.10449-.2544,6.043-4.85938,6.57861-5.29981q2.3064-1.89771,4.59815-3.813a13.50145,13.50145,0,0,0,1.87353-1.61767q-4.25024-10.29565-9.16259-20.29981c-1.53663-3.11767-3.09375-6.23388-4.7627-9.2832a19.36336,19.36336,0,0,0-5.96045-7.2041c-.39111-.26172-6.00976,4.832-6.57861,5.2998C107.50065,159.39463,101.87076,164.58408,101.56852,164.38145Z"/><path d="M102.9069,161.10752a83.90521,83.90521,0,0,1,5.32421,35.68262,10.69889,10.69889,0,0,0,1.44141,2.01172q1.771,2.40453,3.57471,4.78613,1.79809,2.384,3.61426,4.75537c.25732.33447,1.55957,1.603,1.53662,1.94043a83.91183,83.91183,0,0,0-5.32422-35.68262,11.49089,11.49089,0,0,0-1.44141-2.01172q-1.771-2.40453-3.57471-4.78564-1.7981-2.38476-3.61425-4.75586A10.52047,10.52047,0,0,1,102.9069,161.10752Z"/><path d="M95.57975,183.505a222.91168,222.91168,0,0,1,3.34277,32.99121c.00732.27783,7.7207,1.00244,8.37842,1.08008.62549.07422,8.395.78809,8.39844.91309a222.98327,222.98327,0,0,0-3.34229-32.9917c-.08252-.46338-7.64648-.99365-8.37891-1.08008C103.28482,184.33555,95.64371,183.86387,95.57975,183.505Z"/><path d="M82.2526,173.32236a129.91373,129.91373,0,0,1,7.82617,43.249c.00439.48047,7.35742,2.29394,8.06787,2.50635.67285.20166,8.11279,1.96826,8.11572,2.34423a129.91824,129.91824,0,0,0-7.82617-43.24951,13.19157,13.19157,0,0,0-2.353-.76709q-2.85131-.88842-5.71484-1.73877c-1.90723-.5708-3.81543-1.14013-5.72851-1.6914A12.33661,12.33661,0,0,1,82.2526,173.32236Z"/><path d="M78.81217,192.39414c.48389,2.46973.88525,4.95313,1.17383,7.45362q.22851,1.98705.36865,3.98291c.04443.62744.06738,1.25634.11279,1.8833.20557,2.833.08155-4.44385.01856-1.896a96.153,96.153,0,0,1-1.60694,15.38379c-.51074,2.72607.5835,5.7456.07715,8.44726a112.106,112.106,0,0,0,1.64014-21.67431A118.3911,118.3911,0,0,0,78.735,183.94688C79.26481,186.65049,78.2775,189.66758,78.81217,192.39414Z"/><path d="M63.882,185.7042a88.68265,88.68265,0,0,1,5.89991,27.0752c.04785.82226,2.1333,2.63867,2.66357,3.27832.63525.76611,1.27148,1.53222,1.916,2.291.15039.17725.80126.73682.8125.93311a88.68275,88.68275,0,0,0-5.89991-27.07471c-.44043-1.13086-1.8916-2.34766-2.66357-3.27832C65.84244,188.00205,64.32,186.8292,63.882,185.7042Z"/><path d="M80.64176,181.72178a47.09894,47.09894,0,0,1,4.98584,20.82178c.00342.498,2.96387,2.18261,3.40527,2.49951.43408.3125,3.45069,1.93945,3.4541,2.43115a47.09426,47.09426,0,0,0-4.98632-20.82178c-.45215-.90576-2.5835-1.90967-3.40479-2.49951-.80859-.58154-1.61719-1.16211-2.43213-1.7334C81.43424,182.2584,80.756,181.95029,80.64176,181.72178Z"/><path d="M58.24332,180.46494A212.84712,212.84712,0,0,1,64.7067,226.9542c-.01465-.52295,2.5957-2.53613,3.01611-2.95654.7041-.7041,1.40772-1.40821,2.10352-2.12061.1499-.15381.8584-.707.85351-.896A212.8761,212.8761,0,0,0,64.217,174.4918c.07764.30664-2.70459,2.64453-3.0166,2.95654C60.842,177.80674,58.12125,179.9835,58.24332,180.46494Z"/><path d="M51.6193,195.95762A122.34381,122.34381,0,0,1,57.49772,239.004c.022-.51563,2.79-2.33106,3.2373-2.7129.75684-.64746,1.51318-1.29492,2.26221-1.95019.15967-.14063.91308-.64063.9209-.82715a122.35392,122.35392,0,0,0-5.87842-43.0459,31.91243,31.91243,0,0,1-3.2378,2.71289C54.484,193.45225,51.50553,195.609,51.6193,195.95762Z"/><path d="M47.37565,221.89024a109.23509,109.23509,0,0,1,2.02294,10.83691q.15747,1.18725.28907,2.37842c.46338,4.208-.24073-4.90039-.06836-.957.09082,2.07715.11084,4.15625.084,6.23535-.03613,2.80859.67627,5.626.64014,8.42383A146.55374,146.55374,0,0,0,46.736,213.4669C47.37418,216.1627,46.73307,219.17539,47.37565,221.89024Z"/><path d="M40.0109,232.17539a128.05459,128.05459,0,0,1,9.31787,20.94971,17.567,17.567,0,0,0,2.34961,3.50976c.7085,1.03614,2.01269,2.27344,2.41894,3.4629A128.15243,128.15243,0,0,0,44.779,239.14854C43.41275,236.69541,41.37125,234.61924,40.0109,232.17539Z"/><path d="M39.98893,232.18858a341.07186,341.07186,0,0,1,15.85254,41.09277c.37158,1.18457,1.64794,2.48926,2.34619,3.51269.69336,1.01563,2.04638,2.28711,2.41552,3.46485a341.15436,341.15436,0,0,0-15.853-41.09278C43.5817,236.63779,41.14859,234.69834,39.98893,232.18858Z"/><path d="M30.66764,233.20127q7.36816,13.10742,13.85156,26.68457,3.18969,6.69434,6.15137,13.49414,1.481,3.39844,2.90381,6.82227c.83105,2,2.26513,4.375,2.51562,6.5332q1.10229-3.999,2.20361-7.999c-.24023.71582-.76757.335-.85009-.04785a6.1151,6.1151,0,0,1-.35889,1.18359c-.27686.957-.54346,1.916-.80957,2.875-.26514.96-.53076,1.91992-.78516,2.88184a3.72749,3.72749,0,0,0-.30127,1.20019c.26123,1.209.95508-.25293,1.07569-.64453.46826-1.51758.87256-3.05957,1.292-4.59082a9.83423,9.83423,0,0,0,.74121-3.4082,15.39026,15.39026,0,0,0-1.36963-3.458q-3.50244-8.58252-7.36377-17.01074-7.6355-16.66847-16.6416-32.65674c.27246.48486-1.00244,3.46-1.16846,4.05908-.26562.95947-.53076,1.91943-.78515,2.88184C30.91178,232.21592,30.57,233.02793,30.66764,233.20127Z"/><path d="M26.42447,231.2833Q39.57071,258.98058,51.05289,287.422c.043.10645,7.89551-3.00488,7.89111-3.01562q-11.47631-28.42822-24.62793-56.1377C34.195,228.01377,26.49137,231.42393,26.42447,231.2833Z"/><path d="M24.74625,240.45811q6.67823,12.42333,12.88574,25.09082,3.00879,6.14794,5.90088,12.35156,1.48976,3.19629,2.94873,6.40527.77271,1.70068,1.53565,3.40332c.32763.73047,1.11963,1.80567.84179,2.60645q4.21216-.312,8.42432-.62305c-.21094-.00586-.40283-.0957-.21826-.29883-.39356.43164-3.57227.22168-4.21533.26954-.99317.07324-1.98584.14746-2.978.23144-.22754.02051-1.09229-.03125-1.23145.12109-.18408.20215.00782.293.21875.29981a40.625,40.625,0,0,0,4.21534-.26953c.4248-.03125,4.085.00586,4.209-.35352.25244-.72656-.375-1.56445-.67187-2.22656q-.76247-1.70361-1.5337-3.4043-1.45752-3.21093-2.94531-6.40722-2.97584-6.39258-6.07568-12.72754Q39.85759,252.25743,33.17057,239.836c-.15381-.28614-3.79785.23828-4.21533.26855C28.55582,240.13389,24.884,240.714,24.74625,240.45811Z"/><path d="M19.30143,243.75986q7.39159,14.16359,14.21386,28.61329,3.36255,7.13085,6.58057,14.3291c1.84766,4.13281,4.97754,9.02148,4.49414,13.71094q3.925-1.56006,7.84961-3.12012l-1.72119-.4834c-.773-.2168-3.187,1.22168-3.94043,1.52148-.92529.36719-1.8501.73633-2.771,1.11426-.21045.08692-.95508.53613-1.13867.48438q.8606.24169,1.72168.4834c.77295.21679,3.187-1.22168,3.94043-1.52051.43555-.17383,3.86377-1.15723,3.90918-1.59961.47217-4.58008-2.522-9.29492-4.32471-13.333q-3.29809-7.38867-6.74951-14.707-6.81372-14.45069-14.21387-28.61328C26.98941,240.3292,19.40543,243.95908,19.30143,243.75986Z"/><path d="M18.00357,255.588q6.81374,12.9668,13.26807,26.12012,3.178,6.48339,6.26611,13.01172c1.23584,2.6123,4.606,7.35449,2.34229,10.20214q4.20557.394,8.41064.78809a16.02331,16.02331,0,0,1-2.27294-2.24316c-.418-.50293-3.5293-.37305-4.20118-.43555-.99121-.09375-1.98291-.18555-2.97509-.2666a4.98637,4.98637,0,0,1-1.23438-.08594A16.02149,16.02149,0,0,0,39.88,304.922c.68555.55567,3.31982.35352,4.20166.43653.53467.0498,3.875.77246,4.209.35156,2.21094-2.78125-.95361-7.26367-2.166-9.8291q-3.17286-6.71631-6.44287-13.38477-6.44825-13.1543-13.26758-26.12011c-.21-.39942-3.69678-.38868-4.20117-.43653C21.71988,255.89365,18.20768,255.97569,18.00357,255.588Z"/><path d="M12.0192,251.99229Q18.07633,264.2706,24.133,276.54893c1.94824,3.95019,3.96387,7.875,5.84082,11.85937a15.78354,15.78354,0,0,1,1.63965,5.06153c.05859.58105.24414,2.07617-.17774,2.55859-.36377.415-.30224.12012-.86816-.15039q-1.58717-1.147,1.6748,2.14648,2.79713,3.898,1.6504,1.77539a19.76656,19.76656,0,0,0-2.68848-3.25781,20.07744,20.07744,0,0,1-2.75293-3.2041c1.05859,2.09863,2.88916,3.876,4.39209,5.65039a32.14054,32.14054,0,0,0,2.3457,2.67481,6.92108,6.92108,0,0,0,.81983.67578c.79394.54882.59375.5039.95263-.166.91162-1.70019-.44677-4.81934-1.12353-6.38086-1.04688-2.417-2.30371-4.7539-3.46826-7.11523q-7.4546-15.11133-14.90918-30.22364a19.24191,19.24191,0,0,0-2.68848-3.25781C13.94645,254.21494,12.58707,253.14365,12.0192,251.99229Z"/><path d="M3.85172,246.35069q5.0376,11.48876,10.07617,22.97851c1.67529,3.82031,3.40039,7.623,5.01709,11.46875a43.57886,43.57886,0,0,1,1.957,5.4375q.21826.7954.38526,1.60156.613,1.14258-.41309.74024c-.7207.01758-1.4458-.73926-1.87353-1.21778q2.499,3.40576,4.99707,6.81153c-.09766-.16309-.19581-.3252-.294-.48828-1.45068-2.4043-3.55176-4.416-4.99707-6.81055,1.18848,1.96973,2.65332,3.78809,4.02441,5.63281.45948.61817,2.53077,3.77832,3.70459,2.9541.27-.18945-.76855-3.21289-.88964-3.59668-.37452-1.18261-.81641-2.34082-1.28516-3.48925-.998-2.43946-2.09424-4.84082-3.15283-7.25489q-6.12964-13.979-12.25977-27.957a20.79484,20.79484,0,0,0-2.46435-3.43066A20.97219,20.97219,0,0,1,3.85172,246.35069Z"/><path d="M-5.8431,254.14854Q5.037,275.777,15.91666,297.4044q-1.02833-4.09571-2.05615-8.19336c-2.94531-.67578-4.44141-3.33789-5.708-5.84766a21.47248,21.47248,0,0,1,.98731,4.10742,20.219,20.219,0,0,0,1.06884,4.08594c1.26709,2.50977,2.76319,5.17187,5.708,5.84766-.25684-.0586-.88769-3.71094-.9873-4.10645a20.35754,20.35754,0,0,0-1.06885-4.08691Q2.98038,267.58261-7.89926,245.95518a21.53444,21.53444,0,0,1,.98682,4.10644A20.35867,20.35867,0,0,0-5.8431,254.14854Z"/><path d="M-.54037,266.13877a142.70578,142.70578,0,0,1,7.11719,15.751q1.45971,3.8496,2.68847,7.7832a12.68725,12.68725,0,0,1,.71631,2.36524c.05908.85156.39209.91406-.6626.51464-2.76709-1.04882.71924-1.69043,3.74463,3.419-.31738-.53516-.72461-.99707-1.022-1.55859-.52539-.99317-2.37305-2.002-3.23877-2.71192-.76953-.63086-1.53955-1.26269-2.31689-1.88476-.24268-.19434-.83838-.50293-.9751-.76172,1.55713,2.94043,4.96045,5.0039,7.47607,7.01855.7793.62305,2.08594,1.918,3.1543,1.94727q1.08471.57422.37158-.625-.23217-.791-.47314-1.57813-.42114-1.37841-.87256-2.74707a141.50862,141.50862,0,0,0-9.17627-21.57422c-.52051-.99023-2.37647-2.0039-3.23877-2.71093-.76953-.63184-1.54-1.2627-2.31689-1.88477C.193,266.70615-.40512,266.39658-.54037,266.13877Z"/><path d="M36.07633,164.62559a259.04416,259.04416,0,0,1,25.22412,40.03955c-.20215-.39746,1.53857-3.354,1.75586-3.8418.25342-.56933,1.96875-3.30517,1.67871-3.876A259.05786,259.05786,0,0,0,39.5109,156.90781c.17285.22608-1.585,3.45655-1.75586,3.8418C37.55973,161.18858,35.79606,164.25938,36.07633,164.62559Z"/><path d="M44.78922,161.75791q9.86791,15.99829,18.30664,32.811c.2915.58105,3.35938,1.15332,3.99756,1.36425.94531.312,1.89111.62354,2.83984.92432.18408.05859,1.11914.23,1.18408.35986q-8.43163-16.80028-18.30664-32.811c-.39209-.63623-3.27636-1.12647-3.99755-1.36426-.94532-.3125-1.89112-.624-2.83985-.9248C45.76871,162.05235,44.88,161.90586,44.78922,161.75791Z"/><path d="M50.402,156.3209a190.358,190.358,0,0,1,8.92627,17.56836q1.99731,4.50587,3.75293,9.11377c.70313,1.84473,2.98486,5.66748,1.5459,7.53076-.4707.60986,5.5625,6.1709,5.166,6.68359,1.44873-1.876-.83789-5.67285-1.54541-7.53076q-1.75562-4.60547-3.75342-9.11377A189.69306,189.69306,0,0,0,55.568,163.00449C54.17643,160.5792,51.78482,158.73154,50.402,156.3209Z"/><path d="M51.71988,160.45615q4.44947,10.59082,8.10938,21.48633,1.78784,5.34741,3.375,10.75928c.87207,2.97461,2.79639,6.94238,1.75439,10.03809-.08252.2456,7.84034,3.12255,7.79785,3.249,1.03711-3.0835-.88574-7.0752-1.75439-10.03809q-1.58643-5.41113-3.37549-10.75927-3.64307-10.89478-8.10888-21.48633c-.25538-.60791-3.25489-1.40186-3.88282-1.66358-.91894-.38281-1.83789-.76513-2.76123-1.1372C52.69254,160.83115,51.7775,160.59238,51.71988,160.45615Z"/><path d="M62.16275,176.05283a236.01808,236.01808,0,0,1,10.2168,31.9126c.1875.77149,2.6499,2.16406,3.27783,2.66455.77881.61963,1.55811,1.23975,2.34424,1.85059.17774.13818.9419.56445.98633.74707a235.99734,235.99734,0,0,0-10.2168-31.9126c-.36084-.90088-2.519-2.05957-3.27783-2.66406-.77881-.62012-1.5581-1.23975-2.34424-1.85108C62.93668,176.63486,62.25309,176.27793,62.16275,176.05283Z"/><path d="M69.5485,189.36387A114.90267,114.90267,0,0,1,79.4982,217.944q-.17651-4.22022-.354-8.44043-.8269-.49512-1.65381-.99073c.3042.18213.11524,3.75538.13477,4.22168.02246.53955-.24414,3.94092.21924,4.21827q.82689.49584,1.6538.99121c-.30371-.18213-.11523-3.75537-.13476-4.22217a26.95476,26.95476,0,0,0-.21924-4.21826,114.90957,114.90957,0,0,0-9.94971-28.58008,5.93212,5.93212,0,0,1,.022,1.23779c.03027.99463.07128,1.98975.11328,2.98389C69.37711,186.277,69.0275,188.32969,69.5485,189.36387Z"/><path d="M57.87809,160.881q9.77709,17.92383,19.55566,35.84814c.27734.50879,3.519.8169,4.11572.94825.97217.21386,1.94483.42675,2.91944.6289a5.45721,5.45721,0,0,1,1.21484.23633L66.12809,162.69492c-.27735-.50927-3.51953-.81738-4.11621-.94824-.97217-.21387-1.94434-.42676-2.91944-.62939A5.43155,5.43155,0,0,1,57.87809,160.881Z"/><path d="M65.66324,144.37949q6.30176,12.98658,11.46,26.48291,2.49463,6.55152,4.70313,13.207c1.49267,4.49609,3.10693,9.03466,3.19238,13.81982.01465.79639,2.104,2.69531,2.60742,3.32373.62207.77686,1.24512,1.55371,1.87647,2.32324.14355.17481.793.75879.79639.94727-.083-4.65186-1.61768-9.05518-3.063-13.42871q-2.26392-6.85254-4.83252-13.59864Q77.267,163.96494,70.943,150.97324A20.43392,20.43392,0,0,0,68.33609,147.65,20.74738,20.74738,0,0,1,65.66324,144.37949Z"/><path d="M80.24137,157.15a196.62072,196.62072,0,0,1,7.96191,26.12354q1.50366,6.561,2.54981,13.21582c.30615,1.94726.61572,3.90234.77832,5.86816a26.1459,26.1459,0,0,1,.08935,3.11084c-.01611.45752-.04687.9126-.09765,1.36816-.2295,2.07715-1.19043,4.42139,1.35595-3.91992q-.87231,2.85645-1.67724,5.7334c-.33057,1.18067-.416,1.5669.05713.0166,1.42285-4.66162,3.02685-9.13867,2.66992-14.07031a118.1542,118.1542,0,0,0-2.40137-15.04541,196.25347,196.25347,0,0,0-8.91406-30.50879,7.33016,7.33016,0,0,1-.376,1.1792c-.29053.95215-.5708,1.90772-.85058,2.86279-.2793.95557-.5586,1.91162-.82666,2.87012C80.49039,156.2042,80.15494,156.92295,80.24137,157.15Z"/><path d="M86.93668,198.211a39.89839,39.89839,0,0,1,1.35791,15.94384c.0459-.39892,3.25391-1.80957,3.68848-2.05761.50586-.28858,3.57861-1.543,3.647-2.13135a39.88774,39.88774,0,0,0-1.35742-15.94336C94.43863,194.589,86.736,197.52647,86.93668,198.211Z"/><path d="M85.86344,202.91319a70.94684,70.94684,0,0,1,.88818,9.13134c.07031,2.38282.585,5.84473-.91064,7.87354q3.03442-2.93775,6.06982-5.875a1.5074,1.5074,0,0,1-.91357.46924c-.98926.31-2.3208,2.187-3.06446,2.90673-.71533.69239-1.43017,1.38526-2.1372,2.08594-.2041.20215-.6167.80322-.86866.88184,1.85206-.58057,3.44141-2.85108,4.78418-4.15821,1.47022-1.43115,2.82178-2.438,3.042-4.58056a57.16147,57.16147,0,0,0-.81983-14.60986c.06055.375-2.71582,2.57031-3.064,2.90722C88.465,200.33652,85.77359,202.35215,85.86344,202.91319Z"/><path d="M84.5944,161.00645a161.82049,161.82049,0,0,1,13.68652,33.86523c-.14307-.51318,1.87744-3.09717,2.18359-3.61572.50586-.85694,1.01172-1.71485,1.50781-2.57813.10792-.188.6543-.896.603-1.08056A161.82825,161.82825,0,0,0,88.88981,153.732c.15185.28076-1.959,3.23389-2.18409,3.61573C86.44693,157.78623,84.35611,160.56651,84.5944,161.00645Z"/><path d="M91.59684,162.88633q8.83008,17.83961,17.66064,35.67871c-1.23974-2.50391-1.731-5.39014-2.97558-7.90576q-8.83081-17.8396-17.66114-35.67871C89.86,157.48447,90.35123,160.37119,91.59684,162.88633Z"/><path d="M87.21256,156.12412a191.94591,191.94591,0,0,1,14.75293,28.09424c-.03809-.09131,3.147-2.28711,3.415-2.48584.32226-.23975,3.45752-2.22851,3.36426-2.5542a1.69276,1.69276,0,0,1-.1001-1.33642c-.06885.52978-2.93067,2.126-3.41455,2.48584-.79932.59423-1.59815,1.189-2.38965,1.792-.17285.13183-.95068.57178-.9751.76221a1.69291,1.69291,0,0,0,.1001,1.33642q3.38964-2.52025,6.7793-5.04a191.94591,191.94591,0,0,0-14.75293-28.09424C94.06852,151.20518,87.068,155.89658,87.21256,156.12412Z"/><path d="M84.59781,137.21934l20.04346,32.5708c.63867,1.03711,2.27148,1.97558,3.19775,2.75928.92237.78027,2.61817,1.66357,3.25293,2.69531q-10.02173-16.28541-20.04394-32.5708c-.63819-1.0376-2.271-1.97559-3.19776-2.75977C86.92838,139.13438,85.23258,138.25108,84.59781,137.21934Z"/><path d="M93.7316,153.50205q8.88721,11.77734,18.1792,23.24072c-.21142-.26074,1.26026-3.55273,1.40723-3.98193.16943-.4956,1.65478-3.60693,1.32812-4.01025q-9.29076-11.46168-18.1792-23.24073c.22022.292-1.2539,3.53321-1.4082,3.98243C94.881,150.01279,93.39811,153.06113,93.7316,153.50205Z"/><path d="M94.65006,150.30479q6.02564,9.16626,12.49658,18.0249c.728.99658,2.3794,1.81592,3.36817,2.54834.98339.72851,2.69531,1.49023,3.41894,2.481q-6.47022-8.85792-12.49658-18.02491c-.64649-.98437-2.42481-1.84961-3.36817-2.54882C97.12857,152.08848,95.29557,151.28672,94.65006,150.30479Z"/><path d="M99.27018,150.607a113.47174,113.47174,0,0,0,19.52929,22.252l5.51026-6.40284a113.48994,113.48994,0,0,1-19.52979-22.252c.0669.09961-2.56494,2.916-2.78711,3.17383C101.756,147.65342,99.12369,150.38828,99.27018,150.607Z"/><path d="M104.88541,149.43418q6.48852,7.58862,12.97754,15.17725,1.62158,1.89769,3.24414,3.79443c.29981.35059,1.396,1.88916,1.688.78125.10693-.4043-1.95264-2.67383-2.16358-2.95557-.97119-1.2998-1.93505-2.61035-2.95263-3.875-.34473-.42871.38037.5835.229.36036.46826.69336.99951,1.36132,1.499,2.03125,1.03369,1.3872,2.05468,2.791,3.14013,4.13964l.14893.18506q-2.48364-3.32226-4.96729-6.645c-.2915.9751-1.15625-.17822-1.48974-.55322-.82813-.93213-1.62256-1.89746-2.43311-2.8457q-2.29761-2.688-4.5957-5.37549-4.59669-5.37525-9.19238-10.75049c-.34864-.40771.36376.56055.229.36035.4668.69385,1,1.36182,1.499,2.03125C102.77555,146.67637,103.76432,148.12315,104.88541,149.43418Z"/><path d="M98.55436,138.73936a308.107,308.107,0,0,1,21.44384,28.271q3.46363,2.41626,6.92774,4.8335-.50683-.717-1.01367-1.43457c-.68311-.9668-2.47168-1.77588-3.43946-2.45117-.96435-.67285-2.80713-1.41846-3.48828-2.38233q.50683.71778,1.01367,1.43457c.68311.9668,2.47168,1.77588,3.43995,2.45117.8164.56983,1.6333,1.13868,2.45605,1.69874.26514.18017.86279.43164,1.03174.68359a308.02774,308.02774,0,0,0-21.44385-28.27149,18.43083,18.43083,0,0,0-3.43945-2.45117C101.00113,140.39463,99.38,139.70615,98.55436,138.73936Z"/><path d="M99.6691,143.796a98.24018,98.24018,0,0,1,10.05908,19.07812c.11084.28125,8.03028-2.57763,8.09522-2.41357a98.24081,98.24081,0,0,0-10.05908-19.07813c-.13623-.20166-3.70313,1.06006-4.05957,1.166A32.88,32.88,0,0,1,99.6691,143.796Z"/><path d="M108.11246,138.29258q9.55226,15.3252,19.105,30.64941-.334-4.2107-.66894-8.42089-.70533-1.07446-1.41065-2.14991a6.19972,6.19972,0,0,1,.06836,1.23535c.06738.99317.14551,1.98584.22412,2.97852.0791.99219.15869,1.98486.249,2.97607a3.67173,3.67173,0,0,0,.12793,1.231q.70532,1.0752,1.41015,2.1499a6.23418,6.23418,0,0,1-.06787-1.23535c-.06738-.99316-.14551-1.98584-.22412-2.97851-.0791-.99219-.15869-1.98487-.249-2.97608a3.734,3.734,0,0,0-.12793-1.231q-9.55226-15.32446-19.10547-30.64942a6.11333,6.11333,0,0,1,.06836,1.23584c.06738.99317.145,1.98584.22412,2.978s.1582,1.98486.249,2.97656A3.71674,3.71674,0,0,0,108.11246,138.29258Z"/><path d="M110.02066,146.47569q8.20093,11.90552,16.40137,23.812c-.07422-.10791,2.47461-2.9878,2.69141-3.25537.27685-.3418,2.80273-2.94873,2.626-3.3086q-.49438-1.00488-.98876-2.00879c.10351.20948-2.44483,2.95069-2.6919,3.25537-.27637.34131-2.80273,2.94825-2.62549,3.30811q.49438,1.00488.98877,2.00928l5.31738-6.564q-8.20092-11.90625-16.40136-23.812c.07373.10742-2.4751,2.98779-2.6919,3.25537C112.41422,143.45371,109.86344,146.24766,110.02066,146.47569Z"/><path d="M105.26383,136.91367a107.51584,107.51584,0,0,1,10.5918,13.74121c.4873.75,3.02392,1.38672,3.84423,1.75049.91016.40381,1.8208.80664,2.73536,1.19971.23.09863,1.02441.291,1.14306.47412A107.51877,107.51877,0,0,0,112.986,140.338c-.73877-.814-2.8418-1.30664-3.84375-1.751-.91016-.40381-1.8208-.80664-2.73535-1.19922A4.38675,4.38675,0,0,1,105.26383,136.91367Z"/><path d="M132.22379,150.12412a47.09068,47.09068,0,0,0-16.2251-15.1914c-.3667-.20752-4.81006,6.90478-5.06738,6.75927A47.08777,47.08777,0,0,1,127.1569,156.8834a37.51264,37.51264,0,0,1,2.56689-3.35449C129.96109,153.21348,132.40348,150.39756,132.22379,150.12412Z"/><path d="M135.96793,153.83262c-5.79248-10.42432-16.09619-16.85645-26.88184-21.31836,2.58155,1.06787,4.84961,2.92187,7.44288,3.99512.56738.23437,1.125.48828,1.68847.73242,2.439,1.05517-3.83545-2.18945-3.66357-1.98291.64306.77441,2.05127,1.313,2.9082,1.94433a38.90234,38.90234,0,0,1,11.0625,12.63477c.43848.78809,2.9043,1.60645,3.70166,2.03418.877.47119,1.75488.94141,2.6377,1.40137C135.08707,153.39024,135.86051,153.63975,135.96793,153.83262Z"/><path d="M102.25065,147.83311A50.96691,50.96691,0,0,0,88.903,138.859c-1.3125-.603-4.10547-2.40821-5.32422-.92823-.99219,1.20557-1.4751,3.3208-2.0918,4.75586a14.0733,14.0733,0,0,0-1.25244,3.23487c.187-1.21485,1.22461-2.72217,1.71729-3.85938a17.8934,17.8934,0,0,0,1.63965-3.89258c.019-.124.03857-.24853.05761-.37256q-1.67871,3.87525-3.35742,7.75147c1.0376-1.06787,2.87988.03125,3.96924.49463a49.76164,49.76164,0,0,1,5.34082,2.65967,51.31255,51.31255,0,0,1,9.292,6.88183,38.64471,38.64471,0,0,1,1.71778-3.85888C100.76676,151.3668,102.486,148.0499,102.25065,147.83311Z"/><path d="M90.97623,147.81113a42.697,42.697,0,0,0-17.71191-12.20361,6.98,6.98,0,0,1,.67431,1.03809c.55225.82812,1.11426,1.6499,1.67627,2.47168s1.12451,1.64306,1.69678,2.458c.15381.21924.48535.91748.72266,1.00391a42.69691,42.69691,0,0,1,17.71191,12.20361C93.92008,152.6749,92.81168,149.92979,90.97623,147.81113Z"/><path d="M93.53092,154.38047a40.99285,40.99285,0,0,0-16.47754-14.3252c-.34277-.16406-3.06494,2.19483-3.43115,2.46338-.35449.25977-3.061,2.68555-3.38184,2.53174a40.993,40.993,0,0,1,16.478,14.32471C86.68082,159.319,93.63785,154.54111,93.53092,154.38047Z"/><path d="M35.28678,165.24619a40.0482,40.0482,0,0,1,.147,4.65186c-.08057-5.10108,1.22363-5.5752.36768-3.11719a22.95818,22.95818,0,0,1-1.04151,2.45068c-.55029,1.13623-.55761,2.91309-.77636,4.15235-.21729,1.23047-.147,3.04-.69288,4.1665,1.59522-3.29345,2.13282-6.80029,2.75879-10.37549a33.34764,33.34764,0,0,0,.70655-10.24755c.15088,1.16113-.5708,2.9873-.77637,4.15185C35.7609,162.31944,35.12223,163.98106,35.28678,165.24619Z"/><path d="M21.39615,164.63438c.23242,2.61718.40381,5.23877.49024,7.86523.05566,1.686.79785,5.27686-.54151,6.55859q3.34425-2.58032,6.688-5.16015a.95607.95607,0,0,1-1.08789-.03076c-.26465-.15186-3.04834,2.29834-3.36963,2.54638-.30713.23731-3.08691,2.74659-3.31836,2.61377,1.209.69385,3.16553-1.52246,4.0127-2.17383,1.2539-.96386,3.87549-2.292,4.31787-3.97949.48975-1.8667.03271-4.4165-.0415-6.32275-.0918-2.36279-.25245-4.72168-.46192-7.07715.03027.3418-3.00635,2.2666-3.37012,2.54688C24.29508,162.34483,21.34928,164.10947,21.39615,164.63438Z"/><path d="M19.57291,172.85166a11.83892,11.83892,0,0,1,.81445,5.36719q-.0432.54639-.13671,1.08642-.78882,3.79249,1.97558-5.20751c-.95068,2.35253-1.94433,5.83691-2.69238,7.688a79.76055,79.76055,0,0,0,3.29443-9.37646,12.2268,12.2268,0,0,0-.44092-7.52246l-.44043,1.15625c-.34277.93457-.6748,1.87353-1.00683,2.812-.33154.93848-.6626,1.87744-.98291,2.81982C19.87857,171.90635,19.49332,172.64121,19.57291,172.85166Z"/><path d="M13.97379,173.35947c.19141.46924.34375.92872.49853,1.41016q.51491,2.17675-.26513-2.46924-.375-4.69043-.40039-2.45459a17.269,17.269,0,0,1-.56641,2.92969,4.89309,4.89309,0,0,0,.12256,1.23193c.11182.98877.23291,1.977.35547,2.96534.12256.98779.24658,1.97558.37939,2.9624a4.32156,4.32156,0,0,1,.18213,1.22363,15.90046,15.90046,0,0,0,.2666-7.00293c-.35595-3.02832-.44629-6.32129-1.61181-9.17969a6.44672,6.44672,0,0,1,.12256,1.23145c.11181.98877.23291,1.97754.355,2.96533A17.48535,17.48535,0,0,0,13.97379,173.35947Z"/><path d="M5.28141,174.6207q.63427,2.88135,1.26855,5.76319l8.17383-2.13281a1.39713,1.39713,0,0,1-1.5625-.97315c-.12207-.32666-8.0957,2.34131-8.17383,2.13281a1.39665,1.39665,0,0,0,1.5625.97315c.79639-.07959,8.18848-2.06543,8.17383-2.13281q-.63427-2.88209-1.26855-5.76368C13.465,172.53281,5.2443,174.45127,5.28141,174.6207Z"/><path d="M-12.18539,206.76035Q-7.481,220.81919-2.179,234.66514l6.55517,5.3291q-3.553-7.39746-6.71435-14.97266c-.99756-2.39892-1.97363-4.80859-2.898-7.23632-.68652-1.8042-1.40332-3.79883-.18652-5.5293q-3.27759-2.66455-6.55518-5.32861c3.397,4.13818,5.84277,8.93505,8.43506,13.59228q4.01514,7.21216,8.03027,14.42481,3.27759,2.66454,6.55469,5.3291a88.37033,88.37033,0,0,1-10.89356-24.062q-3.27685-2.66454-6.55468-5.32861,6.19262,9.62916,12.38476,19.25928c.65869,1.0249,2.30811,1.93115,3.25049,2.69726.77246.62745,1.54541,1.25538,2.32568,1.87452.252.19922.82618.49218.97852.75683-2.33887-4.063-4.53271-8.20654-6.54883-12.43945q-1.42236-2.98682-2.73242-6.02637c-.72461-1.688-1.50635-3.37109-.85889-5.19922q-3.27759-2.66454-6.55517-5.32861,5.1687,8.072,10.33691,16.144,3.27759,2.66382,6.55518,5.32862c-3.75635-5.69043-7.47168-11.43848-9.61914-17.95948q-3.27759-2.66454-6.55518-5.32861a118.68211,118.68211,0,0,0,9.01856,15.72266c.70068,1.03076,2.28613,1.91308,3.25048,2.69677.77246.62793,1.54541,1.25537,2.3252,1.87452.2334.185.85791.50878.979.75732-2.65674-5.44727-5.32129-11.23145-4.3208-17.439q-3.22266-2.61254-6.44482-5.2246c2.12988,1.98681,4.249,3.94335,6.50732,5.78466,1.22412.99805,2.43555,2.12989,3.752,3.01221.918.61475,1.58593.79883,1.89843-.45361.48389-1.938,1.09424-3.21045,3.39649-3.4126a4.45937,4.45937,0,0,1,1.5.11914c2.80322.73633.86084,3.19434-3.60449-3.33936.7246,1.06006,1.50585,2.0337,2.16406,3.147.59765,1.01172,2.34179,1.95849,3.25049,2.69726.773.62793,1.54589,1.25537,2.32568,1.874.24316.19287.84131.5.97852.75732a59.36883,59.36883,0,0,0-5.13575-8.02051,19.39091,19.39091,0,0,0-3.25049-2.69726c-.77246-.62793-1.54541-1.25537-2.32568-1.874-.24756-.19677-.834-.49658-.97851-.75732a29.38349,29.38349,0,0,1,1.92285,4.14062c.11963.32618.84277,2.04541.69092,2.17774-.39161.34131-1.35792-.32715-1.62989-.50244q3.06006,2.47412,6.12061,4.94824c-3.14112-2.63184-6.11963-5.48975-9.16651-8.23-1.1455-1.03076-2.38037-1.97754-3.57666-2.94678-.70507-.57129-2.4956-1.46777-2.86816-2.27832a32.196,32.196,0,0,1,2.873,10.49414c.30859,3.3291-2.43067-.936,2.96093,4.20557-.80029-.76318-1.64746-1.4751-2.44043-2.248-1.38232-1.34619-2.68652-2.76367-3.94238-4.228a24.76526,24.76526,0,0,0-3.25049-2.69677c-.77246-.62793-1.54541-1.25537-2.32568-1.87451-.23145-.18409-.85986-.50977-.97852-.75684,1.895,3.938,4.147,8.2876,5.12012,12.57617q.12451.37939.24951.75928-.11718.20654-.23388.41211,1.72265,1.39746,3.44433,2.79541l-.977-.90674q-1.06934-1.02978-2.05908-2.13867a41.99941,41.99941,0,0,1-4.01514-5.3291c-.6582-1.02442-2.30908-1.93116-3.251-2.69678-.92383-.751-2.6753-1.61621-3.3042-2.63135A55.52278,55.52278,0,0,1-3.8724,213.0211q3.27759,2.6638,6.55517,5.32812-5.20678-6.73974-10.41357-13.48a19.94725,19.94725,0,0,0-3.251-2.69727c-.77246-.62793-1.54541-1.25537-2.32519-1.874-.231-.18359-.86133-.51123-.979-.75732a148.63108,148.63108,0,0,1,6.292,15.34716q3.27757,2.66456,6.55517,5.32862a63.97243,63.97243,0,0,1-9.40918-11.438c-.66113-1.0249-2.30713-1.93018-3.25049-2.69678-.77295-.62793-1.54589-1.25586-2.32568-1.87451-.19482-.15478-.9126-.5498-.97852-.75732a77.93388,77.93388,0,0,1,2.98145,13.25683q.48925.37866.979.75684-.46068-.364-.92041-.72949c.15235.1206-.96435-.77491-.97851-.75684-.01465.01758,1.09033.92773.94092.80322q2.29467,1.91016,4.63476,3.76807.4607.36474.92041.72949l.97852.75733A77.92366,77.92366,0,0,0-10.848,208.77842q-3.27759-2.66382-6.55469-5.32861a63.9312,63.9312,0,0,0,9.4087,11.438c1.00732.97022,2.1665,1.81543,3.251,2.69678.77246.62842,1.54541,1.25586,2.3252,1.87451.20117.15967.9043.54248.979.75733a148.74113,148.74113,0,0,0-6.292-15.34717q-3.27759-2.66455-6.55518-5.32861,5.20752,6.73974,10.41358,13.48047a19.98552,19.98552,0,0,0,3.251,2.69677c.77247.62793,1.54542,1.25537,2.3252,1.87451.20654.16358.89746.53663.979.75684a55.60018,55.60018,0,0,0-4.92285-10.08984q-3.27759-2.66382-6.55517-5.32813c4.314,6.71631,10.66406,11.85449,17.06982,16.49854l.124.08642A108.97913,108.97913,0,0,0,2.7858,205.419q-3.27759-2.6638-6.55469-5.32812c4.80762,5.60547,10.647,10.28906,16.52637,14.72217l.124.08642A32.83692,32.83692,0,0,0,9.88932,202.524q-3.22192-2.61181-6.44483-5.2246c3.76221,3.38378,7.45752,6.86132,11.3711,10.0708,1.189.97509,2.38086,1.94726,3.58545,2.90332.45459.36084,1.416,1.31884,2.04,1.28173.8794-.05175.47706-.3833.24415-1.11767-.1919-.605-.40235-1.2041-.63672-1.79443a29.8237,29.8237,0,0,0-1.65235-3.42823q-3.27759-2.66454-6.55468-5.32861a59.49382,59.49382,0,0,1,5.13574,8.02051q3.27759,2.66454,6.55469,5.32861a17.22852,17.22852,0,0,0-3.74659-4.606,64.58764,64.58764,0,0,0-6.36035-5.10888,4.59456,4.59456,0,0,0-4.94726-.27393,3.05461,3.05461,0,0,0-1.45264,2.02246c-.24268,1.0044.01465,2.22705-1.49609,1.59571q.23.17358.46093.34716,7.5879,6.405,4.42383,3.49121l-.81445-.76025q-.95068-.88623-1.90088-1.773c-1.12354-1.04785-2.38477-1.98047-3.57715-2.94678-.332-.269-2.91748-1.96875-2.86768-2.27783-1.00048,6.20654,1.66456,11.99268,4.32081,17.439q3.27685,2.66382,6.55468,5.32861A118.67886,118.67886,0,0,1,3.111,209.99033C2.65348,209.0294.68375,207.963-.14,207.29307c-.77246-.62793-1.54541-1.25537-2.3252-1.874-.19775-.15722-.90966-.54687-.979-.75732,2.14746,6.521,5.86328,12.26953,9.61914,17.95947.67871,1.02783,2.29834,1.92285,3.251,2.69727.93555.76074,2.65185,1.6123,3.3042,2.63135q-5.1687-8.072-10.33692-16.14405c-.65576-1.02441-2.31006-1.93261-3.251-2.69726-.28467-.231-3.37842-2.4209-3.3042-2.63135-.59815,1.69043.02734,3.24121.69677,4.81934.915,2.15673,1.88721,4.291,2.895,6.40673,2.01612,4.23243,4.21,8.376,6.54883,12.439q3.27686,2.66382,6.55469,5.32861Q6.34073,225.84092.14859,216.21152c-.65869-1.0249-2.3081-1.93115-3.25048-2.69726-.77246-.62793-1.54541-1.25537-2.32569-1.874-.187-.14844-.92285-.56006-.97851-.75733A88.3394,88.3394,0,0,0,4.48746,234.94444c.66455,1.02539,2.30567,1.92871,3.251,2.69726q1.15869.9419,2.32519,1.874c.24805.19727.8335.4961.97852.75782L3.01188,225.84776C.41959,221.191-2.02621,216.39414-5.42269,212.256c-.52295-.63721-6.61475-5.24365-6.55518-5.32861-1.13037,1.60791-.5835,3.436.03955,5.14648.93457,2.56689,1.99609,5.09668,3.04492,7.61914q3.15088,7.57764,6.71436,14.97217c.46289.96387,2.42383,2.02539,3.251,2.69726.77247.62793,1.54541,1.25586,2.3252,1.874.20947.167.89307.5332.979.75781Q-.92514,226.14927-5.6307,212.089c-.28858-.86231-2.54346-2.12207-3.25049-2.69727-.77246-.62793-1.54541-1.25537-2.32568-1.874C-11.4056,207.36-12.11459,206.97178-12.18539,206.76035Z"/><path d="M1.53092,238.79209a114.76241,114.76241,0,0,0,9.019,15.043c-.03906-.05566,2.72608-2.78711,2.95117-3.02148.38086-.39844,3.00684-2.54,2.89014-3.08106a12.516,12.516,0,0,0-1.36572-3.60351c.06689.11816-2.71192,2.77148-2.95117,3.02246-.25782.26855-3.0293,2.833-2.89014,3.08007A12.49519,12.49519,0,0,1,10.55,253.83506q2.9209-3.05127,5.84131-6.10254a114.682,114.682,0,0,1-9.019-15.04346,37.90649,37.90649,0,0,1-2.95117,3.022C4.14908,235.99522,1.3859,238.50205,1.53092,238.79209Z"/><path d="M3.24723,224.20518Q9.55631,234.462,15.86588,244.71885c.21728.35351,3.74414-.02149,4.22363-.0293.46631-.00781,4.01465-.45215,4.22266-.11328q-6.30981-10.25683-12.61865-20.51416c-.21778-.35351-3.74463.02149-4.22412.0293C7.00357,224.09922,3.45524,224.54307,3.24723,224.20518Z"/><path d="M23.59684,261.00108q2.52978,5.59424,5.06006,11.18945-1.41943-3.97851-2.83887-7.95606Q22.331,257.07725,18.8444,249.919c1.2207,2.50586,1.666,5.41309,2.83886,7.95606q.53981,1.17041,1.08008,2.34082c-1.14551-2.48242-1.75488-5.27246-2.77783-7.81738q.843,2.36279,1.68652,4.72461-.26146-.86572-.45508-1.74707c-.1455-.63575-.272-1.27539-.375-1.91993a32.93724,32.93724,0,0,1-.36474-3.89355c-.0503-1.2334-.96582-2.833-1.3794-3.99219-.41162-1.15234-1.40966-2.73828-1.45947-3.96387.26123,6.42383,2.69043,12.56641,5.06348,18.47168q-1.38867-3.90819-2.77735-7.81836-.53979-1.17041-1.08007-2.34082,1.41942,3.97853,2.83886,7.95606,3.48706,7.15722,6.97364,14.31543c-1.21973-2.50391-1.686-5.40625-2.83887-7.95606Q23.28824,258.64023,20.758,253.045C21.91129,255.5958,22.43863,258.44053,23.59684,261.00108Z"/><path d="M18.78629,248.88291c2.63428,3.44141,5.33594,7.24121,4.8042,11.79492q3.33105,2.47119,6.6626,4.94434A57.01477,57.01477,0,0,1,15.342,246.68076q-3.38819-2.52246-6.77685-5.04394A57.71858,57.71858,0,0,1,16.359,256.05088q3.38819,2.52246,6.77637,5.04395a149.55393,149.55393,0,0,1-11.26953-17.1836c-.53613-.95508-2.48731-1.90332-3.36328-2.55566-.79834-.59375-1.59766-1.18848-2.40332-1.77344-.22705-.16406-.89942-.4834-1.01026-.71387q4.45313,9.28712,8.15674,18.90039,1.2561.90967,2.51221,1.81836c.35156.26075,3.85986,3.28614,2.021,1.2168a13.20176,13.20176,0,0,1-1.03467-1.31738,14.39564,14.39564,0,0,1-1.519-2.97949c-.32763-.85157-2.62988-2.00977-3.36328-2.55567-.79882-.59473-1.59765-1.18848-2.40332-1.77344-.20556-.14941-.92968-.50586-1.01025-.71484,1.71435,4.44922,5.375,6.79785,9.0625,9.53027.51807.38379,2.271,1.19434,2.51172,1.81836q-3.70312-9.61083-8.15674-18.90039-3.38819-2.521-6.77686-5.043a149.39611,149.39611,0,0,0,11.27,17.18262c.75928,1.001,2.35791,1.80762,3.3628,2.55566.79882.59473,1.59814,1.18848,2.40332,1.77344.20263.14649.93457.50977,1.01025.71485A57.651,57.651,0,0,0,15.342,246.68076c-.74072-1-2.36816-1.81543-3.36328-2.55566-.79834-.59473-1.59765-1.18848-2.40332-1.77344-.22949-.166-.896-.48144-1.01025-.71484a57.61282,57.61282,0,0,0,15.13965,19.13965c1.18847.98144,2.46289,1.874,3.6997,2.791.34375.25488,2.999,1.8418,2.96289,2.15332.53125-4.55176-2.17138-8.35449-4.80419-11.79492-.76612-1.001-2.355-1.80566-3.36329-2.55566C21.19889,250.6251,19.54606,249.87608,18.78629,248.88291Z"/><path d="M3.79166,252.91709a59.42072,59.42072,0,0,1,4.43066,10.76367q2.72462-3.227,5.44874-6.45507Q7.07267,247.75108.94254,237.96494c.07764.125-2.53076,2.93262-2.75684,3.20117-.29052.34375-2.86181,2.87305-2.69238,3.25391q2.79713,6.27539,5.59326,12.54981,2.72388-3.22706,5.44873-6.45508a23.16469,23.16469,0,0,1-3.2124-6.02246c.10352.28906-2.47607,2.86816-2.75684,3.20019-.32177.38184-2.85595,2.79688-2.69189,3.25488a23.1481,23.1481,0,0,0,3.2124,6.02247c-.05713-.07715,2.542-2.94629,2.75684-3.2002.29-.34375,2.86182-2.874,2.69189-3.25488q-2.79637-6.2754-5.59277-12.54981-2.72461,3.22852-5.44922,6.45508,6.12965,9.78516,12.729,19.26074c-.06494-.09375,2.53858-2.9414,2.75684-3.20019.3457-.41016,2.84668-2.74219,2.6919-3.25488A59.38613,59.38613,0,0,0,9.24039,246.462a33.16215,33.16215,0,0,1-2.75683,3.2002C6.21842,249.97666,3.62467,252.60166,3.79166,252.91709Z"/><path d="M22.38639,224.92832q3.37866,7.8003,6.75732,15.6001,4.177-.62548,8.35449-1.252a93.48222,93.48222,0,0,1-9.8999-19.08106c-.2041-.53613-8.23535,1.65088-8.354,1.25195q1.26929,4.2649,2.53906,8.52979c.62939,2.11572,2.02734,4.87061.898,7.00928q4.177-.62549,8.354-1.252a140.4686,140.4686,0,0,1-8.644-11.07421c-.20654-.29346-3.748.519-4.18359.584a38.09949,38.09949,0,0,1-4.1709.668q3.86207,8.6184,7.72461,17.2373c.09033.20215,3.82519-.53125,4.1831-.585a38.11807,38.11807,0,0,1,4.1709-.668q-3.86207-8.61767-7.72412-17.23632-4.17774.62548-8.35449,1.25195,4.04589,5.75391,8.64453,11.07422c.2876.333,3.69092-.50977,4.18359-.584.57569-.08593,3.89405-.14355,4.17041-.668,1.12989-2.13964-.26757-4.8916-.89795-7.00927q-1.26928-4.26489-2.53906-8.52979-4.177.62548-8.354,1.25195a93.479,93.479,0,0,0,9.89941,19.08106c.19238.28516,3.75733-.52051,4.1836-.584a40.16092,40.16092,0,0,1,4.17089-.668q-3.3794-7.8003-6.75781-15.60059c-.085-.19531-3.8291.53174-4.18359.58447A40.48069,40.48069,0,0,1,22.38639,224.92832Z"/><path d="M32.007,194.27061q4.27515,13.44139,8.5503,26.88232c.3789,1.19141,1.63574,2.48828,2.335,3.51953.69482,1.02539,2.02881,2.29,2.40478,3.47266q-4.27441-13.44141-8.55029-26.88233c-.37842-1.19091-1.63574-2.48828-2.335-3.51953C33.717,196.71836,32.383,195.45322,32.007,194.27061Z"/><path d="M24.6066,193.57725q3.471,10.13745,6.82031,20.31543c1.07374,3.26513,1.85108,6.854,3.25147,9.98926a3.946,3.946,0,0,0,3.187,3.02343q4.41064,3.75147,2.53076,1.793c-.33447-.49853-.70849-.95312-1.00146-1.48144a21.13189,21.13189,0,0,1-1.5625-4.01026c-.22852-.73437-2.84082-1.94678-3.48926-2.37988-.82812-.55274-1.65674-1.10449-2.49121-1.64746-.18408-.12012-.99219-.49024-1.04541-.66211.72119,2.31641,1.53076,4.75488,3.45605,6.36084a58.01322,58.01322,0,0,0,7.8252,5.21924l.13184.07422q-5.14234-16.002-10.58643-31.90479c-.25977-.75928-2.81592-1.93018-3.48975-2.37988-.82812-.55274-1.65673-1.105-2.49121-1.648C25.46158,194.11485,24.66813,193.75742,24.6066,193.57725Z"/><path d="M20.50113,199.54111Q27.9733,218.67124,35.445,237.80186q2.521-3.38966,5.042-6.77784c-3.19775-2.1665-4.56445-5.88623-6.0625-9.28564q-2.58691-5.87109-4.9956-11.81885c-3.27979-8.05224-6.37354-16.17871-9.46631-24.30371q-2.521,3.38818-5.042,6.77735,7.51024,17.71507,15.0205,35.42968l5.042-6.77783q-.57568-.86352-1.15088-1.72656a37.95235,37.95235,0,0,1-2.55469,3.36377c-.23486.31543-2.667,3.14453-2.4873,3.41406q.57569.86352,1.15087,1.72656a37.98923,37.98923,0,0,1,2.55518-3.36377c.29932-.40283,2.67822-2.9624,2.48682-3.41406q-7.51026-17.71509-15.02051-35.4292c.12158.28613-2.29346,3.01221-2.55469,3.36328-.31592.42481-2.67431,2.92285-2.4873,3.41407,3.09326,8.12548,6.18652,16.25195,9.46631,24.30419q2.41992,5.94215,4.9956,11.81885c1.498,3.39942,2.86524,7.11963,6.0625,9.28565-.18164-.12305,5.26563-6.20508,5.042-6.77784q-7.47216-19.13011-14.94384-38.26074c.12158.31153-2.28467,3-2.55469,3.36377C22.67643,196.546,20.31266,199.05869,20.50113,199.54111Z"/><path d="M25.48941,192.8292q3.47169,9.5874,6.94336,19.17529.85035,2.34814,1.7002,4.6958c.18018.49707.729,2.64356,1.43018,1.52393.16894-.27-.148-1.25-.19-1.57812q-.20068-1.54761-.41894-3.09229a26.11848,26.11848,0,0,0-.61279-3.85986c.79638,2.65478.35253,5.69531,1.15527,8.36816l.0708.23779q-.57716-4.18433-1.15527-8.36816c-.8711,1.10254-2.22217-3.77441-2.42627-4.33887q-1.27515-3.52148-2.55078-7.04394-2.5503-7.0437-5.10108-14.08789C25.26676,187.03721,24.548,190.22861,25.48941,192.8292Z"/><path d="M31.38492,186.73985a155.1122,155.1122,0,0,1,9.35352,28.53466q3.39477-2.51367,6.78906-5.02685-.60278-.9624-1.20557-1.92334c.08252.13183-6.939,4.7876-6.78906,5.02637q.60279.96167,1.20557,1.92382c-.22315-.35644,6.93994-4.353,6.78906-5.02685A155.15,155.15,0,0,0,38.174,181.713C38.40055,182.22959,31.10856,186.11094,31.38492,186.73985Z"/><path d="M41.92447,184.09776a270.3113,270.3113,0,0,0,13.668,34.39648l.0708.1333q-.282-1.23779-.564-2.47656c-.61572-2.707-2.77832-5.05469-3.38867-7.73828.07763.34131.83691,2.41894.12207,1.50732q-.99171-2.19286.34082.81641-.19044-.45264-.38086-.90479-1.26123-3.02563-2.4126-6.09521-2.21923-5.88648-4.06689-11.90088C44.484,189.15733,42.74869,186.76231,41.92447,184.09776Z"/><path d="M44.13541,188.60117A281.37072,281.37072,0,0,1,57.89762,221.3961c-.09619-.27735,2.55615-2.80762,2.83984-3.12647.32422-.36426,2.93164-2.73779,2.77686-3.18311A281.33581,281.33581,0,0,0,49.75211,182.2916a32.90665,32.90665,0,0,1-2.83984,3.12647C46.63785,185.72666,43.97623,188.28086,44.13541,188.60117Z"/><path d="M48.2902,193.37412A124.46523,124.46523,0,0,1,56.70572,224.608c.06983.52344,3.1333,1.8833,3.62354,2.17041.48389.2832,3.59619,1.57666,3.666,2.09766a124.46984,124.46984,0,0,0-8.415-31.23389c-.31006-.74609-2.91993-1.7583-3.62354-2.17041-.85938-.50293-1.71924-1.00537-2.584-1.49854C49.174,193.86,48.36393,193.55137,48.2902,193.37412Z"/><path d="M125.35025,278.63486a45.58127,45.58127,0,0,1,4.39551,8.95411c-.1167-.32227-.03711-.71875-.15478-1.04395a45.64621,45.64621,0,0,0-4.396-8.95508C125.36539,277.8585,125.17594,278.36045,125.35025,278.63486Z"/><path d="M123.67154,280.20127q2.66748,5.08008,4.84912,10.38086l.96631-.4248q-2.18334-5.30566-4.84912-10.38086Z"/><path d="M124.20621,282.66611a73.86214,73.86214,0,0,1,3.16358,6.71094q.301.43359.603.86719-.33984-.7705-.6792-1.541c-.13964-.31738-.46435-.55175-.60254-.86621q.33912.77052.67872,1.54c.13916.31641.47265.55078.603.86719a73.73846,73.73846,0,0,0-3.16406-6.71094C124.64371,283.22471,124.37027,282.97373,124.20621,282.66611Z"/><path d="M123.17887,282.74717q.95653,1.63916,1.91308,3.27734c.42139.72168,1.09717,2.59864,1.81983,2.87891.09326.03613.72363-.55664.81689-.63867l.145-.127.01367-.01269q-.03808-.25635-.28222-.16992c-.28223,0-.5586.64941-.83155.65039.23438-.06446.28467.03125.15186.28515l.81738-.63867c-.66943-.25976-1.43408-2.21777-1.81982-2.8789q-.95655-1.63917-1.91309-3.27735Z"/><path d="M124.95963,281.3419q1.47729,2.69091,2.95459,5.37988.45777.2622.91553.52637a23.98565,23.98565,0,0,1-2.93848-6.47852q-.45777-.26367-.91553-.52637a50.49026,50.49026,0,0,1,4.40528,8.64356q.45775.26367.91552.52637a37.37088,37.37088,0,0,1-5.03906-10.06153l-.91553-.52734a33.339,33.339,0,0,1,4.26026,8.79q.45775.26367.915.52636a63.04132,63.04132,0,0,1-4.73487-7.0625c-.13232-.22851-.84716-.29-.91552-.52636q.61377,2.12109,1.227,4.24218c.33008,1.14258.97216,2.40723.51367,3.56641q.45776.26367.915.52637-1.0503-1.91309-2.10205-3.82617c-.14209-.25879-.79785-.26758-.915-.52637a4.54231,4.54231,0,0,1,.10449,3.81348q.45849.2622.91553.52636a8.313,8.313,0,0,1-1.46192-3.30566q-.45776-.26367-.91552-.52637a1.909,1.909,0,0,1,.78369,1.99707q.45776.26367.915.52735a7.58122,7.58122,0,0,1-.87842-5.76954q-.45777-.26367-.91553-.52636a10.24192,10.24192,0,0,1,.97461,6.0664q.457.26367.91553.52637a10.78032,10.78032,0,0,1-1.15723-6.78125q-.45775-.26367-.91553-.52637a28.09387,28.09387,0,0,1,3.40284,8.00293q.45776.26367.915.52637c-1.95069-2.17285-2.12354-4.95312-1.543-7.709q-.45777-.26369-.915-.52637a18.86782,18.86782,0,0,1,2.16113,8.793q.45777.26367.91553.52636a15.5005,15.5005,0,0,1-.02979-6.5039q-.45849-.26222-.91552-.52637a11.43775,11.43775,0,0,1,1.00439,6.1875q.45777.26221.915.52637a8.09182,8.09182,0,0,1-2.39258-5.54785q-.45777-.26367-.91553-.52637a22.81845,22.81845,0,0,1,2.35791,5.33984q.45851.26367.91553.52637a7.79066,7.79066,0,0,1-2.73-4.60449q-.45777-.26367-.915-.52735a15.95543,15.95543,0,0,1,2.48682,5.31348q.45776.26367.91552.52637-.33763-.50684-.6748-1.01367c-.17627-.26563-.74268-.26758-.91553-.52637q.33765.50684.67481,1.01367c.13965.209.85693.30371.91552.52637a15.94248,15.94248,0,0,0-2.4873-5.3125c-.13477-.18945-.87353-.32422-.915-.52735a7.78941,7.78941,0,0,0,2.72949,4.60547c.16358.13868.86182.34571.91553.52637a22.83918,22.83918,0,0,0-2.35791-5.33984c-.10205-.169-.90869-.36133-.91553-.52637a8.09441,8.09441,0,0,0,2.39307,5.54785c.09863.10059.9248.43652.915.52637a11.43913,11.43913,0,0,0-1.00391-6.1875c-.063-.13574-.93652-.42383-.91552-.52637a15.51625,15.51625,0,0,0,.02978,6.50391c.043.20019.91455.34472.91553.52636a18.86549,18.86549,0,0,0-2.16162-8.793c-.0669-.12989-.93555-.42969-.915-.52637-.58057,2.7539-.40869,5.53515,1.543,7.709.15234.16992.86523.3291.915.52637a28.09264,28.09264,0,0,0-3.40235-8.00293c-.08056-.12988-.93115-.41992-.91553-.52637a10.78262,10.78262,0,0,0,1.15723,6.78125c.07471.14258.93115.40918.91553.52637a10.246,10.246,0,0,0-.97461-6.06641c-.063-.1289-.937-.43261-.91553-.52636a7.57671,7.57671,0,0,0,.87891,5.76855c.08056.1377.92969.41211.915.52735a1.90876,1.90876,0,0,0-.78321-1.998c-.148-.124-.88183-.36719-.91552-.52637a8.33392,8.33392,0,0,0,1.46191,3.30567c.06738.09277.93213.48339.91553.52636a4.54371,4.54371,0,0,0-.105-3.81347q-.457-.26369-.915-.52637l2.10205,3.82617c.05664.10254.93506.47559.915.52637.457-1.15528-.18457-2.43067-.51319-3.56641q-.61377-2.12109-1.227-4.24219-.45776-.26367-.91552-.52636a63.13465,63.13465,0,0,0,4.73535,7.0625c.15625.20215.84424.30175.915.52636a33.31762,33.31762,0,0,0-4.25977-8.78906c-.1499-.2207-.83887-.291-.91553-.52734a37.36223,37.36223,0,0,0,5.03907,10.0625c.16162.22949.81836.28125.91552.52637a50.52475,50.52475,0,0,0-4.40527-8.64356c-.13965-.21875-.84912-.29492-.91553-.52637a23.98859,23.98859,0,0,0,2.93848,6.47852c.167.25879.77148.26465.91553.52637q-1.4773-2.68946-2.95459-5.37891C125.72818,281.60264,125.10221,281.60264,124.95963,281.3419Z"/><path d="M124.88883,287.24619q.64233,1.18066,1.28271,2.36133c.04737-.34863.09375-.69824.14112-1.04687q-1.37988-1.76369-2.75879-3.52832c.12793.16406-.18946.82324-.14063,1.04687a6.89594,6.89594,0,0,0,.749,1.98145q.0703-.523.14062-1.04688a9.36771,9.36771,0,0,0-1.458-1.91113c.15039.15332-.26855.85156-.14062,1.04687q1.02393,1.56592,2.04687,3.13282.07032-.523.14063-1.0459a12.81767,12.81767,0,0,1-1.96777-2.92774q-.07032.523-.14063,1.04688.99829,1.86034,1.99609,3.7207c-.1333-.25.26368-.78027.14063-1.04687q-.4043-.87744-.80811-1.75293-.07031.52294-.14062,1.04687a9.81061,9.81061,0,0,0,1.93164,2.42383c-.13379-.12207.2207-.85449.14062-1.0459q-.35448-.84668-.709-1.69238-.06959.52294-.14014,1.0459,1.14551.6826,2.291,1.36425c-.11621-.06933.26758-.96484.14062-1.04589q-.37061-.24024-.7417-.47852-.06957.52295-.14062,1.04688a11.874,11.874,0,0,0,3.33594.89843q.07031-.52442.14062-1.04687l-3.21484-.01465-.14063,1.04687q1.51245.249,3.02539.49707l.14063-1.04589a6.22289,6.22289,0,0,1-4.73877-2.60254q-.07032.52294-.14014,1.04687a2.71466,2.71466,0,0,1,1.20459,1.47364q.07106-.523.14112-1.04688a13.85255,13.85255,0,0,1-2.59668-1.47363q-.07032.52294-.14063,1.04687a17.13545,17.13545,0,0,0,6.18994-.20605l.14063-1.0459c-.75147.209-1.36573-1.08106-1.73975-1.56738q-1.06713-1.39307-2.13525-2.78614c.15039.19629-.26709.81739-.14063,1.04688q1.55714,2.81835,3.11328,5.63574.07032-.52442.14063-1.04687a13.76261,13.76261,0,0,1-2.9961-4.43653q-.071.523-.14111,1.0459a15.81479,15.81479,0,0,1,2.77881,3.80762q.07032-.52294.14063-1.04688c-1.14258-1.62988-3.35645.21875-4.729-1.02539.13379.1211-.22168.85645-.14062,1.04688a12.35421,12.35421,0,0,1,.74755,1.92187q.07032-.52294.14063-1.04687c-.53467,1.10742-1.30859-.18262-1.46338-.7627q-.07031.52294-.14062,1.04688a2.02129,2.02129,0,0,1,1.31787.88281q.07031-.52294.14062-1.04688a4.10286,4.10286,0,0,1-1.35937-1.22851q-.07032.52294-.14014,1.0459a5.52211,5.52211,0,0,1,3.22559,1.73047c-.105-.11133.15527-.86621.14062-1.04688a3.67537,3.67537,0,0,0-.59424-1.79785c.14112.22559-.28662.81348-.14062,1.04687a3.66236,3.66236,0,0,1,.59424,1.79786q.071-.523.14062-1.04688a5.5124,5.5124,0,0,0-3.22607-1.72949l-.14014,1.0459a4.09955,4.09955,0,0,0,1.35889,1.22949c-.11719-.06738.23877-.91113.14062-1.04688a2.02479,2.02479,0,0,0-1.31787-.88281c.03076.00781-.1665.94922-.14062,1.04688.273,1.02343,1.166,1.6289,1.51123.4414.2749-.94433-.293-1.80273-.65479-2.64746q-.06959.523-.14062,1.04688c1.37451,1.24511,3.58447-.60742,4.729,1.02539-.14746-.21.26611-.80664.14063-1.04688a15.822,15.822,0,0,0-2.77833-3.80664c.13916.14063-.22753.8418-.14111,1.0459a13.78638,13.78638,0,0,0,2.99658,4.4375c-.147-.14648.25147-.84668.14063-1.04687q-1.5564-2.81837-3.11328-5.63575-.06959.52442-.14063,1.04688,1.06788,1.39306,2.13574,2.78515c.39893.52051.97364,1.78028,1.73926,1.56739.13184-.03614.02442-1.02149.14063-1.0459a17.17906,17.17906,0,0,1-6.18994.20508l-.14063,1.04687a13.95894,13.95894,0,0,0,2.59619,1.47364c-.07178-.03125.187-.92774.14112-1.04688a2.7219,2.7219,0,0,0-1.20557-1.47363c.126.08008-.24609.90234-.14014,1.04687a6.22142,6.22142,0,0,0,4.73828,2.60156l.14063-1.04589q-1.51245-.249-3.02539-.49805-.07032.52295-.14063,1.04687,1.60767.00587,3.21485.01465l.14062-1.04687a11.87808,11.87808,0,0,1-3.33594-.89844c.09522.041-.24707.97754-.14062,1.04688q.37134.23877.7417.47753l.14062-1.04589q-1.14624-.68262-2.2915-1.36426c.09961.05859-.2002.90332-.14014,1.0459q.35376.84667.7085,1.69238.06959-.52294.14062-1.0459a9.81387,9.81387,0,0,1-1.93164-2.4248c.1377.24121-.26172.78418-.14062,1.04687q.4043.876.8081,1.75293.07032-.52442.14063-1.04687-.99829-1.86036-1.99609-3.72071c.1333.248-.26954.78418-.14063,1.04688a12.81189,12.81189,0,0,0,1.96777,2.92676c-.15185-.1709.27491-.84082.14063-1.0459q-1.0232-1.56738-2.04688-3.13379-.07031.52294-.14062,1.04687a9.325,9.325,0,0,1,1.458,1.91114c-.1377-.23731.2788-.79786.14062-1.04688a6.88168,6.88168,0,0,1-.749-1.98144q-.07106.52295-.14063,1.04687,1.37916,1.76367,2.7583,3.52832c-.1499-.19141.26514-.81836.14112-1.04687q-.64161-1.18066-1.28272-2.36036C125.16275,286.44541,124.75113,286.99326,124.88883,287.24619Z"/><path d="M121.68375,190.61582a29.10971,29.10971,0,0,1,8.75781,9.04688,24.26739,24.26739,0,0,1,2.3169,5.03613,28.38044,28.38044,0,0,1,1.30224,7.95312c.14161,4.11231-.32568,8.50391-.64306,13.44239a87.31238,87.31238,0,0,0,.29345,16.71533,32.46965,32.46965,0,0,1,.292,3.36133,21.36729,21.36729,0,0,1-.42237,4.833,19.23564,19.23564,0,0,1-1.97021,5.373c-.86426,1.66309-1.94043,3.45606-3.15625,6.06739-.29541.63476-.481,1.06445-.6416,1.49414-.24121.64843-.415,1.25976-.84034,2.58886-.4248,1.3291-1.102,3.38282-2.34082,6.89453-1.59521,4.52149-2.65136,7.293-3.40283,9.05274a18.40448,18.40448,0,0,1-1.26416,2.56152,7.11118,7.11118,0,0,1-.63916.86035,11.3047,11.3047,0,0,0-1.24072,1.708,40.42521,40.42521,0,0,0-2.16553,4.38672,6.58684,6.58684,0,0,1-.63916,1.18066,3.52192,3.52192,0,0,1-1.313,1.16211,2.87717,2.87717,0,0,1-.38037.1543,3.66438,3.66438,0,0,1-1.69824.09473c-.59131-.08594-1.20264-.2627-1.82275-.40723a11.68422,11.68422,0,0,0-3.29151-.32324,28.474,28.474,0,0,0-3.98242.6709,18.27884,18.27884,0,0,1-5.20264.25683,26.69348,26.69348,0,0,1-5.91357-1.23535c-4.82959-1.4248-15.41455-3.834-39.24219-8.2041l-.22851,1.24609c23.80664,4.36524,34.38427,6.77637,39.1123,8.17285a27.846,27.846,0,0,0,6.167,1.28321,20.91288,20.91288,0,0,0,6.88526-.54981,15.47748,15.47748,0,0,1,2.46875-.375,10.40843,10.40843,0,0,1,2.94189.292c.57129.13085,1.21924.32226,1.9253.42578a4.92332,4.92332,0,0,0,2.27441-.14258,4.20392,4.20392,0,0,0,.54541-.22168,4.78726,4.78726,0,0,0,1.79-1.56934,7.767,7.767,0,0,0,.76367-1.40039,33.39487,33.39487,0,0,1,2.34424-4.64844,11.15456,11.15456,0,0,1,.94775-1.23144,8.147,8.147,0,0,0,.75781-1.05957c.8379-1.39453,1.99561-4.06543,4.69776-11.71973,1.65576-4.69238,2.31738-6.80859,2.70849-8.05371.19483-.623.32032-1.01953.46485-1.40722.145-.3877.314-.78028.60351-1.40333,1.188-2.55175,2.23975-4.30371,3.13135-6.01757a20.49943,20.49943,0,0,0,2.0874-5.70313,22.582,22.582,0,0,0,.44776-5.11816,33.65669,33.65669,0,0,0-.30078-3.48438c-1.01172-8.24414-.39453-15.08008.05175-21.23584a83.47906,83.47906,0,0,0,.30616-8.811,29.65664,29.65664,0,0,0-1.36377-8.30323,25.58592,25.58592,0,0,0-2.436-5.29687,30.39149,30.39149,0,0,0-9.12842-9.439Z"/><path class="v" d="M19.68522,180.30186c3.32519,0,6.64941-.87989,9.96142-.87989C26.32145,179.422,22.99723,180.30186,19.68522,180.30186Z"/><path class="v" d="M25.007,166.84483a141.24465,141.24465,0,0,0,3.53028,25.45312c.20507.88037,3.20312,2.5332,3.9292,3.09277.729.562,3.78222,2.11866,3.99023,3.01319a141.26406,141.26406,0,0,1-3.53076-25.45313C32.82193,170.74131,25.10563,168.94053,25.007,166.84483Z"/><path class="v" d="M26.24283,162.359a123.46336,123.46336,0,0,0,5.32373,35.52587c.80518,2.6587,7.061,3.62891,7.84131,6.20557a123.48545,123.48545,0,0,1-5.32373-35.52588C34.07682,166.43076,26.24967,164.37559,26.24283,162.359Z"/><path class="v" d="M28.97672,153.27354a128.46865,128.46865,0,0,0,3.47314,25.45507c.51123,2.13135,8.4751,2.42334,8.959,4.44288a128.5,128.5,0,0,1-3.47315-25.45557C37.87662,156.06651,29.03092,154.7916,28.97672,153.27354Z"/><path class="v" d="M29.5651,161.776a60.78984,60.78984,0,0,0,8.501,27.88525c-.65185-1.09912,6.53077-6.92334,5.8086-8.14013a60.78254,60.78254,0,0,1-8.50049-27.88526c.04492.80274-2.4458,3.34082-2.94531,4.041C31.85074,158.4874,29.507,160.74326,29.5651,161.776Z"/><path class="v" d="M32.44254,159.44053q2.27856,9.40063,4.55664,18.80078c-.25439-1.04834,8.59961-4.374,8.3125-5.55908q-2.27783-9.3999-4.55615-18.80029C41.00943,154.93027,32.15543,158.256,32.44254,159.44053Z"/><path class="v" d="M35.66568,156.171a46.71229,46.71229,0,0,0,8.625,21.12793c.5503.75293,8.86036-4.24756,9.3252-3.61133a46.71826,46.71826,0,0,1-8.62549-21.12793C45.08707,153.22569,35.548,155.36045,35.66568,156.171Z"/><path class="v" d="M38.85758,148.75889a21.68174,21.68174,0,0,0,6.38281,12.59082c1.458,1.43994,2.98438,2.814,4.49317,4.20019.73046.67139,1.439,1.38819,2.21,2.01123.06836.05518.74023.65332.39648.314a21.27486,21.27486,0,0,1-6.13867-12.32861c-.126-.895-2.96484-2.80811-3.63818-3.43067-.86524-.7998-1.73145-1.59912-2.60645-2.38867C39.76481,149.55381,38.88688,148.96836,38.85758,148.75889Z"/><path class="v" d="M40.71647,147.86875a41.56983,41.56983,0,0,0,10.00488,17.72559c2.28174,2.4082,5.40283,4.01709,7.67285,6.4126a41.56936,41.56936,0,0,1-10.00439-17.7251c-.27051-.981-3.01954-2.58887-3.80469-3.24512C43.79606,150.37705,40.99137,148.86485,40.71647,147.86875Z"/><path class="v" d="M50.31705,154.84238a56.3079,56.3079,0,0,0,6.29883,20.09424c-.36621-.687.89209-4.06543,1.06152-4.88623.19727-.95166,1.43946-4.01465.96387-4.90674A56.31233,56.31233,0,0,1,52.342,145.04942C52.71061,148.16514,49.94254,151.67979,50.31705,154.84238Z"/><path class="v" d="M53.45963,161.45469a16.95664,16.95664,0,0,0,6.47559,13.394c-.21436-.1709,1.14306-4.3916,1.25488-4.84033.125-.50244,1.52637-4.57031,1.15771-4.86426a16.95779,16.95779,0,0,1-6.47607-13.394c.00439,1.46777-.898,3.40576-1.2544,4.84033C54.24283,158.0958,53.45475,159.89024,53.45963,161.45469Z"/><path class="v" d="M55.54459,161.40049a27.983,27.983,0,0,0,11.86084,21.32812c-.84375-.60009,3.72217-8.92871,2.76318-9.61084a27.98139,27.98139,0,0,1-11.86084-21.32763C58.50113,154.89756,55.34781,158.24277,55.54459,161.40049Z"/><path class="v" d="M59.37711,160.00791a36.92539,36.92539,0,0,0,10.5874,17.772c.124.11622,7.03125-7.10986,7.0459-7.09619a36.92611,36.92611,0,0,1-10.5874-17.772c.09375.35791-3.19238,3.14453-3.5586,3.51318C62.44449,156.84776,59.22916,159.444,59.37711,160.00791Z"/><path class="v" d="M67.18375,158.21348A49.30591,49.30591,0,0,0,79.071,173.984c-.49121-.43506-.21338-4.26075-.25879-4.99366-.05274-.856.30859-4.397-.35791-4.9873a49.30954,49.30954,0,0,1-11.88721-15.77051c.544,1.13867.1792,3.71436.2583,4.99365C66.91129,154.61777,66.571,156.93174,67.18375,158.21348Z"/><path class="v" d="M68.60416,151.61289a29.88389,29.88389,0,0,0,6.62061,17.60694c.48242.603,4.17089.51464,4.96386.60253.792.08838,4.48633-.10693,4.9751.50342a29.88334,29.88334,0,0,1-6.62109-17.60742C78.51676,152.13242,68.62369,152.05137,68.60416,151.61289Z"/><path class="v" d="M71.9401,155.27305q5.8125,7.95849,11.625,15.9165c-.13965-.1914,2.439-3.8501,2.67187-4.22656.25782-.417,2.83838-3.93457,2.58643-4.2793q-5.8125-7.95849-11.625-15.9165c.13965.19141-2.439,3.8501-2.67188,4.22656C74.26871,151.41074,71.68815,154.92832,71.9401,155.27305Z"/><path class="v" d="M23.44449,160.95908a198.95485,198.95485,0,0,0-1.04394,28.80176c-.04541-1.25244,9.082-2.90332,9.03174-4.293a198.95233,198.95233,0,0,1,1.04394-28.80176C32.29361,158.34141,23.64127,159.15684,23.44449,160.95908Z"/><path class="v" d="M20.17057,165.193a38.04377,38.04377,0,0,0,1.27929,20.62891c-.32714-.92823.90821-3.87354,1.12891-4.87159.25049-1.13134,1.4292-3.76367,1.03125-4.89257a36.03945,36.03945,0,0,1-1.5249-19.28467c.375-1.86182-.41553,1.56836-.4541,1.73681C21.1232,160.732,20.62027,162.95811,20.17057,165.193Z"/><path class="v" d="M16.51432,146.04551a134.45335,134.45335,0,0,0,3.18164,48.687c-.82324-3.13525.37842-6.82373-.45313-9.98926a131.85954,131.85954,0,0,1-3.0039-16.25879q-.31348-3.87963-.04395.353-.01611-2.6997.12012-5.39648c.124-2.478.36523-4.9419.65234-7.40576C17.34977,152.75742,16.13443,149.29942,16.51432,146.04551Z"/><path class="v" d="M9.38932,159.23936a73.44813,73.44813,0,0,0,6.82763,28.772c1.23243,2.65967,6.9419,3.21143,8.14356,5.80371a73.44966,73.44966,0,0,1-6.82764-28.772C17.46647,162.96641,9.45231,161.19736,9.38932,159.23936Z"/><path class="v" d="M8.96451,167.06065a93.92606,93.92606,0,0,0,8.32276,27.83154c.78808,1.65283,9.20068-.3916,9.93408,1.147a93.92606,93.92606,0,0,1-8.32276-27.83154C18.776,167.316,9.06705,167.8082,8.96451,167.06065Z"/><path class="v" d="M11.82926,167.0792a103.48209,103.48209,0,0,0,5.53027,30.98242c-.94189-2.76367,2.48194-7.05468,1.51807-9.88427a103.48761,103.48761,0,0,1-5.53028-30.98194C13.42838,160.46055,11.74772,163.7877,11.82926,167.0792Z"/><path class="v" d="M11.24381,155.41807a174.77059,174.77059,0,0,0,4.2334,37.71679c-.145-.64648,9.21338-3.49267,9.03662-4.28173a174.83218,174.83218,0,0,1-4.2334-37.7168C20.28482,152.48643,11.23893,153.93272,11.24381,155.41807Z"/><path class="v" d="M16.13,179.59336A237.78316,237.78316,0,0,0,23.03678,229.423c-.14356-.57764,2.44092-3.56006,2.82129-4.12842.44482-.66552,2.9375-3.38037,2.73779-4.18408a237.78382,237.78382,0,0,1-6.90674-49.82959C21.77408,173.9459,16.04215,176.8419,16.13,179.59336Z"/><path class="v" d="M17.30191,207.10654a56.02287,56.02287,0,0,0,5.78516,22.10791c.22412.45411,4.39795.45118,4.97461.50391.561.05127,4.76807-.03223,4.98389.4043a56.01772,56.01772,0,0,1-5.78467-22.10742C27.2316,207.46445,17.3234,207.50889,17.30191,207.10654Z"/><path class="v" d="M33.19352,227.46787A288.471,288.471,0,0,0,45.236,260.74912c1.21289,2.80176,6.27929,3.90821,7.46679,6.65235a288.49047,288.49047,0,0,1-12.04248-33.28223C39.85221,231.36924,33.97916,230.1417,33.19352,227.46787Z"/></g><path d="M155.15738,150.55656v16.17h-6v-10.17h-133.81V290.35661h133.81v-118.95a51.008,51.008,0,0,0,4.69,3.83c.17.12994.33.24.5.36.16.12.33.23.49.35.1.07.2.14.31.21,0,0,0,.01.01,0v120.2H9.34739v-145.8Z"/><path d="M294.95743,150.55656V296.35661H149.14737v-124.96l.01.01a51.008,51.008,0,0,0,4.69,3.83c.17.12994.33.24.5.36.16.12.33.23.49.35.1.07.2.14.31.21v114.2H288.95743v-133.8H155.14737v10.17h-6v-16.17Z"/><rect x="149.14737" y="109.4166" width="6" height="4.95996"/><polygon points="294.957 8.557 294.957 154.357 149.147 154.357 149.147 121.467 155.147 121.467 155.147 148.357 288.957 148.357 288.957 14.557 155.147 14.557 155.147 102.437 149.147 102.437 149.147 8.557 294.957 8.557"/><polygon points="304.521 304.524 304.521 300.024 4.274 300.024 4.274 4.276 300.021 4.276 300.021 304.524 304.521 304.524 304.521 300.024 304.521 304.524 309.021 304.524 309.021 -4.724 -4.726 -4.724 -4.726 309.024 309.021 309.024 309.021 304.524 304.521 304.524"/><path class="w" d="M149.14737,109.4166v4.96h2v-4.96Zm0,0v4.96h2v-4.96Zm-13.97-12.16v29.39h55.06v-29.39Zm47.96,24.21h-41.09v-7.09h41.09Zm0-12.05h-41.09v-6.98h41.09Zm-33.99006,0v4.96h2v-4.96Zm2,12.05v5.18h4v-5.18Zm-21.71,10.92v22.07h66.54v-22.07Zm25.89,5.41h13.63v11.26h-13.63Zm-19.25,0h13.17v11.26h-13.17Zm52.92,11.26h-13.85v-11.26h13.85Zm-33.85-27.59h-4v5.18h4Zm-4,0v5.18h4v-5.18Zm18.71,62.49c9.35-5.18,17-11.82,22.07-20.15a2.83205,2.83205,0,0,0,1.24-1.02l-5.29-2.7-1.36.34h-60.01v6.3h14.53l-3.72,1.47a58.02362,58.02362,0,0,0,11.82995,11.8l.01.01q2.25,1.695,4.69,3.27c.17.11.33.22.5.32a2.27533,2.27533,0,0,0,.2.13c-.07.02-.13.05-.2.07-.16.06994-.33.13-.5.19-1.54.56995-3.1,1.12-4.69,1.62994h-.01a148.80465,148.80465,0,0,1-28.16,6.11005,25.65567,25.65567,0,0,1,3.61,6.63995,167.12071,167.12071,0,0,0,24.55-5.6h.01c1.58-.5,3.15-1.02,4.69-1.58.17-.06.34-.12.5-.18.17-.06.33-.12.49-.18.1-.04.21-.08.31-.11a.0098.0098,0,0,1,.01-.01c2.33-.87,4.6-1.8,6.82-2.81a121.90626,121.90626,0,0,0,34.34,10.58,27.09653,27.09653,0,0,1,4.62-6.64A125.5052,125.5052,0,0,1,169.8574,183.95658Zm-14.7-7.8h-.01c-.11-.07-.21-.14-.31-.21-.16-.12-.33-.23-.49-.35-.17-.12-.33-.23005-.5-.36a51.008,51.008,0,0,1-4.69-3.83l-.01-.01a41.829,41.829,0,0,1-4.4-4.67h36.26c-4.73,5.41-11.26,10.02-18.81,13.63A63.53652,63.53652,0,0,1,155.15738,176.15659Zm-49.93-81.49-4.39,5.52c6.98,3.49,15.31,9.01,19.37005,13.06,1.01-1.35,2.02-2.81,4.5-6.08C120.65738,103.11655,112.09739,97.93656,105.22739,94.6666Zm17.45,65.08-4.05-3.19-1.79-1.41h-.00995c-.21.47-.41.94-.63,1.41a347.77387,347.77387,0,0,1-18.06,35.51l7.88,5.18a2.32779,2.32779,0,0,0,.34-1.24,2.47875,2.47875,0,0,0-.57-1.58A368.63058,368.63058,0,0,0,122.6774,159.74656Zm-23.42-34.44995-4.16,5.63c7.09,3.15,15.54,8.33,19.59,12.16l4.39-6.19C114.7974,133.06657,106.2374,128.2266,99.25742,125.29661Z"/><rect x="142.0474" y="102.43656" width="41.09003" height="6.98004"/><rect x="142.0474" y="114.37656" width="41.09003" height="7.09003"/><path class="d" d="M181.00742,166.7266c-4.73,5.41-11.26,10.02-18.81,13.63a63.53652,63.53652,0,0,1-7.04-4.2c-.01.01-.01,0-.01,0-.11-.07-.21-.14-.31-.21-.16-.12-.33-.23-.49-.35-.17-.12-.33-.23005-.5-.36a51.008,51.008,0,0,1-4.69-3.83l-.01-.01a41.829,41.829,0,0,1-4.4-4.67Z"/><path d="M61.43717,57.21885H96.9733v3.86426H20.97818V57.21885H55.84732V52.70908H28.486v-3.543H55.84732V44.899H30.738v-3.543H55.84732V36.92735H21.06119V33.22324H55.84732V29.1168H31.23893v-3.543H55.84732V20.33994l7.25782.40283c-.083.64405-.501,1.04688-1.668,1.127v3.7041H86.62955v7.64941H96.89029v3.70411H86.62955V44.899H61.43717v4.26709H89.21549v3.543H61.43717ZM84.8776,87.81651V63.01572l6.84082.40332c-.084.56348-.501.88575-1.585,1.0459V95.22471H84.8776V91.923H33.82486v3.30176H28.653v-32.209l6.75683.40332c-.083.56348-.501.88575-1.585,1.0459V87.81651ZM39.74772,64.62608h38.79v19.084h-38.79Zm4.58789,3.30175v4.58985h12.0957V67.92783Zm0,7.81055V80.4083h12.0957V75.73838Zm29.53027-3.2207V67.92783H61.0192v4.58985Zm0,7.89062V75.73838H61.0192V80.4083ZM61.43717,29.1168v4.10644H81.04068V29.1168Zm0,7.81055v4.42871H81.04068V36.92735Z"/></svg>