<?xml version="1.0" encoding="utf-8"?>
<!-- Generator: Adobe Illustrator 24.0.2, SVG Export Plug-In . SVG Version: 6.00 Build 0)  -->
<svg version="1.1" id="Capa_1" xmlns="http://www.w3.org/2000/svg" xmlns:xlink="http://www.w3.org/1999/xlink" x="0px" y="0px"
	 viewBox="0 0 500 500" style="enable-background:new 0 0 500 500;" xml:space="preserve">
<style type="text/css">
	.st0{fill:#FFFFFF;}
	.st1{fill:#020203;}
</style>
<g>
	<path class="st0" d="M492.08,323.86c-0.19-0.78-0.43-1.54-0.72-2.28c0.01-0.04,0.03-0.08,0.04-0.12c0.01-0.16-0.01-0.3-0.04-0.43
		c-0.13-0.51-0.43-1.03-0.81-1.6c-0.57-0.86-1.34-1.8-2.01-2.57c-0.34-0.39-0.65-0.73-0.9-0.99c-0.25-0.27-0.43-0.45-0.54-0.55l0,0
		c-1.34-1.16-2.77-1.89-4.18-2.71c-0.43-0.25-0.84-0.49-1.13-0.73c-0.3-0.24-0.45-0.47-0.5-0.68c-0.02-0.09-0.02-0.18-0.01-0.3
		c0.01-0.04,0.07-0.2,0.15-0.37c0.09-0.19,0.19-0.41,0.27-0.56l0-0.01l0,0c0.22-0.41,0.48-0.81,0.76-1.21h0
		c1-1.41,2.21-2.77,3.1-4.45c1.89-3.54,2.26-7.65,1.37-11.37c-0.99-4.17-3.58-7.87-7.43-9.77c-0.42-0.2-0.86-0.36-1.29-0.52
		c0.09-0.11,0.17-0.21,0.18-0.22v0c0.73-0.77,1.46-1.54,2.19-2.32c1.19-1.27,2.87-2.72,4.15-4.41c0.64-0.85,1.19-1.76,1.51-2.77
		c0.32-1,0.41-2.11,0.14-3.25c-0.1-0.41-0.24-0.83-0.44-1.25c-1.07-2.32-3.14-3.61-5.05-4.59c-1.96-1.01-3.99-1.88-6.09-2.55
		c-3.19-1.01-6.5-1.56-9.83-1.66c-0.82-2.21-1.97-4.27-3.22-6.16c-2.91-4.41-5.78-8.5-7.56-13.51c-0.89-2.47-1.6-5.01-2.22-7.58
		c-0.02-0.09-0.05-0.22-0.07-0.37c0.03-0.02,0.08-0.05,0.11-0.08c0.85-0.64,1.66-1.37,2.33-2.28l0,0c0,0,0,0,0,0c0,0,0,0,0,0l0,0
		c2.42-3.18,3.4-7.32,2.76-11.26c2.87-1.87,4.67-5.2,5.47-8.89c0.94-4.36,1.82-9.54,0.78-14.18c1.57-2.27,2.9-4.92,2.82-7.97
		c-0.02-0.73-0.12-1.45-0.28-2.13c-0.31-1.29-0.9-2.45-1.68-3.43c1.24-2.81,2.04-5.8,2.42-8.9c0.35-2.81,0.45-6.09-0.25-9.05
		c-0.23-0.96-0.54-1.88-0.97-2.75l0,0c-1.25-2.59-3.41-3.76-5.67-3.81l-0.08,0l-0.04,0.01c-0.84-0.02-1.69,0.1-2.53,0.35
		c-0.7,0.2-1.38,0.48-2.04,0.83l0,0c-0.61,0.32-1.19,0.7-1.76,1.09c0-0.01,0-0.03,0-0.04h0c0.04-0.7,0.05-1.4,0.07-2.09v-0.01
		c0.13-5.34-0.02-10.71-0.43-16.05h0c0,0,0-0.01,0-0.01c0,0,0,0,0,0c-0.04-0.68-0.09-1.37-0.15-2.04v0
		c-0.18-2.17-0.41-4.34-0.68-6.49v0c-0.09-0.75-0.19-1.5-0.3-2.25h0c-0.07-0.63-0.16-1.23-0.25-1.84c-0.43-2.86-0.92-5.72-1.49-8.56
		l0,0c-0.07-0.39-0.15-0.81-0.25-1.22h0c-0.38-1.87-0.79-3.74-1.24-5.59c-2.57-10.75-6.15-21.26-10.78-31.1l0,0.01
		c-0.37-0.81-0.76-1.6-1.13-2.38l0-0.01l0-0.01c-0.51-1-1.01-2.01-1.53-3c-6.03-11.56-13.75-22.35-22.57-31.67l0,0
		c-0.73-0.78-1.49-1.56-2.25-2.33l0,0c-1.41-1.43-2.85-2.81-4.31-4.15l0,0c-2.31-2.12-4.7-4.15-7.14-6.07l0,0
		c-0.34-0.26-0.66-0.52-1.01-0.77l0,0c-7.09-5.44-14.72-9.98-22.8-13.51c-0.9-0.4-1.8-0.77-2.71-1.13c-0.66-0.26-1.3-0.51-1.95-0.76
		l0,0l0,0c-5.26-1.98-10.62-3.49-16.08-4.6l-0.12-0.02l-0.01,0c-0.84-0.17-1.66-0.34-2.52-0.49l-0.11-0.02l-0.02,0.01
		c-1.17-0.21-2.36-0.4-3.54-0.57c-9.62-1.4-19.5-1.66-29.17-0.39c-3.83,0.5-7.64,1.22-11.39,2.15l-0.01,0l-0.02,0.01
		c-1.1,0.27-2.17,0.54-3.26,0.86l0.01,0c-0.36,0.1-0.72,0.2-1.08,0.31c-3.97,1.15-7.88,2.53-11.73,4.14
		c-1.21,0.51-2.43,1.02-3.66,1.57l-0.01,0l-0.03,0.01c-1.06,0.46-2.11,0.94-3.17,1.43c-2.55,1.19-5.1,2.46-7.58,3.86l0,0
		c-1.22,0.68-2.42,1.38-3.6,2.13l-0.02,0.01l-0.06,0.04c-2.24,1.39-4.42,2.89-6.5,4.53c-5.25,4.13-9.98,8.92-14.29,14.14
		c-0.95,1.15-1.87,2.32-2.78,3.5c-5.9,7.73-10.99,16.22-15.56,24.82c-2.16,4.06-4.2,8.19-6.12,12.39c-0.64,1.38-1.26,2.78-1.86,4.18
		l0,0c-0.5,1.15-0.99,2.31-1.48,3.49c-0.75,1.82-1.48,3.66-2.2,5.5l0,0c-1.64,4.28-3.16,8.61-4.55,12.99
		c-4.01-4.21-8.27-8.14-12.8-11.7c-4.15-3.25-8.5-6.06-13.03-8.51l-0.18-0.1l-0.01,0c-0.41-0.23-0.82-0.45-1.22-0.65c0,0,0,0,0,0
		l0,0c0,0,0,0,0,0c-1.1-0.57-2.21-1.11-3.32-1.64l0,0c-0.61-0.28-1.22-0.57-1.84-0.84c-2.55-1.15-5.14-2.17-7.76-3.1l-0.01,0
		c-0.29-0.1-0.59-0.2-0.88-0.3l0,0c-0.19-0.07-0.39-0.15-0.62-0.22v0c-5.73-1.94-11.53-3.55-17.32-5.17
		c-5.84-1.62-11.73-3.16-17.7-4.32c-5.99-1.17-12.07-2-18.17-2.14c-1.12-0.03-2.23-0.02-3.35,0.01v0c0,0,0,0-0.01,0c0,0,0,0,0,0
		c-1.03,0.01-2.06,0.05-3.08,0.13h0c0,0-0.01,0-0.01,0v0c-4.07,0.23-8.1,0.76-12.11,1.44c-3.68,0.62-7.34,1.29-10.98,2.12
		c-1.05,0.23-2.1,0.49-3.15,0.75c-1.23,0.31-2.45,0.64-3.67,0.99c-5.47,1.59-10.82,3.64-15.97,6.48
		c-6.28,3.48-12.13,7.82-17.54,12.75l-0.02,0.01l-0.09,0.08c-1.18,1.08-2.34,2.2-3.48,3.33c-1.06,1.05-2.11,2.13-3.14,3.23
		c-6.51,6.97-12.05,14.84-17.37,22.85c-5.04,7.57-9.34,15.53-12.65,24.07l0,0c-0.64,1.68-1.26,3.39-1.81,5.12h0c0,0,0,0.01,0,0.01
		l0,0c-0.38,1.11-0.73,2.23-1.06,3.36c-2.18,7.39-3.66,14.95-4.62,22.61l-0.01,0.11l0,0.02c-0.22,1.72-0.41,3.45-0.57,5.17
		c-0.63,6.59-0.9,13.24-0.91,19.88c0,1.66,0,3.31,0.03,4.96l0,0.07l0,0.02c0.08,5.62,0.33,11.23,0.67,16.79
		c0.22,3.41,0.46,6.85,0.76,10.28c0.11,1.25,0.23,2.52,0.36,3.77c0.2,2.05,0.42,4.1,0.68,6.14l0,0c0.15,1.28,0.32,2.54,0.49,3.81
		l0,0.03l0,0.02c0.74,5.36,1.64,10.69,2.81,15.95c0.21,0.95,0.43,1.91,0.65,2.85c0.08,0.34,0.16,0.68,0.25,1.03
		c2,8.19,4.64,16.19,8.17,23.81l0,0c0.64,1.42,1.33,2.83,2.05,4.21c0.9,1.78,1.87,3.53,2.88,5.25l0,0c0.8,1.35,1.62,2.68,2.47,4
		c0.39,0.6,0.78,1.21,1.18,1.81l0,0l0.14,0.2c0.48,0.71,0.97,1.41,1.46,2.12l0,0.01l0.06,0.09c2.34,3.35,4.84,6.6,7.46,9.72l0,0.02
		l0.09,0.11c1.06,1.27,2.15,2.53,3.26,3.77l0,0.02l0.1,0.11c1.85,2.08,3.75,4.11,5.69,6.09c5.1,5.21,10.45,10.22,15.96,14.98l0,0
		c0.56,0.48,1.12,0.97,1.71,1.45h0c2.97,2.53,6,5,9.07,7.37c2.35,1.82,4.77,3.54,7.28,5.09l0,0c1.38,0.84,2.79,1.64,4.24,2.37
		l0.17,0.09l0.02-0.01c1.07,0.54,2.14,1.04,3.24,1.5l0,0c5.47,2.25,11.3,3.19,17.08,3.6c3.3,0.24,6.61,0.34,9.93,0.34
		c0.05,0.23,0.1,0.45,0.15,0.67c1.1,4.6,3.03,8.98,5.56,12.9l0,0c0.38,0.6,0.78,1.19,1.18,1.76l0,0c0.92,1.3,1.91,2.56,2.96,3.73
		c0.68,0.78,1.38,1.52,2.11,2.24l0,0c0,0,0,0,0,0h0c0.71,0.72,1.45,1.38,2.2,2.03l0,0c0.18,0.16,0.36,0.32,0.54,0.47l0,0l0,0
		c1.43,1.19,2.94,2.3,4.5,3.33l0,0l0.17,0.12c0.21,0.16,0.43,0.29,0.67,0.43l0,0c0.66,0.43,1.35,0.86,2.04,1.26l0.16,0.09l0.18-0.03
		c1.12-0.21,2.23-0.48,3.34-0.8c1.54-0.45,3.06-0.99,4.55-1.63c1.94-0.84,3.84-1.83,5.66-2.99c2.36-1.48,4.58-3.19,6.67-5.04l0,0
		c1.12-1.01,2.2-2.04,3.24-3.13v0c0,0,0,0,0,0c0,0,0,0,0,0v0c0.25-0.25,0.5-0.51,0.75-0.78l0.35-0.39l-0.33-0.41
		c-0.31-0.39-0.61-0.76-0.88-1.16l0-0.01l0,0c-0.36-0.49-0.7-0.99-1.02-1.51l0,0l0-0.01c-0.17-0.27-0.35-0.55-0.51-0.83l0-0.01
		c-0.23-0.39-0.46-0.8-0.68-1.21c-0.38-0.71-0.73-1.43-1.06-2.17c-0.71-1.6-1.3-3.28-1.74-4.99l0-0.01l0,0
		c-0.09-0.32-0.17-0.65-0.25-0.98c-0.12-0.51-0.23-1.03-0.33-1.55c-0.13-0.74-0.24-1.46-0.32-2.21c-0.02-0.22-0.04-0.45-0.06-0.67
		c1.22-0.17,2.44-0.36,3.65-0.54l0.01,0l0,0c0.29-0.05,0.6-0.09,0.91-0.14l0.03,0l0.02-0.01c6.52-0.98,13.01-2.07,19.5-3.13l0,0l0,0
		c0.21-0.04,0.44-0.07,0.68-0.11v0c0.58-0.1,1.16-0.19,1.74-0.29c4.05-0.67,8.09-1.32,12.13-1.99c-0.12,0.59-0.11,1.19,0.02,1.75
		c0.07,0.29,0.17,0.56,0.3,0.82c0.7,1.39,1.65,2.59,2.76,3.58c0.64,0.57,1.33,1.08,2.07,1.49l0,0c1.35,0.78,2.83,1.26,4.35,1.44
		c0.02,0.98,0.13,1.94,0.35,2.88c1.24,5.17,5.34,9.51,10.14,10.71c-0.04,1.12,0.05,2.25,0.31,3.34c0.61,2.57,1.98,4.95,3.8,6.59
		c3.45,3.09,7.81,3.57,11.99,3.04c0.02,1.2,0.14,2.4,0.42,3.55c0.84,3.53,2.84,6.73,5.7,8.72c3.14,2.18,6.98,2.61,10.47,1.6
		c1.05-0.3,2.06-0.76,3.02-1.32c2.1,2.62,5,4.33,8.28,4.95c0.15,0.03,0.29,0.04,0.44,0.07c0.06,0.54,0.13,1.09,0.19,1.63l0,0.02
		l0-0.02c0.41,3.5,0.64,7.14,1.45,10.67l0.03,0.15c0.87,3.64,2.63,6.54,4.77,9.06c2.14,2.52,4.67,4.69,7.11,6.91
		c9.97,9.04,19.77,18.62,31.14,25.74c10.25,6.43,21.48,11.13,33.07,13.77c6.67,1.51,13.44,2.46,20.15,3.56
		c6.6,1.07,13.21,2.35,19.85,3.23c1.58,0.21,3.16,0.09,4.67-0.35c2.13-0.62,4.1-1.88,5.62-3.73c2.41-2.95,3.57-6.63,4.64-10.17
		c0.08-0.26,0.16-0.51,0.24-0.77c3.52,2.92,7.11,5.76,10.64,8.63c1.17,0.95,2.39,1.96,3.92,2.48l0,0c1.82,0.6,3.7,0.45,5.46,0.04
		c0.32-0.08,0.64-0.16,0.95-0.25c2.62-0.76,5.15-2.07,7.4-3.65c5.09-3.56,9.11-8.5,12.81-13.51c0.97-1.32,1.98-2.68,2.97-4.07
		c0.38,1.2,0.78,2.44,1.51,3.56c1.63,2.52,4.22,3.4,6.88,2.95c0.49-0.08,0.99-0.19,1.47-0.33c3.83-1.12,7.41-3.98,10.21-6.63
		c3.41-3.21,6.22-7.14,8.64-11.22c2.43-4.13,4.45-8.51,6.29-12.95c2.06-4.97,3.97-10.07,5.26-15.38c1.84-7.62,2.38-15.95,0.55-23.64
		c-0.72-3.03-1.82-5.96-3.34-8.7c-2.54-4.53-5.96-8.24-8.58-12.5c2.4-10.11,3.25-20.5,5.82-30.43c1.96-7.56,5.03-15.28,10.08-20.9
		c1.15,0.85,2.03,2.04,2.36,3.43c0.13,0.53,0.18,1.1,0.14,1.69c-0.02,0.36,0.01,0.7,0.08,1.02c0.23,0.97,0.87,1.68,1.62,2.1
		c0.75,0.41,1.64,0.55,2.47,0.31c0.74-0.21,1.44-0.76,1.83-1.64l0,0C492.69,332.02,493.01,327.76,492.08,323.86z"/>
	<g>
		<path class="st1" d="M492.08,323.86c-0.19-0.78-0.43-1.54-0.72-2.28c0.01-0.04,0.03-0.08,0.04-0.12c0.01-0.16-0.01-0.3-0.04-0.43
			c-0.13-0.51-0.43-1.03-0.81-1.6c-0.57-0.86-1.34-1.8-2.02-2.57c-0.34-0.39-0.65-0.73-0.9-0.99c-0.25-0.27-0.43-0.45-0.54-0.55l0,0
			c-1.34-1.16-2.77-1.89-4.18-2.71c-0.43-0.25-0.84-0.49-1.13-0.73c-0.3-0.24-0.45-0.47-0.5-0.68c-0.02-0.09-0.02-0.18-0.01-0.3
			c0.01-0.04,0.07-0.2,0.15-0.37c0.09-0.19,0.19-0.41,0.27-0.56l0-0.01l0,0c0.22-0.41,0.48-0.81,0.76-1.21h0
			c1-1.41,2.21-2.77,3.1-4.45c1.89-3.54,2.26-7.65,1.37-11.37c-0.99-4.17-3.58-7.87-7.43-9.77c-0.42-0.2-0.86-0.36-1.29-0.52
			c0.09-0.11,0.17-0.21,0.18-0.22l0,0c0.73-0.77,1.46-1.54,2.19-2.32c1.19-1.27,2.87-2.72,4.15-4.41c0.64-0.85,1.18-1.76,1.51-2.77
			c0.32-1,0.41-2.11,0.14-3.25c-0.1-0.41-0.24-0.83-0.44-1.25c-1.07-2.32-3.14-3.61-5.05-4.59c-1.96-1.01-3.99-1.88-6.08-2.55
			c-3.19-1.01-6.5-1.56-9.83-1.66c-0.82-2.21-1.97-4.27-3.22-6.16c-2.91-4.41-5.78-8.5-7.56-13.51c-0.89-2.47-1.6-5.01-2.22-7.58
			c-0.02-0.09-0.05-0.22-0.07-0.37c0.03-0.02,0.08-0.05,0.11-0.08c0.85-0.64,1.66-1.37,2.33-2.28l0,0c0,0,0,0,0,0c0,0,0,0,0,0l0,0
			c2.42-3.18,3.4-7.32,2.76-11.26c2.87-1.87,4.67-5.2,5.47-8.89c0.94-4.36,1.82-9.54,0.78-14.18c1.57-2.27,2.9-4.92,2.82-7.97
			c-0.02-0.73-0.12-1.45-0.28-2.13c-0.31-1.29-0.9-2.45-1.68-3.43c1.24-2.81,2.04-5.8,2.42-8.9c0.35-2.81,0.45-6.09-0.25-9.05
			c-0.23-0.96-0.54-1.88-0.97-2.75l0,0c-1.25-2.59-3.41-3.76-5.67-3.81l-0.08,0l-0.04,0.01c-0.84-0.02-1.69,0.1-2.53,0.35
			c-0.7,0.2-1.38,0.48-2.04,0.83l0,0c-0.61,0.32-1.19,0.7-1.76,1.09c0-0.01,0-0.03,0-0.04h0c0.04-0.7,0.05-1.4,0.07-2.09l0-0.01
			c0.13-5.34-0.02-10.71-0.43-16.05h0c0,0,0-0.01,0-0.01c0,0,0,0,0,0l0,0c-0.04-0.68-0.09-1.37-0.15-2.04v0
			c-0.18-2.17-0.41-4.34-0.68-6.49l0,0c-0.09-0.75-0.19-1.5-0.3-2.25h0c-0.07-0.63-0.16-1.23-0.25-1.84
			c-0.43-2.86-0.92-5.72-1.49-8.56l0,0c-0.07-0.39-0.15-0.81-0.25-1.22l0,0c-0.38-1.87-0.8-3.74-1.24-5.59
			c-2.57-10.75-6.15-21.26-10.78-31.1l0,0.01c-0.37-0.81-0.76-1.6-1.13-2.38l0-0.01l0-0.01c-0.51-1-1.01-2.01-1.53-3
			c-6.03-11.56-13.75-22.35-22.57-31.67l0,0c-0.73-0.78-1.49-1.56-2.25-2.33l0,0c-1.41-1.43-2.85-2.81-4.31-4.15l0,0
			c-2.31-2.12-4.7-4.15-7.14-6.07l0,0c-0.34-0.26-0.66-0.52-1.01-0.77l0,0c-7.09-5.44-14.72-9.98-22.8-13.51
			c-0.9-0.4-1.8-0.77-2.71-1.13c-0.66-0.26-1.3-0.51-1.95-0.76l0,0l0,0c-5.26-1.98-10.62-3.49-16.08-4.6l-0.12-0.02l-0.01,0
			c-0.84-0.17-1.66-0.34-2.52-0.49l-0.11-0.02l-0.02,0.01c-1.17-0.21-2.36-0.4-3.54-0.57c-9.62-1.4-19.5-1.66-29.17-0.39
			c-3.83,0.5-7.64,1.22-11.39,2.15l-0.01,0l-0.02,0.01v0c-1.1,0.27-2.17,0.54-3.26,0.86l0.01,0c-0.36,0.1-0.72,0.2-1.08,0.31
			c-3.97,1.15-7.88,2.53-11.73,4.14c-1.21,0.51-2.43,1.02-3.66,1.57l-0.01,0l-0.03,0.01c-1.06,0.46-2.11,0.94-3.17,1.43
			c-2.55,1.19-5.1,2.46-7.58,3.86l0,0c-1.22,0.68-2.42,1.38-3.6,2.13l-0.02,0.01l-0.06,0.04c-2.24,1.39-4.42,2.89-6.5,4.53
			c-5.25,4.13-9.98,8.92-14.29,14.14c-0.95,1.15-1.87,2.32-2.78,3.5c-5.9,7.73-10.99,16.23-15.56,24.82
			c-2.16,4.06-4.2,8.19-6.12,12.4c-0.64,1.38-1.26,2.78-1.86,4.18l0,0c-0.5,1.15-0.99,2.31-1.48,3.49c-0.75,1.82-1.48,3.66-2.2,5.5
			l0,0c-1.64,4.28-3.16,8.61-4.55,12.99c-4.01-4.21-8.27-8.14-12.8-11.7c-4.15-3.25-8.5-6.06-13.03-8.51l-0.18-0.1l-0.01,0
			c-0.41-0.23-0.82-0.45-1.22-0.65c-1.1-0.57-2.21-1.11-3.32-1.64l0,0c-0.61-0.28-1.22-0.57-1.84-0.84
			c-2.55-1.15-5.14-2.17-7.76-3.1l-0.01,0c-0.29-0.1-0.59-0.2-0.88-0.3l0,0c-0.19-0.07-0.39-0.15-0.62-0.22l0,0
			c-5.73-1.94-11.53-3.55-17.32-5.17c-5.84-1.62-11.73-3.16-17.7-4.32c-5.99-1.17-12.07-2-18.17-2.14
			c-1.12-0.03-2.23-0.02-3.35,0.01v0c0,0,0,0-0.01,0c0,0,0,0,0,0v0c-1.03,0.01-2.06,0.05-3.08,0.13l0,0h0c0,0-0.01,0-0.01,0v0
			c-4.07,0.23-8.1,0.76-12.11,1.44c-3.68,0.62-7.34,1.29-10.98,2.12c-1.05,0.23-2.1,0.49-3.15,0.75c-1.23,0.31-2.45,0.64-3.67,0.99
			c-5.47,1.59-10.82,3.64-15.97,6.48c-6.28,3.48-12.13,7.82-17.54,12.75l-0.02,0.01l-0.09,0.08c-1.18,1.08-2.34,2.2-3.48,3.33
			c-1.06,1.05-2.11,2.13-3.14,3.23c-6.51,6.97-12.05,14.84-17.37,22.85c-5.04,7.57-9.34,15.53-12.65,24.07l0,0
			c-0.64,1.68-1.26,3.39-1.81,5.12l0,0c0,0,0,0.01,0,0.01c0,0,0,0,0,0l0,0c-0.38,1.11-0.73,2.23-1.06,3.36
			c-2.18,7.39-3.66,14.95-4.62,22.61l-0.01,0.11l0,0.02c-0.22,1.72-0.41,3.45-0.57,5.17c-0.63,6.59-0.9,13.24-0.91,19.88
			c0,1.66,0,3.31,0.03,4.96l0,0.07l0,0.02c0.08,5.62,0.33,11.23,0.67,16.79c0.22,3.41,0.46,6.85,0.76,10.28
			c0.11,1.25,0.23,2.52,0.36,3.77c0.2,2.05,0.42,4.1,0.68,6.14l0,0c0.15,1.28,0.32,2.54,0.49,3.81l0,0.03l0,0.02
			c0.74,5.36,1.64,10.69,2.81,15.95c0.21,0.95,0.43,1.91,0.65,2.85c0.08,0.34,0.16,0.68,0.25,1.03c2,8.19,4.64,16.19,8.17,23.81l0,0
			c0.64,1.42,1.33,2.83,2.05,4.21c0.9,1.78,1.87,3.53,2.88,5.25l0,0c0.8,1.35,1.62,2.68,2.47,4c0.39,0.6,0.78,1.21,1.18,1.81l0,0
			l0.14,0.2c0.48,0.71,0.97,1.41,1.46,2.12l0,0.01l0.06,0.09c2.34,3.35,4.84,6.6,7.46,9.72l0,0.02l0.09,0.11
			c1.06,1.27,2.15,2.53,3.26,3.77l0,0.02l0.1,0.11c1.85,2.08,3.75,4.11,5.69,6.09c5.1,5.21,10.45,10.22,15.96,14.98l0,0
			c0.56,0.48,1.12,0.97,1.71,1.45h0c2.97,2.53,6,5,9.07,7.37c2.35,1.82,4.77,3.54,7.28,5.09l0,0c1.38,0.84,2.79,1.64,4.24,2.37
			l0.17,0.09l0.02-0.01c1.07,0.54,2.14,1.04,3.24,1.5l0,0c5.47,2.25,11.3,3.19,17.08,3.6c3.3,0.24,6.61,0.34,9.93,0.34
			c0.05,0.23,0.1,0.45,0.15,0.67c1.1,4.6,3.03,8.98,5.56,12.9l0,0c0.38,0.6,0.78,1.19,1.18,1.76l0,0c0.92,1.3,1.91,2.56,2.96,3.73
			c0.68,0.78,1.38,1.52,2.11,2.24l0,0c0,0,0,0,0,0h0l0,0c0.71,0.72,1.45,1.38,2.2,2.03l0,0c0.18,0.16,0.36,0.32,0.54,0.47l0,0l0,0
			c1.43,1.19,2.94,2.3,4.5,3.33l0,0l0.17,0.12c0.21,0.16,0.43,0.29,0.67,0.43l0,0c0.66,0.43,1.35,0.86,2.04,1.26l0.16,0.09
			l0.18-0.03c1.12-0.21,2.23-0.48,3.34-0.8c1.54-0.45,3.06-0.99,4.55-1.63c1.94-0.84,3.84-1.83,5.66-2.99
			c2.36-1.48,4.58-3.19,6.67-5.04l0,0c1.12-1.01,2.2-2.04,3.24-3.13l0,0c0,0,0,0,0,0c0,0,0,0,0,0l0,0c0.25-0.25,0.5-0.51,0.75-0.78
			l0.35-0.39l-0.33-0.41c-0.31-0.39-0.61-0.76-0.88-1.16l0-0.01l0,0c-0.36-0.49-0.7-0.99-1.02-1.51l0,0l0-0.01
			c-0.17-0.27-0.35-0.55-0.51-0.83l0-0.01c-0.23-0.39-0.46-0.8-0.68-1.21c-0.38-0.71-0.73-1.43-1.06-2.17
			c-0.71-1.6-1.3-3.28-1.74-4.99l0-0.01l0,0c-0.09-0.32-0.17-0.65-0.25-0.98c-0.12-0.51-0.23-1.03-0.33-1.55l0,0
			c-0.13-0.74-0.24-1.46-0.32-2.21c-0.02-0.22-0.04-0.45-0.06-0.67c1.22-0.17,2.44-0.36,3.65-0.54l0.01,0l0,0
			c0.29-0.05,0.6-0.09,0.91-0.14l0.03,0l0.02-0.01c6.52-0.98,13.01-2.07,19.5-3.13l0,0l0,0c0.21-0.04,0.44-0.07,0.68-0.11l0,0
			c0.58-0.1,1.16-0.19,1.74-0.29c4.05-0.67,8.09-1.32,12.13-1.99c-0.12,0.59-0.11,1.19,0.02,1.75c0.07,0.29,0.17,0.56,0.3,0.82
			c0.7,1.39,1.65,2.59,2.76,3.58c0.64,0.57,1.33,1.08,2.07,1.49l0,0c1.35,0.78,2.83,1.26,4.35,1.44c0.02,0.98,0.12,1.94,0.35,2.88
			c1.24,5.17,5.34,9.51,10.14,10.71c-0.04,1.12,0.05,2.25,0.31,3.34c0.61,2.57,1.98,4.95,3.8,6.59c3.45,3.09,7.81,3.57,11.99,3.04
			c0.02,1.2,0.14,2.4,0.42,3.55c0.84,3.53,2.84,6.73,5.7,8.72c3.14,2.18,6.98,2.61,10.47,1.6c1.05-0.3,2.06-0.76,3.02-1.32
			c2.1,2.62,5,4.33,8.28,4.95c0.15,0.03,0.29,0.04,0.44,0.07c0.06,0.54,0.13,1.09,0.19,1.63l0,0.02l0-0.02
			c0.41,3.5,0.64,7.14,1.44,10.67l0.03,0.15c0.87,3.64,2.63,6.54,4.77,9.06c2.14,2.52,4.67,4.69,7.11,6.91
			c9.97,9.04,19.77,18.62,31.14,25.74c10.25,6.43,21.48,11.13,33.07,13.77c6.67,1.51,13.44,2.46,20.15,3.56
			c6.6,1.07,13.21,2.35,19.85,3.23c1.58,0.21,3.16,0.09,4.67-0.35c2.14-0.62,4.1-1.88,5.62-3.73c2.41-2.95,3.57-6.63,4.64-10.17
			c0.08-0.26,0.16-0.51,0.24-0.77c3.52,2.92,7.11,5.76,10.64,8.63c1.17,0.95,2.39,1.96,3.92,2.48l0,0c1.82,0.6,3.7,0.45,5.46,0.04
			c0.32-0.08,0.64-0.16,0.95-0.25c2.62-0.76,5.15-2.07,7.4-3.65c5.09-3.56,9.11-8.5,12.81-13.51c0.97-1.32,1.98-2.68,2.97-4.07
			c0.38,1.2,0.78,2.44,1.51,3.56c1.63,2.52,4.22,3.4,6.88,2.95c0.49-0.08,0.99-0.19,1.47-0.33c3.83-1.12,7.41-3.98,10.21-6.63
			c3.41-3.21,6.22-7.14,8.64-11.22c2.43-4.13,4.45-8.51,6.29-12.95c2.06-4.97,3.97-10.07,5.26-15.38
			c1.84-7.62,2.38-15.95,0.55-23.64c-0.72-3.03-1.82-5.96-3.34-8.7c-2.54-4.53-5.96-8.24-8.58-12.5c2.4-10.11,3.25-20.5,5.82-30.43
			c1.96-7.56,5.03-15.28,10.08-20.9c1.16,0.85,2.03,2.04,2.36,3.43c0.13,0.53,0.18,1.1,0.14,1.69c-0.02,0.36,0.01,0.7,0.08,1.02
			c0.23,0.97,0.87,1.68,1.62,2.1c0.75,0.41,1.64,0.55,2.47,0.31c0.74-0.21,1.44-0.76,1.83-1.64l0,0
			C492.69,332.02,493.01,327.76,492.08,323.86z M487.26,325.58c-0.95-1.93-8.36-5.24-10.82,1.08c-1.55,3.99-4.63,7.14-6.25,11.09
			c-3.81,9.25-5.31,19.11-6.97,29c-0.28,1.7-0.57,3.39-0.89,5.09c-0.58,3.12-1.23,6.22-2.05,9.27c-0.07,0.29-0.14,0.56-0.22,0.84
			c-1.28,4.56-2.89,9.62-5.71,13.34c-1.34,1.78-2.95,3.03-5.05,3.45c-2.14,0.43-4.4,0.04-6.53-0.28c-1.75-0.27-3.45-0.46-5.14-0.53
			c-1.99-0.09-3.96,0.01-5.95,0.43l-0.01,0c-1.08,0.22-2.16,0.53-3.24,0.95c-9.33,3.6-16.37,11.86-25.58,15.69
			c-5.13,2.14-10.59,3.07-15.98,3.96c-1.09,0.18-2.19,0.36-3.27,0.54l-0.01,0c-2.5,0.4-4.98,0.8-7.48,1.21
			c-2.03,0.33-4.06,0.66-6.09,0.99c-5.62,0.92-11.24,1.83-16.86,2.75c-4.67,0.76-9.35,1.53-14.08,1.7
			c-4.59,0.17-9.18-0.24-13.53-1.91c-4.52-1.75-8.41-5-12.34-7.9c-7.95-5.83-16.87-9.43-26.49-9.95c-4.83-0.27-9.61,0.34-14.32,1.5
			c-2.11,0.53-4.35,1.16-6.57,1.43c-1.82,0.23-3.64,0.21-5.39-0.3c-0.52-0.15-1.04-0.35-1.54-0.59c-1.41-0.68-2.92-1.86-3.52-3.47
			c-0.74-2-2.87-3.02-4.48-1.31c-2.47,2.62-6.53,3.18-9.43,1.11c-3.1-2.21-3.93-6.71-2.61-10.32c0.79-2.14-1.46-4.1-3.25-3.6
			c-3.43,0.96-7.92,1.95-11.06-0.43c-2.15-1.63-3.27-4.87-1.6-7.24c1.5-2.14-0.94-4.86-2.99-4.3c-2.41,0.65-4.87-0.64-6.56-2.89
			c-1.67-2.21-2.23-4.88-1.18-7.59c0.79-2.04-1.46-4.23-3.25-3.6c-1.32,0.47-2.69,0.45-3.93-0.01c-0.6-0.21-1.18-0.53-1.69-0.95
			c0.89-0.48,1.84-0.8,2.83-1.03c0.17-0.04,0.34-0.07,0.51-0.1c1.17-0.22,1.96-1.59,2-2.79l0.01-0.12c0.16-2.78,2.31-4.81,4.14-6.52
			l0.15-0.14c2.46-2.31,4.96-4.41,6.83-7.36c3.84-5.97,4.51-13.7,2.35-20.45c1.84-10.96,0.09-22.19-2.4-33.03
			c-0.13-3.08-0.92-6.11-2.24-8.84c-1.42-2.9-5.71-0.94-4.92,2.24c0.63,2.51,1.27,5.05,1.87,7.62c0.07,3.1-0.69,6.21-2.64,8.29
			c-0.34,0.37-1.13,1.05-1.52,0.95c-0.9-0.25-1.4-2.36-1.69-3.17c-0.87-2.43-1.56-4.94-2.09-7.5c-0.08-1.2-0.28-2.37-0.63-3.51
			c-1.09-3.6-5.73-2.18-5.18,1.5c0.14,0.9,0.29,1.82,0.46,2.72c0.21,4.5-2.04,9.36-6.56,9.82c-0.94,0.09-1.94-0.07-2.76-0.64
			c-0.47-0.34-0.98-1.14-1.16-1.76c-0.11-0.37-0.19-0.71-0.23-1.02c0.87-1.27,1.61-2.66,2.22-4.13c1.07-2.62-1.13-5.42-3.65-4
			c-2.12,1.21-3.35,3.4-3.76,5.82c-0.16,0.2-0.29,0.39-0.47,0.57l-0.01,0.01l-0.02,0.01c-0.5,0.57-1.03,1.11-1.59,1.6
			c-2.3,2.02-5.07,3.4-8.08,3.96c-1.47,0.27-4,0.57-5.65-0.25c-0.59-0.29-1.07-0.72-1.36-1.34c-0.17-0.37-0.28-0.75-0.34-1.15
			l0-0.01c-0.18-1.03,0.01-2.08,0.37-3.13c0.69-1.23,1.34-2.45,1.96-3.65l0.01-0.01c0.31-0.89,0.61-1.79,0.92-2.67
			c-0.06-2.51-3.39-4-4.98-1.38c-0.57,0.93-1.1,1.88-1.59,2.87l-0.01,0.01c-0.31,0.6-0.59,1.2-0.83,1.8
			c-0.47,0.85-0.95,1.69-1.47,2.52l-0.01,0.01c-2.38,3.87-5.3,7.38-9.05,8.91c1.27-3.05,1.93-6.35,1.95-9.73
			c0.02-0.94-0.03-1.88-0.11-2.83c-0.05-0.48-0.11-0.96-0.18-1.44c-0.41-2.77-4.77-2.87-5.17-0.02
			c-0.86,6.38-5.33,11.21-10.67,13.58c-2.81,1.24-5.77,1.82-8.78,1.99c2.66-1.38,5.12-3.16,7.22-5.58c1.88-2.15,0.02-5.48-2.56-4.88
			c-1.61,0.37-3.22,0.75-4.86,1.1c-2.21,0.47-4.42,0.87-6.65,1.09l-0.02,0.01c-1.85,0.2-3.7,0.26-5.55,0.14l-0.06,0.02l-0.02-0.01
			c-0.91-0.06-1.77-0.18-2.68-0.33c-0.87-0.16-1.7-0.37-2.56-0.62l-0.01-0.01l-0.02,0.01c-2.47-0.73-4.84-1.91-6.85-3.59
			c5.67-0.49,11.21-2.34,16.21-5.38c0.7-0.42,1.09-1.18,1.22-1.99c0.08-0.54,0.04-1.11-0.11-1.63c-0.31-1.13-1.15-2.03-2.41-1.85
			c-5.79,0.77-12.85,1.78-18.51-0.76l-0.01,0l-0.01-0.01c-0.25-0.11-0.47-0.21-0.73-0.35c2.46-1.4,5.08-2.38,7.88-2.95
			c0.57-0.12,1.05-0.48,1.4-0.97c0.44-0.63,0.66-1.46,0.56-2.21c-0.19-1.5-1.24-2.45-2.6-2.57c-4.29-0.4-8.93-1-12.94-2.97
			l-0.01-0.01l-0.01,0c-1.19-0.57-2.3-1.25-3.34-2.1l-0.01-0.01c-0.11-0.08-0.2-0.15-0.3-0.23c-1.41-1.19-2.81-3.03-3.88-5.08
			c-0.4-0.75-0.76-1.55-1.06-2.34c-0.66-1.77-1.04-3.54-0.95-5.12c1.69-0.44,3.34-0.93,4.93-1.48c1.86-0.62,3.59-1.29,5.15-1.95
			l0.01,0c0.25-0.1,0.5-0.21,0.74-0.31c1.41-0.61,2.64-1.2,3.65-1.75l0.01,0c1.15-0.6,2-1.14,2.46-1.53c0.24-0.2,0.43-0.49,0.55-0.8
			c0.3-0.73,0.3-1.66,0.03-2.42c-0.13-0.36-0.32-0.68-0.58-0.92c-1.51-1.36-3.18-2.21-5.06-2.81c-1.55-0.49-3.21-0.8-4.63-1.67
			c-2.53-1.56-3.83-4.56-4.34-7.58c-0.85-5.13,1.04-10.01,3.57-14.44c0.11-0.19,0.22-0.38,0.33-0.57c0.46,0.85,1.01,1.64,1.64,2.36
			c2.39,2.69,5.8,3.99,9.04,4.92c0.45,0.12,0.87,0.27,1.32,0.38l0.01,0l0.01,0.01c6.86,1.98,13.8,3.81,20.81,4.94
			c3.72,0.59,7.45,0.83,11.19,1.23c0.33,0.04,0.67,0.07,1,0.13l0.01,0c1.25,0.17,2.46,0.45,3.66,0.88c0.79,0.28,1.53,0.64,2.26,1.05
			c0.82,0.45,1.6,0.96,2.41,1.44c0.79,0.47,1.58,0.9,2.37,1.26c1.4,0.66,2.8,1.15,4.27,1.46c1.26,0.28,2.57,0.42,3.93,0.42
			c1.26,0,2.54-0.08,3.8-0.22c1.16-0.12,2.32-0.27,3.47-0.45c1.36-0.19,2.72-0.41,4.07-0.6l0.14-0.02c0.93-0.13,1.85-0.26,2.79-0.39
			c2.19-0.3,4.37-0.6,6.55-0.89c0.96-0.13,1.93-0.27,2.9-0.39c0.86-0.13,1.7-0.24,2.56-0.36c1.46-0.19,5.14,0.81,7.49-5.39
			l0.01-0.02c0.18-0.52,0.36-1.04,0.56-1.54c0.55-1.41,1.2-2.73,2.06-3.94c2.19-3.03,5.58-4.79,8.8-6.18
			c3.77-1.64,7.72-2.98,11.28-5.18c3.78-2.35,6.49-5.64,8.12-10.05c0.85-2.29,1.51-4.53,3.09-6.36c1.51-1.73,3.32-3.09,5.04-4.53
			c6.5-5.45,10.85-13.22,12.17-21.96c0.18-1.14,0.3-2.3,0.37-3.47c0.14-2.43-0.01-4.88-0.35-7.29l-0.03-0.17
			c-0.14-0.91-0.41-1.89-0.63-2.88c-0.17-0.79-0.31-1.59-0.34-2.37c-0.03-0.62,0.03-1.23,0.2-1.81l0.07-0.21
			c1.84-6.06,6.4-8.47,10.25-7.02c4.81,1.81,9.33,5,13.57,7.91c5.18,3.54,10.88,7.19,14.69,12.51c1.81,2.53,3.25,5.38,4.88,8.05
			c1.64,2.72,3.51,5.26,5.65,7.52c4.8,5.09,10.6,8.9,16.32,12.62c2.96,1.92,5.67-3.14,2.71-5.07c-5.09-3.3-10.24-6.62-14.59-11.03
			c-2.26-2.28-4.18-4.82-5.85-7.64c-1.78-2.98-3.43-6.03-5.48-8.81c-4.07-5.5-9.86-9.57-15.41-13.07
			c-15.03-9.48-18.23-11.33,8.56-10.42c4.73,0.17,28.38,12.58,34.34,18.08c8.14,7.51,16.05,15.31,23.73,23.39
			c2.48,2.59,6.28-1.54,3.8-4.15c-7-7.37-13.01-16.4-21.59-21.39c-12.77-7.44-22.05-12.98-25.81-15.23
			c-0.3-0.18-0.12-0.67,0.22-0.58c4.23,1.17,15.02,4.57,31.79,12.8c7.63,3.75,15.54,8.61,19.21,17.25c0.61,1.43,2.49,1.79,3.65,1.06
			c1.35-0.86,1.59-2.58,0.98-4.01c-3.48-8.21-10.59-13.62-17.76-17.58c-7.55-4.17-15.55-7.5-23.69-10.04
			c-4.3-1.33-8.65-2.44-13.04-3.29c-2.1-1.17,3.09-6.25,7.84-7.24c4.41-0.92,8.82-0.63,13.18,0.46c4.11,1.02,8.22,2.44,11.99,4.52
			c4.33,2.37,7.86,5.63,11.11,9.54c3.71,4.44,7.26,9.03,10.87,13.56c2.27,2.82,6.05-1.33,3.79-4.16
			c-3.35-4.19-6.68-8.43-10.08-12.59c-3.09-3.8-6.44-7.27-10.45-9.9c-3.77-2.45-7.91-4.21-12.1-5.55
			c-4.56-1.47-9.37-2.52-14.15-2.27c-0.86,0.05-1.72,0.12-2.57,0.24l-0.01,0c-2.16,0.29-4.29,0.78-6.39,1.36
			c-2.03,0.55-4.04,1.19-6.04,1.82c-4.89,1.54-16.2,3.1-14.12,2.23c1.01-0.43,2.02-0.83,3.04-1.21c1.02-0.39,2.07-0.77,3.1-1.11
			l0.01,0c0.72-0.24,1.44-0.48,2.16-0.7c1.68-0.52,3.36-1,5.07-1.41c1.01-0.26,2.04-0.5,3.07-0.7c2.25-0.47,4.51-0.84,6.79-1.11
			l0.01,0c1.65-0.2,3.3-0.35,4.95-0.44c1.39-0.08,2.79-0.13,4.2-0.15l0.02-0.01c6.51-0.08,13.1,0.54,19.36,2.45
			c1.78,0.55,3.53,1.19,5.24,1.95c8.26,3.69,15.44,9.95,21.13,17.37c3.07,4.01,6.13,8.46,7.04,13.7c0.07,0.4,0.13,0.82,0.18,1.23
			c0.07,0.52,0.12,1.07,0.17,1.6c0.18,2.05,0.23,4.12,0.34,6.17c0.17,3.16,0.33,6.31,0.5,9.46c0.16,3.06,0.32,6.12,0.49,9.18
			c0.08,1.57,1.12,2.93,2.63,2.95c1.37,0.02,2.8-1.32,2.72-2.9c-0.34-6.39-0.67-12.8-1.01-19.2c-0.05-1-0.1-1.99-0.15-2.99
			c-0.06-1.09-0.12-2.18-0.23-3.27c-0.1-1.14-0.23-2.3-0.41-3.44c-0.33-2.01-0.92-3.94-1.71-5.77c-0.39-0.93-0.82-1.83-1.31-2.7
			c-0.5-0.91-1.02-1.8-1.57-2.68c-0.94-1.52-1.93-2.99-3-4.43c-0.31-0.42-0.62-0.82-0.94-1.23c-0.44-0.57-0.88-1.14-1.35-1.68
			l0-0.01c-1.11-1.35-2.26-2.62-3.47-3.87c-3.04-3.13-6.37-5.93-9.86-8.3c-0.17-0.12-0.35-0.23-0.54-0.35
			c-1.28-0.86-2.6-1.64-3.93-2.35c-7.53-4.07-15.72-5.99-24.21-6.55c-0.72-0.05-1.44-0.09-2.16-0.11l-0.01,0
			c-3.36-0.14-6.72-0.07-10.08,0.21l-0.01,0c-1.21,0.09-2.42,0.21-3.63,0.36l-0.01,0c-2.49,0.3-4.97,0.7-7.42,1.23l-0.01,0
			c-1.28,0.25-2.56,0.55-3.82,0.88c-0.9,0.22-1.8,0.46-2.69,0.72c0.12-0.53,0.27-1.03,0.46-1.54c0.18-0.47,0.38-0.93,0.61-1.38
			c0.48-0.92,1.08-1.79,1.83-2.65l0.08-0.08c0.62-0.69,1.26-1.35,1.94-1.96c0.8-0.77,1.63-1.47,2.5-2.12
			c1.96-1.49,4.06-2.74,6.26-3.74c1.16-0.53,2.36-1,3.58-1.4c5.48-1.83,11.38-2.33,17.01-1.62l0.01,0c1.1,0.14,2.17,0.33,3.23,0.55
			c0.7,0.15,1.41,0.32,2.09,0.51c0.15,0.04,0.3,0.08,0.44,0.13c1.33,0.36,2.64,0.8,3.92,1.29c0.13,0.05,0.25,0.09,0.38,0.14
			c0.98,0.38,1.93,0.8,2.88,1.23c1.61,0.75,3.17,1.6,4.7,2.53c0.92,0.54,1.82,1.13,2.71,1.74c1.76,1.21,3.46,2.5,5.11,3.9
			c0.75,0.64,1.48,1.29,2.2,1.96c1.68,1.54,3.29,3.18,4.8,4.89c0.42,0.46,0.83,0.92,1.23,1.4c0.23,0.27,0.46,0.54,0.69,0.82
			l0.03,0.05c0.15,0.17,0.29,0.35,0.45,0.54c0.11,0.13,0.21,0.27,0.31,0.39c0.56,0.68,1.11,1.38,1.65,2.09
			c2.48,3.24,4.76,6.68,6.61,10.38l0,0.01c0.16,0.3,0.31,0.6,0.45,0.91l0,0.01c0.28,0.58,0.55,1.17,0.8,1.78
			c0.26,0.59,0.49,1.19,0.72,1.79l0.03,0.09c0.66,1.75,1.15,3.57,1.55,5.4c0.3,1.3,0.55,2.63,0.81,3.95l0,0.01
			c0.6,3.1,1.19,6.2,2.3,9.12c0.5,1.33,1.09,2.61,1.84,3.84l0,0.01l0.11,0.18c1.25,2.03,2.01,8.9,16.71,17.71l-22.07,19.19
			c-5.55,4.82-6.49,13.62-2.11,19.67l7.25,9.98c2.72,3.76,6.87,5.54,10.95,5.21c-0.81,3.34-1.11,6.87-0.82,10.44
			c-1.03,0.83-1.75,1.71-1.94,2.58c-0.34,1.63,1.45,1.76,3.02,4.48c1.82,3.18,1.43,6.58,0.8,11.9c-0.3,2.54-0.71,3.9-1.84,5.01
			c-1.21,1.22-2.86,0.71-3.58,1.73c-0.69,0.96-0.1,2.33,0.34,2.94c1.94,2.78,8.08,0.75,8.87,0.49c2.38,3.86,4.25,6.91,6.39,7.88
			c0.47,0.21,16.99,4.71,24.65,5.91c4.33,0.67,8.69,1.16,13.06,1.41c2.89,0.15,7.36-0.72,8.76,2.85c0.65,1.65,0.76,3.56,0.83,5.34
			c0.07,2.14,0.09,4.29,0.12,6.43c0.04,4.46,0.01,8.92-0.2,13.37c-0.39,8.64-1.43,17.26-3.86,25.52
			c-2.36,8.07-5.93,16.35-12.5,21.25c-1.98,1.48-4.02,2.92-6.12,4.26c-0.32,0.21-0.64,0.42-0.96,0.62c-1.56,0.97-3.14,1.9-4.74,2.75
			c-0.8,0.42-1.61,0.83-2.43,1.19c0.63-1.85,1.13-3.67,1.67-5.36c0.47-1.47,1.15-3.62,1.58-5.6c0.46-2.12-0.16-4.33-1.59-5.84
			c-0.93-0.99-1.98-2.05-2.6-2.51l0-0.01c-0.11-1.41-0.21-2.43-0.25-2.76c-0.1-1.08-0.21-2.05-0.34-2.94
			c-0.05-0.41-0.1-0.79-0.16-1.16c-0.28-2-0.56-3.49-0.8-4.74c-0.42-2.14-0.66-3.56,0-5.42c1.27-3.62,3.97-13.8,5.05-15.82
			c1.61-3.04,2.02-3.55,5.44-8.51c0.25-0.36,0.49-0.72,0.75-1.1c2.73-4.01,5.48-8.59,5.07-13.72c-0.08-1.05-0.38-4.65-2.8-6.19
			c-2.31-1.47-5.3-0.2-6.15,0.15c-5.82,2.46-9.66,9.9-13.99,19.22l-0.01,0c-0.75,0.79-1.73,1.58-2.95,2.16
			c-3.4,1.64-6.73,0.77-8.48,0.34c-10.58-2.59-19.24-4.72-25.11-0.88c-0.78,0.5-3.54,2.31-3.92,5.32c-0.39,3.13,2.02,5.74,2.71,6.49
			c3.75,4.07,9.35,4.38,14.26,4.57c5.68,0.23,7.13-0.9,10.1,0.52c2.66,1.25,2.93,4.67,6.24,6.86c0.41,0.27,1.37,0.87,2.42,2.02
			c0.16,0.16,1.19,1.3,2,2.94c1.49,3.04,2.35,6.5,2.81,8.85c0.07,0.32,0.11,0.61,0.17,0.88c-0.1,0.09-0.2,0.18-0.31,0.27
			c-4.76,4.21-10.24,11.29-15.44,20.13c-2.53-0.77-5.06-1.53-7.6-2.31c-0.34-0.09-0.68-0.2-1.03-0.32
			c-1.13-0.34-2.28-0.68-3.42-1.03c-1.87-0.57-3.8-1.06-5.49-2.15c-1.83-1.16-3.33-2.85-4.87-4.4c-3.13-3.12-6.23-6.27-9.21-9.57
			c-5.42-5.98-10.46-12.42-14.14-19.82c18.91-14.02,28.66-39.99,22.58-65.45c-3.56-14.91-11.93-27.03-22.82-34.9l0.53,6.16
			c8.63,7.23,15.19,17.53,18.15,29.94c3.01,12.61,1.81,25.33-2.63,36.42c-0.13-2.94-0.64-6.91-1.99-12.19
			c0.57-0.5,4.98-4.53,4.12-8.54c-0.19-0.88-0.79-2.52-1.76-2.66c-1.04-0.16-1.52,1.76-2.94,1.9c-1.29,0.15-2.39-0.56-4.22-2.33
			c-3.83-3.69-6.26-6.04-7.45-10.26c-1.01-3.64-0.2-5.37-1.44-6.37c-0.96-0.76-2.47-0.52-4.12,0.23c-2.07-2.86-4.52-5.33-7.24-7.36
			l0.24-0.02c7.05-0.75,12.23-7.58,11.58-15.28l-0.29-3.49c-1.72-1.44-3.52-2.75-5.38-3.94c-11.27-7.16-25.03-9.61-38.66-5.66
			c-12.94,3.75-23.41,12.6-30.09,24.05c1.79,6.11,7.27,10.24,13.37,9.58l7.17-0.76c-8.45,9.29-12.07,23.34-8.01,36.86
			c5.16,17.22,21.67,27.64,37.93,23.89c1.09-0.24,2.17-0.56,3.24-0.91c9.16,1.44,18.5-7.21,21.68-13.12
			c3.32-6.15,3.75-9.19,3.75-9.19c0.31-2.18,0.16-4,1.23-4.61c1.16-0.66,3.22,0.41,4.2,1.97c0.61,0.97,0.71,1.95,0.76,2.69
			c0.21,2.32-0.6,3.04-0.97,5.58c-0.13,0.92-0.53,3.95,0.83,6.73c0.07,0.14,0.29,0.59,0.61,1.08c-3.61,6.11-8.29,11.47-13.85,15.71
			l-0.09,0.06c-1.44,1.11-2.95,2.13-4.51,3.05c-1.11,0.67-2.26,1.31-3.44,1.89c-2.58,1.28-5.28,2.34-8.11,3.16
			c-13.63,3.95-27.39,1.5-38.66-5.66c-11.26-7.16-19.98-19.01-23.54-33.89c-3.55-14.87-1.25-29.92,5.36-42.26
			c0.33-0.62,0.68-1.24,1.03-1.85c-0.28-0.95-0.47-1.96-0.56-2.99l-0.31-3.78c-10.6,15.15-14.59,35.56-8.8,55.33
			c4.14,14.13,12.78,25.5,23.7,32.76c-1.35-0.24-2.77-0.18-4.19,0.31c-4.32,1.45-7.1,6.3-6.38,11.17c0.97,6.5,7.28,10.25,12.89,7.44
			c3.5-1.77,5.66-5.87,5.27-10.05c-0.22-2.32-1.1-4.29-2.39-5.81c11.08,5.72,23.94,7.5,36.61,4.1c4.8-1.28,9.31-3.21,13.44-5.68
			c1.83,3.68,4.02,7.12,6.38,10.42c5.1,7.16,11.15,13.42,17.24,19.55c3.19,3.2,6.18,6.17,10.37,7.65c2.41,0.86,4.87,1.61,7.34,2.33
			c0.37,0.1,0.72,0.2,1.08,0.31c1.69,0.48,3.36,0.97,5.02,1.47l0,0.01c-0.36,0.66-0.71,1.32-1.06,1.99
			c-0.78,1.51-1.52,3.01-2.23,4.49l0.09,0.23l-0.21,0.04c-0.17,0.36-0.34,0.73-0.49,1.09l0.08,0.18l-0.19,0.04
			c-1.3,2.82-2.46,5.59-3.48,8.26c-0.17,0.45-0.34,0.9-0.49,1.33c-1.01,2.72-1.86,5.34-2.54,7.81c-0.5,1.8-0.91,3.52-1.24,5.14
			c-0.16,0.16-0.29,0.34-0.4,0.54c-0.36,0.67-0.39,1.48-0.19,2.26l0.07,0.26c0.18,0.61,0.47,1.23,0.87,1.85
			c0.28,0.45,0.62,0.9,1.01,1.34c1,1.15,2.29,2.27,3.82,3.24c1.53,0.97,3.06,1.65,4.47,2.03l0.09,0.02c0.13,0.04,0.26,0.06,0.38,0.1
			c0.54,0.12,1.04,0.19,1.52,0.21c0.62,0.04,1.2-0.02,1.71-0.17c0.16-0.04,0.31-0.1,0.45-0.17c0.53-0.24,0.97-0.61,1.26-1.14
			c0.34-0.63,0.38-1.36,0.24-2.08c3.2-3.44,6.61-7.95,9.96-13.23c0.22-0.34,0.44-0.7,0.66-1.06c0.56-0.89,1.13-1.81,1.68-2.77
			c0.23-0.38,0.46-0.77,0.68-1.18c0.42-0.71,0.83-1.44,1.24-2.2c0.23-0.41,0.46-0.82,0.69-1.25c0.44-0.82,0.88-1.65,1.31-2.49
			c1.93-3.74,3.65-7.46,5.13-11.04c0.38-0.1,0.75-0.21,1.12-0.33c3.24-1.01,6.31-2.58,9.26-4.36c0.36-0.22,0.72-0.44,1.07-0.67
			c0.63-0.38,1.26-0.77,1.87-1.18c3.73-2.44,7.64-4.88,10.77-8.23c5.61-6.04,8.91-14.76,11.06-22.88c2.19-8.28,3.15-16.9,3.52-25.47
			c0.18-4.29,0.22-8.59,0.17-12.88c-0.05-4.05,0.18-8.4-0.83-12.34c-1.12-4.41-4.01-7.27-8.19-7.85c-4-0.57-8.13-0.42-12.17-0.85
			c-8.41-0.89-16.75-2.68-24.86-5.28c-1.98-0.64-7.24-2.02-8.03-4.41c-0.53-1.6,0.69-4.1,2.05-4.82c0.13-0.07,0.25-0.12,0.37-0.16
			c6.81,4.58,15.42,5.98,23.78,2.88c12.99-4.84,20.96-19.59,18.67-34.25c-0.05-0.33-0.1-0.66-0.17-0.98
			c-0.58-3.08-1.56-5.96-2.85-8.57c-4.45-8.9-12.7-14.77-21.84-15.71l8.63-7.51c5.55-4.83,6.5-13.64,2.11-19.67l-0.1-0.13
			c1.77-0.09,3.53-0.26,5.25-0.57c2.92-0.52,5.73-1.73,7.99-3.85c2.26-2.12,3.48-5.16,5.05-7.85c1.42-2.42,3.11-4.64,5.08-6.53
			l0.02-0.01l0.01-0.01c0.25-0.24,0.48-0.48,0.75-0.71c0.1-0.08,0.2-0.1,0.28-0.13l0.13,0.47l0.02,0.08
			c0.09,1.34-0.99,2.73-1.63,3.77c-1.13,1.84,0.34,4.17,2.07,4.41c0.53,0.08,1.07-0.03,1.57-0.41c1.43-1.06,2.85-2.12,4.27-3.17
			c1.39-1.03,2.79-2.07,4.2-3.07c1.28-0.9,3.49-2.65,4.24-0.37c0.81,2.46,0.63,5.62,0.24,8.15c-0.47,2.99-1.46,5.78-2.9,8.35
			c-0.96,1.7,0.01,3.67,1.59,4.28c0.73,0.28,0.97,1.63,0.86,2.53c-0.22,1.68-1.38,3.23-2.34,4.49c-0.58,0.75-1.05,1.82-0.7,2.82
			c1.21,3.53,0.56,7.4-0.05,11.01c-0.39,2.33-1.24,6.69-3.99,7.03c-2.02,0.25-3.38,2.26-2.36,4.4c1.25,2.59,0.64,6.13-1.37,8.2
			c-1.5,1.55-3.51,2.2-3.63,4.88c-0.12,2.28,0.87,4.86,1.49,6.99c1.39,4.82,3.23,9.55,5.88,13.7c2.18,3.43,5.17,6.73,6.5,10.74
			c0.11,0.31,0.21,0.63,0.28,0.95c0.16,0.62,0.26,1.33,0.28,2.07c0.41,0.48,1.03,0.78,1.84,0.74c1.2-0.06,2.37-0.05,3.55,0.02
			c2.27,0.13,4.52,0.5,6.73,1.14c1.56,0.45,3.12,1.01,4.6,1.7c1.11,0.51,2.9,1.12,3.63,2.26c-0.05,0.05-0.12,0.11-0.22,0.19
			c-0.76,0.56-1.44,1.53-2.1,2.23c-1.47,1.56-2.95,3.11-4.41,4.68c-1.17,1.23-2.35,2.52-2.74,4.3c-0.53,2.39,0.78,4.53,2.79,5.36
			c1.25,0.53,2.54,0.67,3.72,1.41c1.2,0.76,2.21,1.84,2.9,3.15c1.4,2.6,1.34,5.96-0.05,8.58c-1.45,2.72-3.86,4.68-4.76,7.76
			c-1.1,3.72,0.66,7.05,3.57,8.94c1.21,0.79,2.59,1.32,3.73,2.22l0.22,0.18c0.93,0.79,3.39,4.07,4.08,5.35L487.26,325.58z
			 M447.69,464.23c-1.18,0.62-3.13,1.82-3.87,0.14c-0.91-2.09-1.41-4.32-2.52-6.34c0.84-1.79,1.46-3.68,1.79-5.67
			c0.58-3.6,0.32-7.28,0.23-10.9c-0.09-3.71-0.18-7.43-0.27-11.14c-0.21-8.71-0.47-18.12-3.03-26.39c3.07,0.41,6.12,1.08,9.23,0.69
			c8.07-1.02,12.3-9.25,14.86-17.32c0.62,0.9,1.28,1.78,1.94,2.67c2.93,3.89,5.5,7.85,6.73,12.78c1.19,4.81,1.3,9.91,0.65,14.83
			c-1.3,9.67-5.16,19.13-9.43,27.66C460.15,452.93,455.12,460.36,447.69,464.23z M381.19,484.06c-1.25,0.22-2.67-0.18-3.91-0.38
			c-1.65-0.27-3.3-0.54-4.94-0.8c-3.21-0.53-6.42-1.05-9.64-1.58c-6.47-1.05-12.96-2-19.39-3.26c-11.11-2.2-21.85-6.14-31.82-11.91
			c-10.79-6.26-20-14.78-29.37-23.27c-2.7-2.46-5.45-4.89-8.12-7.39c-2.28-2.13-4.56-4.46-5.58-7.63
			c-1.13-3.59-1.31-7.55-1.75-11.29c-0.06-0.49-0.11-0.98-0.17-1.47c0.64-0.08,1.28-0.18,1.91-0.3c-0.35-1.95,0.75-3.91,2.53-4.42
			c1.87-0.54,3.76,0.68,4.24,2.7l0.03,0.16c0.29-0.07,0.59-0.13,0.88-0.2c8.97-1.9,18.63-0.6,26.88,3.63
			c4.53,2.31,8.48,5.62,12.66,8.55c4.14,2.91,8.59,5.16,13.47,6.1c9.96,1.91,20.1-0.33,29.98-1.93c4.96-0.81,9.93-1.57,14.91-2.35
			c-0.42,2.19-0.56,4.45-0.46,6.67c0.16,3.46,0.76,6.86,1.48,10.23c0.73,3.43,1.54,6.85,2.69,10.14c2.25,6.5,5.76,11.73,10.68,16.11
			c0.15,0.14,0.31,0.28,0.48,0.42c-0.85,2.75-1.53,5.61-2.66,8.22C385.22,481.03,383.62,483.63,381.19,484.06z M181.93,337.35
			c-0.83-0.15-1.58,0.49-1.98,1.23c-4.28,7.95-8.88,15.9-14.83,22.48c-0.57,0.08-1.13,0.17-1.7,0.26c-2.09,0.33-4.18,0.64-6.28,0.95
			c-1.81,0.27-3.62,0.52-5.44,0.77c-8.06,1.09-16.13,1.94-24.24,2.35c-1.53,0.08-3.07,0.14-4.6,0.18c-1.77,0.05-3.54,0.07-5.31,0.08
			c-2.69,0-5.38-0.06-8.05-0.22c-0.99-0.05-1.97-0.12-2.94-0.21c6.14-0.6,12.21-1.72,18.14-3.95c14.41-5.45,26.46-16.37,36.63-28.53
			c5.9-7.07,11.28-14.65,16.66-22.22c1.28-1.81-1.38-1.9-2.24-0.69c-9.07,12.78-18.24,25.75-29.86,35.93
			c-5.68,4.96-11.9,9.23-18.67,12.18c-7,3.06-14.43,4.43-21.91,4.99c-2.98,0.22-5.97,0.35-8.94,0.43c-1.08-0.32-2.17-0.69-3.23-1.11
			c-5.13-2.01-9.82-5.23-14.25-8.65c-1.59-1.23-3.16-2.5-4.7-3.79c11.35-2.54,22.57-5.87,33.54-9.99
			c7.32-2.75,14.83-5.57,21.62-9.68c6.24-3.77,11-8.96,14.82-15.51c0.66-1.13,1.29-2.29,1.9-3.44c0.43,0.45,1.02,0.75,1.76,0.82
			c2.44,0.21,4.68-0.16,6.74-0.98c-2.45,3.66-5.28,7.05-8.35,10.1c-7.19,7.17-15.52,12.76-24.1,17.69
			c-4.92,2.83-9.94,5.44-14.95,8.03c-0.54,0.28-1.51,0.87-1.41,1.68c0.09,0.76,1.05,0.7,1.53,0.45
			c18.32-9.46,37.66-19.65,49.93-38.02c0.49-0.72,0.96-1.46,1.41-2.22l0.01,0c1.75-1.29,3.34-2.91,4.79-4.72
			c0.52,1.07,1.2,1.94,2.01,2.61l0,0.01c-1.32,3.49-2.77,6.9-4.54,10.14c-6.64,12.17-17.11,21.11-28.2,28.07
			c-6.93,4.34-14.19,8.03-21.43,11.7c-0.51,0.26-1.52,0.85-1.44,1.63c0.09,0.75,1.05,0.59,1.49,0.37
			c12.92-6.55,26.04-13.21,37.1-23.23c5-4.53,9.54-9.68,13.22-15.55c2.33-3.74,4.19-7.75,5.82-11.87c1.95,0.87,4.23,1.09,6.42,0.93
			c2.28-0.16,4.52-0.73,6.66-1.64c0.9,6.31-0.88,12.6-2.83,18.51c-2.16,6.54-4.79,12.9-7.83,19.02c-0.36,0.73,0.12,1.44,0.81,1.54
			c0.8,0.12,1.61-0.5,1.98-1.24c3.18-6.44,5.93-13.12,8.15-20.03c1.99-6.19,3.71-12.74,2.66-19.31c0.42-0.27,0.85-0.55,1.26-0.85
			c1.31,4.92,2.41,9.9,2.86,15c0.54,6.05,0.49,13.28-3.24,18.23c-0.4,0.54-0.53,1.31,0.17,1.59c0.69,0.28,1.66-0.29,2.09-0.86
			c3.99-5.29,4.47-12.5,4.02-19.09c-0.33-4.63-1.2-9.17-2.33-13.64c1.46,1.29,3.32,2.07,5.35,2.17c1.7,0.09,3.27-0.22,4.7-0.84
			c0.03,4.02-0.31,8.05-0.83,12.03c-0.73,5.61-1.66,11.26-2.82,16.78c-1.64,7.8-5.23,14.82-9.18,21.56l-0.01,0
			c-5.5,0.89-11.01,1.78-16.51,2.65c5.38-6.46,9.68-13.97,13.74-21.49C183.15,338.21,182.59,337.46,181.93,337.35z M141.28,394.45
			c-0.17-0.11-0.33-0.22-0.5-0.33c0.39-2.05,1.11-4.03,2.5-5.44c2.24-2.26,6.38-2.67,9.29-2.95c1.37-0.13,2.74-0.16,4.12-0.07
			C152.1,389.73,146.89,392.92,141.28,394.45z M138.39,392.44c-1.24-0.91-2.42-1.88-3.55-2.93c2.32-3.7,5.66-6.61,9.55-8.08
			c3.29-1.24,6.83-1.4,10.21-0.64c0.29,0.71,0.6,1.41,0.93,2.09c-1.24,0.01-2.48,0.1-3.7,0.27c-3.63,0.49-7.9,1.35-10.62,4.24
			C139.88,388.82,138.97,390.57,138.39,392.44z M131.93,380.47c3.59-2.29,7.58-3.67,11.57-4.77c2.76-0.77,5.88-1.56,8.96-1.8
			c0.23,1.11,0.52,2.21,0.84,3.28l0.14,0.43c-3.29-0.34-6.65,0.08-9.8,1.34c-4.29,1.72-7.98,4.8-10.67,8.75
			c-1.46-1.52-2.83-3.17-4.05-4.96C129.86,381.91,130.87,381.15,131.93,380.47z M127.98,381.33c-1.05-1.64-1.97-3.41-2.76-5.28
			c-0.63-1.49-1.14-3.03-1.53-4.61c7.16-0.24,14.3-0.88,21.39-1.72c2.21-0.25,4.43-0.53,6.63-0.85c0.08,0.99,0.2,1.99,0.34,2.97
			c-1.91,0.26-3.79,0.68-5.58,1.12C140.02,374.61,133.33,376.9,127.98,381.33z M120.71,320.14c-0.58-0.51-1.56,0.09-2.04,0.46
			c-19.54,14.96-45.03,12.86-67.04,7.37c-0.43-0.1-0.86-0.22-1.3-0.33l0-0.01c-2.92-3.12-5.72-6.33-8.4-9.69
			c-0.32-0.4-0.64-0.82-0.96-1.22c2.37,0.31,4.74,0.52,7.12,0.69c6.76,0.47,13.56,0.42,20.32-0.11c13.65-1.07,27.2-4.2,40.1-9.23
			c2.81-1.09,5.58-2.28,8.32-3.56c0.87,0.07,1.74,0.1,2.61,0.1c-1.47,0.37-2.96,0.68-4.42,0.99c-2.52,0.54-2.65,5.17-0.05,5.65
			c8.62,1.58,17.83,2.73,26.15-1.06c1.57-0.71,3.09-1.61,4.52-2.68c-0.15,0.29-0.26,0.58-0.32,0.88l0,0.01
			c-0.48,0.89-0.97,1.79-1.45,2.69c-3.52,6.65-7.4,12.78-13.52,16.84c-6.25,4.15-13.39,6.79-20.27,9.42
			c-7.31,2.8-14.72,5.25-22.24,7.34c-5.07,1.42-10.19,2.66-15.33,3.74c-2.18-1.85-4.34-3.73-6.47-5.62
			c-4.16-3.68-8.25-7.49-12.18-11.48c16.05,3.59,32.42,5.04,48.47-0.11c6.41-2.05,12.47-5.19,17.95-9.38
			C120.76,321.5,121.26,320.62,120.71,320.14z M79.45,306.28c-0.53-0.44-1.58,0.25-1.98,0.56c-4.16,3.2-9.64,3.21-14.48,2.71
			c-4.85-0.52-9.7-1.49-14.45-2.67c-6.07-1.49-12.04-3.44-17.88-5.82c-2.46-4.46-4.63-9.12-6.45-13.96
			c-1.19-3.17-2.24-6.4-3.16-9.68c5.42,2.61,11.21,4.48,16.77,6.21c8.66,2.7,17.51,4.65,26.44,5.87
			c10.82,1.47,21.77,1.86,32.67,1.14c-0.17,0.72-0.11,1.49,0.26,2.16c1.43,2.57,3.33,4.73,5.53,6.46
			c-11.62,1.35-23.36,1.25-35.04-0.81c-3.91-0.68-7.79-1.59-11.62-2.73c-2.02-0.6-4.03-1.26-6.02-1.99
			c-0.66-0.25-4.58-1.56-3.62-2.92c0.42-0.58,0.05-1.03-0.53-1.02c-0.75,0.01-1.54,0.61-1.98,1.24c-2.25,3.17,3.48,4.72,5.2,5.34
			c3.55,1.26,7.16,2.3,10.8,3.16c7.41,1.72,14.96,2.62,22.54,2.85c7.63,0.23,15.27-0.27,22.84-1.35l0.01,0.01
			c2.22,1.32,4.62,2.25,7.09,2.81c-18.95,8.12-39.41,11.92-59.73,11.03c-3.7-0.16-7.37-0.48-11.03-0.95
			c-1.03-0.14-2.06-0.26-3.08-0.44l0-0.01c-2-2.75-3.88-5.58-5.65-8.51c2.82,1.03,5.68,1.97,8.56,2.8c4.03,1.17,8.12,2.13,12.24,2.9
			c4.07,0.76,8.2,1.42,12.33,1.36c4.62-0.08,9.09-1.32,12.91-4.25C79.31,307.5,79.98,306.72,79.45,306.28z M52.06,197.83
			c3,4.08,6.65,7.31,10.58,10.26c4.44,3.36,8.91,6.65,13.37,9.97c0.82,0.61,3.42-1.38,2.5-2.04c-3.94-2.93-7.86-5.86-11.79-8.79
			c-3.52-2.62-7.01-5.28-9.93-8.7c-5.56-6.5-9.22-14.79-11.16-23.4c-2.2-9.76-2.27-20-1.43-29.99c0.81-9.64,2.49-19.19,4.66-28.58
			c0.53-2.31,1.08-4.61,1.68-6.9C60.2,99.27,71.67,90.79,84.58,86.4c-7.62,10.54-14.01,22.15-18.9,34.49
			c-3.4,8.59-6,17.61-7.06,26.9c-1.07,9.26-0.4,18.62,1.9,27.59c2.62,10.23,7.35,19.74,13.82,27.68c0.81,0.99,3.48-0.91,2.79-1.75
			c-11.18-13.69-17.1-32.14-15.98-50.52c1.11-18.45,8.66-36.32,17.67-51.74c2.76-4.73,5.76-9.29,8.98-13.64l0.01,0
			c0.3-0.09,0.6-0.17,0.9-0.25c5.83-1.54,11.79-2.69,17.71-3.67c1.18-0.2,2.37-0.37,3.56-0.51c-10.65,10.63-20.66,22.31-25.7,37.29
			c-3.38,10.01-4.44,20.88-4.58,31.47c-0.13,11.28,1.91,22.06,6.12,32.34c4.74,11.55,11.48,21.96,18.19,32.21
			c0.79,1.21,3.55-0.59,2.8-1.75c-5.8-8.86-11.6-17.81-16.15-27.54c-4.54-9.75-7.5-20.11-7.94-31.1
			c-0.41-10.49,0.41-21.4,3.07-31.53c2.43-9.27,6.88-17.58,12.48-25c4.59-6.06,9.78-11.52,15.13-16.77
			c3.59-0.35,7.2-0.48,10.81-0.34c2.91,0.11,5.8,0.38,8.67,0.76c-10.79,16.45-18.58,35.2-22.77,54.91
			c-1.22,5.78-2.13,11.64-2.74,17.53c-0.19,1.9,2.8,0.95,2.94-0.49c2.08-20.3,7.92-40.06,17.14-57.86
			c2.45-4.74,5.13-9.31,8.04-13.71c7.7,1.21,15.29,3.22,22.81,5.33c0.7,0.2,1.41,0.39,2.11,0.6c-5.56,4.57-9.93,10.94-13.51,17.36
			c-4.6,8.22-7.98,17.19-10.01,26.56c-1.18,5.4-1.89,10.9-2.13,16.43c-0.08,2.02,2.94,1.25,3.01-0.38
			c0.79-18.39,6.88-36.78,17.68-51.06c2.34-3.07,4.97-5.87,7.99-8.07c2.89,0.82,5.77,1.68,8.63,2.6
			c-12.04,14.8-21.18,32.23-27.66,50.7c-3.73,10.62-6.8,21.6-7.75,32.96c-0.92,11.09,0.02,22.31,2.33,33.12
			c1.47,6.86,3.47,13.58,5.95,20.09c-0.67-0.36-1.37-0.68-2.1-0.94c-1.73-0.61-3.53-0.94-5.33-1.14
			c-11.3-16.64-16-38.01-16.42-58.74c-0.16-7.77,0.25-15.53,0.98-23.26c0.19-1.95-2.83-1.12-2.98,0.43
			c-2.56,26.79-0.83,55.25,12.61,78.53c0.53,0.91,1.06,1.81,1.63,2.68c-0.22-0.02-0.43-0.03-0.65-0.05
			c-3.02-0.25-6.02-0.7-8.99-1.28c-11.56-13.42-16.03-32.09-18.22-49.96c-2.35-19.19-2.11-39,2.91-57.73
			c2.63-9.81,6.58-19.18,11.9-27.61c0.42-0.67-0.63-0.51-0.89-0.42c-0.69,0.22-1.4,0.73-1.81,1.38c-9.64,15.3-14.65,33.55-16,51.92
			c-0.73,10.1-0.41,20.29,0.65,30.34c0.99,9.33,2.49,18.66,5.14,27.6c2.51,8.45,6.12,16.52,11.26,23.37
			c-2.42-0.55-4.85-1.18-7.25-1.83c-3.42-0.93-7.15-1.59-10.39-3.18c-2.42-1.18-5.13-3.74-4.19-6.97c0.4-1.37-0.35-2.94-1.54-3.46
			c-1.31-0.58-2.54,0-3.34,1.21c-0.41,0.61-0.8,1.23-1.21,1.84c-6.02-8.89-9.99-19.44-11.22-30.56c-0.2-1.77-3.17-0.47-2.99,1.11
			c1.31,11.85,5.65,23.13,12.3,32.52c-3.59,6.07-6.33,12.7-5.25,20.15c0.34,2.31,1.09,4.57,2.23,6.55
			c-7.26-3.01-14.18-6.95-20.59-11.75c-18.21-13.64-31.01-34.03-40.63-55.44c-1.78-3.98-3.48-8.02-4.95-12.16
			c1.44-4.71,3.19-9.3,5.29-13.72c2.65-5.58,5.82-10.81,9.2-15.87c2.86-4.31,5.5-8.2,8.45-12.08c1.41-1.86,2.87-3.67,4.38-5.45
			c-2.34,9.63-4.25,19.38-5.3,29.29C39.65,161.77,40.78,182.54,52.06,197.83z M164.79,175.58c0.1,1.12,2.97-0.34,2.87-1.34
			c-2.28-25.63-1.66-54.99,16.13-74.54c0.98-1.08,2.02-2.12,3.09-3.08c1.22,0.59,2.41,1.22,3.6,1.89
			c8.49,4.79,16.16,11.06,23.04,18.27c0.8,0.83,1.57,1.67,2.34,2.54c-8.68,1.53-16.95,5.22-23.68,11.65
			c-6.58,6.3-10.96,14.61-14.33,23.31c-1.65,4.3-3.08,8.69-4.67,13.01c-0.2,0.53,1.16-0.07,1.23-0.12c0.52-0.26,1.34-0.71,1.57-1.35
			c2.71-7.35,5-14.9,8.55-21.83c4.11-8.01,9.79-15.08,17.48-19.04c4.75-2.44,9.9-3.69,15.1-4.23c0.32,0.35,0.64,0.72,0.96,1.09
			c0.24,0.41,0.47,0.83,0.72,1.24c-14.7,9.04-27.48,21.61-36.15,37.57c-8.53,15.73-12.77,33.67-14.22,51.74
			c-0.49,6.15-0.68,12.34-0.6,18.51l-0.01,0c-2.22,0.32-4.43,0.62-6.65,0.89l-0.13,0.01c-1.1,0.14-2.21,0.25-3.32,0.31
			c-2.07,0.09-4.16-0.06-6.14-0.83c-0.74-0.29-1.46-0.64-2.16-1.03c-6.81-16.44-10.82-34.37-10.12-52.52
			c0.43-11.3,3.07-22.16,6.55-32.78c3.26-9.97,7.27-19.63,12.11-28.8c4.63-8.81,10.02-17.1,16.19-24.7
			c2.21,0.75,4.39,1.54,6.55,2.42c0.64,0.25,1.26,0.52,1.88,0.78c0.96,0.41,1.92,0.85,2.87,1.3c-4.67,4.2-8.65,9.35-11.83,15.06
			c-6.63,11.91-9.27,25.83-9.75,39.61C163.59,158.95,164.05,167.29,164.79,175.58z M181.1,184.39c7.58-18.6,15.82-38.77,32.1-50.22
			c2.89-2.04,5.97-3.73,9.2-4.96c0.14,0.24,0.28,0.48,0.42,0.71c2.38,4.1,4.79,8.18,7.14,12.29c0.91,1.6,1.82,3.22,2.7,4.85
			c-7.18,3.51-14.26,7.34-20.76,12.21c-7.42,5.54-13.78,12.39-18.82,20.54c-9.1,14.73-13.42,32.16-15.14,49.66
			c-1.83,0.25-3.67,0.51-5.5,0.75c-0.57,0.08-1.13,0.16-1.69,0.24c-0.2-13.98,0.81-28.02,3.95-41.61
			c4.03-17.48,11.73-33.78,23.4-46.67c6.37-7.03,13.69-12.86,21.57-17.68c0.53,0.9,1.05,1.8,1.58,2.7
			c-16.34,6.69-27.67,23.09-35.47,39.78c-2.64,5.65-5,11.44-7.38,17.23C177.6,186.17,180.55,185.74,181.1,184.39z M285.48,59.37
			c0.46,1.66,3.36,0.25,2.97-1.15c-2.83-10.14-3.45-20.89-1.95-31.29l0.01,0c5.01-2.42,10.15-4.5,15.4-6.19
			c-2.14,6.28-4.04,12.64-5.61,19.08c-3.18,13.08-4.28,27,0.04,39.88c1.81,5.41,4.57,10.42,8.28,14.49
			c-3.07,0.59-6.07,1.52-8.96,2.79c-3.7-3.28-7.12-6.94-10.25-10.87c-3.99-4.99-7.75-10.45-10.62-16.29
			c-3.28-6.68-4.19-13.83-3.46-21.35c0.48-4.98,1.46-9.88,2.88-14.64c2.27-1.52,4.62-2.91,7.06-4.22c0.71-0.37,1.43-0.75,2.15-1.13
			C282.04,38.77,282.7,49.38,285.48,59.37z M406.6,213.4c4.89-0.28,9.62,1.04,13.7,3.63c4.78,3.05,8.63,7.83,10.67,13.8
			c0.31,0.88,0.57,1.78,0.79,2.72c1.36,5.68,0.96,11.39-0.83,16.49c-0.48,1.41-1.09,2.78-1.78,4.1c-1.1,2.06-2.46,3.98-4.03,5.67
			c-2.99,3.22-6.77,5.68-11.13,6.94c-6.64,1.93-13.34,0.74-18.83-2.75c-1.78-1.14-3.44-2.51-4.91-4.09
			c-3.07-3.3-5.4-7.52-6.56-12.41c-1.26-5.29-1.01-10.62,0.5-15.46c1.21-0.51,2.38-1.22,3.45-2.15L406.6,213.4z M380.07,164.54
			c6.41,1.89,12.98,3.18,19.6,3.88c-1.29,0.49-2.52,1.24-3.65,2.22l-2.91,2.52C388.53,170.58,384,168.01,380.07,164.54z
			 M394.76,165.38c-6.33-1.09-12.58-2.75-18.65-4.93l-0.08-0.04l0.07,0.02l0.02,0.01l0-0.01l-0.01,0c-0.17-0.2-0.34-0.4-0.5-0.62
			c-2.05-2.67-3.16-5.73-3.95-8.94c1.48,0.63,2.96,1.23,4.47,1.78c8.28,3.03,16.97,5.01,25.57,6.71c4.04,0.8,8.11,1.18,12.19,0.41
			c4.41-0.83,8.66-2.73,12.79-4.57c7.02-3.11,13.9-6.67,20.56-10.61c0.24,4.31,0.33,8.64,0.23,12.95c-1.18-0.5-2.54-0.53-3.9,0.09
			c-2.71,1.23-4.92,4.26-6.69,6.74C423.04,167.47,408.72,167.78,394.76,165.38z M435.54,166.34c-0.5,0.8-0.97,1.6-1.41,2.43
			c-0.72,1.33-1.36,2.78-2.26,4c-3.37,4.6-9.96,4.19-14.97,4.04l-0.01,0l-2.87-3.97c-1.21-1.66-2.7-2.94-4.32-3.81
			c3.66,0.05,7.32-0.07,10.97-0.37C425.67,168.23,430.64,167.46,435.54,166.34z M430.06,151.61c-3.91,1.82-7.88,3.69-11.97,4.98
			c-4.26,1.34-8.42,1.49-12.77,0.74c-8.09-1.38-16.28-3.38-24.12-5.95c-3.53-1.16-6.99-2.54-10.34-4.16
			c-0.38-1.97-0.75-3.96-1.2-5.92c0.92,0.35,1.84,0.7,2.76,1.03c7.54,2.71,15.33,5.34,23.19,6.69c8.35,1.43,16.38,0.32,24.48-2.18
			c7.64-2.35,15.26-5.14,22.5-8.75c1.34-0.67,2.65-1.36,3.96-2.1c0.23,2.18,0.42,4.36,0.56,6.56
			C441.56,145.87,435.88,148.9,430.06,151.61z M422.87,143.67c-7.86,2.62-15.79,4.29-24,3.12c-7.51-1.06-14.91-3.6-22.12-6.04
			c-2.74-0.94-5.46-1.94-8.14-3.08c-0.06-0.19-0.12-0.36-0.19-0.55c-0.2-0.56-0.41-1.11-0.64-1.65l0.52-0.15l0.21,0.06
			c4.33,1.02,8.86,1.41,13.27,1.92c9.92,1.14,19.84,1.34,29.72-0.6c11.69-2.31,22.8-7.03,33.15-13.31
			c0.66,3.45,1.21,6.92,1.63,10.41C438.88,138.05,430.76,141.05,422.87,143.67z M442.62,123.26c-8.36,4.88-17.31,8.66-26.59,10.83
			c-9.36,2.19-18.81,2.47-28.31,1.57c-4.76-0.45-9.57-0.96-14.3-1.79c1.8-0.52,3.59-1.05,5.39-1.6c7.47-2.31,14.9-4.98,21.92-8.67
			c6.71-3.51,13.03-7.93,18.45-13.54c5.22-5.39,9.55-11.69,13.34-18.35c0.55-0.97,1.08-1.93,1.6-2.91
			c4.05,9.26,7.13,19.02,9.39,29.04c0.32,1.44,0.63,2.88,0.91,4.33C443.83,122.55,443.23,122.91,442.62,123.26z M419.98,106.95
			c-9.98,11.76-23.48,18.02-37.28,22.49c-3.92,1.27-7.86,2.41-11.81,3.53l-0.75,0.22c-1.47-0.41-2.91-0.96-4.18-1.78l0-0.01
			c-1.28-2.57-2.73-5.01-4.3-7.36c17.42-0.09,35.17-7.68,46.31-22.64c3.36-4.52,5.95-9.69,7.46-15.27c0.36-1.35-2.49-0.08-2.74,0.86
			c-5.39,19.9-23.41,31.82-41.41,34.35c-3.71,0.53-7.44,0.67-11.16,0.47c-0.49-0.68-0.99-1.35-1.5-2.01
			c4.6-0.67,9.22-1.57,13.56-3.35c5.39-2.2,9.97-6.04,14.15-10.3c4.55-4.63,8.92-9.49,13.37-14.25c5.14-5.51,10.3-11.02,15.44-16.53
			c1.51-1.61-0.48-2.68-1.7-1.37c-8.74,9.34-17.45,18.72-26.19,28.04c-3.92,4.16-7.97,8.34-12.92,11
			c-5.22,2.81-11.24,3.65-16.95,4.47c-0.17,0.03-0.33,0.05-0.5,0.07c-0.12-0.15-0.24-0.3-0.36-0.45c-0.33-0.4-0.65-0.79-0.99-1.18
			c8.92-18.23,22.59-33.64,39.08-43.86c5.21-3.24,10.7-5.92,16.37-8.04c0.54-0.2,1.64-0.72,1.81-1.39c0.17-0.67-0.42-0.6-0.88-0.43
			c-21.27,7.94-40.03,23.45-52.88,43.61c-1.76,2.75-3.4,5.59-4.9,8.51c-2.04-2.31-4.22-4.5-6.53-6.52
			c3.91-10.09,8.22-20.03,14.01-28.98c7.92-12.26,18.68-21.61,31.37-27.32c4.15-1.87,8.43-3.36,12.78-4.49
			c6.86,6.86,12.97,14.65,18.31,22.93c3.4,5.28,6.4,10.82,9.02,16.56C429.39,93.81,425.2,100.81,419.98,106.95z M376.15,58.82
			c-11.42,9.01-19.51,21.64-25.75,35.27c-1.79,3.89-3.42,7.85-5,11.85c-2.13-1.74-4.36-3.34-6.68-4.77
			c2.2-17.16,9.49-33.49,20.52-45.99c3.65-4.14,7.71-7.86,12.11-11.01c0.42-0.3,1.33-1.02,0.98-1.68c-0.33-0.63-1.42-0.2-1.82,0.07
			c-16.44,11.78-28.51,30.37-33.22,51.23c-0.43,1.94-0.81,3.9-1.12,5.88c-1.7-0.96-3.45-1.81-5.23-2.56
			c0.77-12.96,3.51-25.77,8.33-37.68c6.01-14.84,15.39-27.91,27.34-37.55c9.01,3.17,17.54,7.68,25.52,13.48
			c0.33,0.24,0.67,0.47,0.99,0.72c0.71,0.53,1.42,1.08,2.13,1.62c2.89,2.25,5.65,4.65,8.32,7.19
			C393.78,47.71,384.41,52.3,376.15,58.82z M353.48,18.21c3.77,0.77,7.5,1.78,11.17,2.99c-4.5,3.67-8.68,7.83-12.46,12.38
			c-10.97,13.22-18.32,29.63-21.85,46.98c-1.04,5.1-1.76,10.28-2.15,15.49c-0.98-0.34-1.96-0.65-2.96-0.93
			c-2.04-8.66-1.79-18.25-0.68-26.96c1.96-15.53,5.75-31.84,15.35-43.99c2.09-2.64,4.41-5.04,6.96-7.08c0.4,0.04,0.8,0.11,1.2,0.16
			l0.22,0.03l0.05,0.01l0.03,0l0.08,0.01c0.17,0.02,0.35,0.06,0.53,0.08c0.5,0.08,1.01,0.18,1.5,0.27
			C351.48,17.81,352.48,18,353.48,18.21z M328.59,40.13c-3.07,7.71-4.92,15.93-6.2,24.18c-1.4,9.07-2.33,18.4-0.99,27.53
			c0.12,0.81,0.27,1.63,0.42,2.44c-1.55-0.31-3.12-0.55-4.7-0.69c-3.71-4.85-6.75-10.21-8.21-16.34
			c-1.52-6.36-0.69-12.69,0.44-19.05c1.12-6.31,2.54-12.58,4.24-18.73c1.94-6.97,4.27-13.8,6.93-20.48c0.8-2-2.19-1.84-2.8-0.34
			c-4.89,12.25-8.6,25.05-11.04,38.12c-1.2,6.44-2.33,13.08-1.18,19.63c1.1,6.22,3.93,11.9,7.42,16.89l0.07,0.09
			c-1.45,0-2.91,0.06-4.35,0.21c-8.25-7.96-11.99-20.19-12.2-32.04c-0.24-14.09,4.01-27.83,8.45-40.88
			c0.11-0.32,0.22-0.65,0.33-0.97c0.63-0.18,1.26-0.37,1.9-0.53c11.64-3.1,23.58-3.76,35.46-2.63c0.69,0.07,1.39,0.14,2.07,0.22
			C337.62,22.82,332.15,31.17,328.59,40.13z M270.47,68.09c2.52,6.51,6.56,12.45,10.67,17.87c3.44,4.54,7.2,8.81,11.34,12.59
			c-2.48,1.37-4.84,3.02-7.02,4.97c-2.12-1.2-4.17-2.55-6.16-4.09c-11.51-8.86-19.98-22.21-24-36.94c-0.76-2.8-1.35-5.64-1.76-8.54
			c2.4-3.17,4.94-6.21,7.63-9.08c2.96-3.17,6.1-5.97,9.43-8.49c-0.84,3.22-1.49,6.48-1.94,9.79
			C267.65,53.58,267.78,61.12,270.47,68.09z M260.2,82.49c3.85,6.51,8.69,12.34,14.28,17.11c2.75,2.36,5.67,4.38,8.73,6.12
			c-0.91,0.97-1.76,2.01-2.49,3.12c-9.16-2.81-18-7.02-24.37-15.03c-4.31-5.44-7.29-12.06-8.57-19.13
			c-0.31-1.66-3.23-0.27-2.97,1.16c2.33,12.83,9.89,23.71,20.44,29.81c4.42,2.56,9.15,4.42,13.98,5.91
			c-0.11,0.27-0.23,0.56-0.33,0.85c-7.03-2.99-13.85-6.58-20.37-10.73c-5.24-3.35-10.28-7.06-15.1-11.09
			c-1.03-0.86-3.61,1.2-2.42,2.2c11.28,9.44,23.83,17.05,37.11,22.57l-0.05,0.29c-0.1,0.72-0.19,1.44-0.24,2.18
			c-1.77,0.63-3.53,1.33-5.27,2.07c-14.08-2.11-27.55-8.13-36.98-20.31c-1.54-2-2.94-4.14-4.15-6.38c0.56-1.31,1.14-2.63,1.74-3.93
			c5.05-11.03,10.85-21.99,17.83-31.86C252.54,66.32,255.7,74.88,260.2,82.49z M241.97,110.51c7.84,6.1,17.08,9.61,26.55,11.23
			c-4.38,2.13-8.62,4.59-12.66,7.4c-0.35,0.25-0.7,0.49-1.05,0.75c0.29-0.35,0.4-0.68,0.15-0.83c-7.29-3.92-14.61-8.28-20.37-14.65
			c-2.95-3.26-5.47-7.08-7.18-11.27c0.77-2.06,1.58-4.11,2.41-6.13C233.04,102.27,237.22,106.82,241.97,110.51z M231.79,116.16
			c5.85,6.48,13.22,10.92,20.63,14.9c0.22,0.12,0.53,0.08,0.86-0.07c-1.29,0.97-2.57,1.95-3.82,2.98c-1.29,1.08-2.56,2.17-3.81,3.32
			c-0.28,0.25-0.56,0.5-0.82,0.77c-0.33,0.29-0.65,0.59-0.96,0.89c-1.54,1.48-3.25,3.05-4.74,4.81c-0.25,0.29-0.5,0.59-0.74,0.91
			c-0.16,0.19-0.32,0.41-0.48,0.64c-0.1-0.2-0.21-0.4-0.31-0.6c-1.14-2.17-2.35-4.3-3.56-6.41c-2.08-3.61-4.17-7.18-6.27-10.77
			c-0.41-0.7-0.82-1.39-1.23-2.1l-0.1-0.18c-0.69-1.19-1.39-2.39-2.08-3.58c-0.26-0.46-0.53-0.9-0.8-1.35
			c-0.27-0.47-0.53-0.92-0.81-1.39l-0.13-0.24l-0.09-0.17c-0.07-0.12-0.15-0.25-0.22-0.37c1.07-3.59,2.24-7.14,3.49-10.67
			C227.41,110.67,229.46,113.58,231.79,116.16z M193.12,208.76c3.96-17.49,12.89-35.07,27.34-44.64c4.69-3.1,10.11-5.31,15.56-5.67
			c0.13,0.62,0.25,1.23,0.33,1.85c0.32,2.23,0.31,4.53,0.11,6.78c-0.42,4.6-1.98,9.07-4.3,12.93c-2.57,4.24-6.26,6.82-9.77,10
			c-1.91,1.74-3.6,3.81-4.67,6.3c-0.98,2.29-1.52,4.81-2.86,6.91c-1.97,3.11-5.41,4.9-8.59,6.29c-3.86,1.69-7.88,3.04-11.51,5.29
			c-1.15,0.72-2.21,1.51-3.19,2.41C191.97,214.37,192.49,211.55,193.12,208.76z M188.16,221.26l-0.01,0.01
			c-0.63,0.96-1.16,1.98-1.62,3.09c-0.73,1.74-1.28,3.54-1.84,5.33c-2.31-0.55-1.56-0.37-3.86-0.91c0.63-6.56,1.62-13.03,3.13-19.44
			c4.21-17.89,12.53-34.71,26.18-46.06c7.18-5.95,15.27-10.37,23.49-14.34c0.22,0.43,0.44,0.85,0.65,1.29
			c0.57,1.14,0.87,2.42,0.97,3.72c0.05,0.6,0.15,1.22,0.25,1.82c-4.06,0.45-8.08,1.77-11.79,3.63
			c-7.99,4.01-14.81,10.69-20.11,18.28C194.7,190.36,190,205.61,188.16,221.26z M19.65,169.82c4.78,11.39,10.42,22.44,17.18,32.58
			c6.39,9.58,13.88,18.3,22.57,25.4c8,6.52,16.91,11.67,26.34,15.28c1.21,0.46,2.42,0.9,3.65,1.3c1.46,1.16,3.14,1.86,4.87,2.4
			c0.37,0.11,0.76,0.22,1.16,0.33c-0.54,0.3-1.64,0.69-3,1.15l-0.01,0c-6.08-1.85-11.98-4.43-17.65-7.45
			c-8.91-4.74-17.32-10.53-25.55-16.55c-8.87-6.49-17.98-12.92-25.47-21.29c-3.52-3.93-6.71-8.18-9.67-12.59
			c0.33-3.86,0.79-7.72,1.4-11.53c0.69-4.31,1.56-8.6,2.66-12.82C18.62,167.31,19.13,168.57,19.65,169.82z M18.67,202.07
			c7.2,8.69,15.99,15.28,24.83,21.81c13.89,10.28,28.47,20.48,44.64,25.8c-0.84,0.29-1.67,0.58-2.42,0.88
			c-8.32-1.62-16.52-3.77-24.56-6.63c-14.6-5.19-28.52-12.73-40.64-23.08c-2.48-2.11-4.87-4.33-7.15-6.67
			c-0.01-0.56-0.03-1.14-0.03-1.71c-0.06-5.62,0.03-11.25,0.36-16.88C15.28,197.82,16.94,199.98,18.67,202.07z M34.46,234.77
			c14.31,8.57,29.99,14.12,45.99,17.55c0.58,0.12,1.17,0.25,1.76,0.36l-0.01,0.01c-0.92,2.59-1.07,5.34-0.64,8.01
			c-19.45-0.76-38.73-4.41-56.85-12.38c-3.28-1.44-6.52-3.02-9.68-4.75c-0.83-8.21-1.35-16.48-1.58-24.73
			C19.89,224.97,26.96,230.28,34.46,234.77z M82.12,263.1c0.56,1.89,1.42,3.7,2.47,5.33c-7.34-0.26-14.68-1.14-21.9-2.61
			c-4.67-0.96-9.29-2.16-13.85-3.59c-0.93-0.3-3.4,1.81-2.04,2.23c12.85,4.05,26.2,6.18,39.58,6.32c0.49,0.55,1,1.08,1.53,1.55
			c2.92,2.61,6.29,4.22,9.84,5.27c-1.01,0.62-1.99,1.3-2.94,2.04c-0.49,0.39-0.9,0.96-1.12,1.6c-1.16,0.1-2.33,0.17-3.51,0.22
			c-9.9,0.42-19.81-0.93-29.42-3.4c-8.54-2.19-16.88-5.31-24.77-9.48c-7.03-3.72-13.66-8.34-19.62-13.84
			c-0.28-1.99-0.54-3.98-0.77-5.97c-0.06-0.54-0.12-1.07-0.17-1.61C36.18,257.75,59.2,262.45,82.12,263.1z M56.16,279.83
			c9.55,2.7,19.45,4.36,29.34,4.35c2.79,0,5.58-0.15,8.35-0.43c0.11,0.19,0.24,0.35,0.41,0.5c2.12,1.96,4.43,3.29,6.89,4.2
			l0.01,0.01l0.17,0.06c-0.18-0.01-0.36-0.02-0.54-0.04l-0.03,0l-0.01,0c-0.76,0.06-1.53,0.12-2.31,0.16l-0.01,0
			c-0.61,0.03-1.24,0.07-1.85,0.1c-18.03,0.89-36.16-1.2-53.58-6.29c-4.82-1.41-9.59-3.05-14.28-4.92
			c-2.96-1.18-5.91-2.47-8.72-4.03c-1.14-4.53-2.07-9.12-2.84-13.75C28.63,269.35,42.17,275.9,56.16,279.83z M190.34,352.99
			c2.7-4.78,5.12-9.67,6.52-15.1c1.45-5.59,2.3-11.44,3.15-17.16c0.76-5.01,1.28-10.07,1.21-15.13c1.06-0.9,1.98-2.01,2.75-3.24
			c0.22,0.55,0.45,1.08,0.69,1.62c0.24,0.55,0.52,1.03,0.84,1.47c4.14,14.36,6.46,30.16,2.97,44.4c-1.46,1.45-2.79,2.97-3.74,4.77
			c-5.64,0.93-11.28,1.87-16.92,2.79C188.66,355.95,189.5,354.47,190.34,352.99z M218.12,332.92c-0.01,4.33-1.56,8.71-4.35,11.77
			c-0.59,0.64-1.2,1.27-1.84,1.88c1.99-10.2,1.47-20.83-0.57-31.01c-0.49-2.48-1.08-4.94-1.73-7.37c1.64,0.26,3.38-0.22,4.98-1.54
			c0.79-0.67,1.49-1.43,2.07-2.28c1,6.54,1.33,13.14,0.28,19.64c-0.18,0.41-0.26,0.86-0.24,1.33c-0.26,1.34-0.58,2.68-0.96,4.01
			C215.17,331.4,216.6,332.78,218.12,332.92z M382.68,390.76c-2.55-0.48-5.27-0.5-8.04-0.03c0.88-2.26,1.86-4.58,2.93-6.94l0-0.01
			c0.2-0.42,0.4-0.85,0.6-1.29l-0.02-0.03l0.04-0.01c3.96-0.65,7.81-0.26,11.11,1.05c3.92,1.56,7.06,4.39,8.81,8.31
			c-0.66,1.21-1.32,2.38-1.98,3.53c-0.22,0.39-0.45,0.77-0.68,1.15c-0.35,0.58-0.7,1.17-1.05,1.73c-0.5-0.75-1.05-1.44-1.65-2.08
			c-0.57-0.62-1.18-1.18-1.82-1.69l-0.02-0.01c-1.36-1.09-2.87-1.97-4.52-2.62c-0.4-0.16-0.8-0.3-1.22-0.43l-0.01-0.01
			C384.35,391.12,383.52,390.91,382.68,390.76z M383.4,414.61c-0.02,0.15-0.06,0.3-0.13,0.43c-0.19,0.33-0.52,0.6-1.06,0.76
			c-0.15,0.04-0.3,0.08-0.48,0.1l-0.01-0.01c-0.37,0.06-0.81,0.06-1.29,0.01l-0.24-0.04l-0.01,0c-0.36-0.05-0.74-0.12-1.14-0.24
			c-1.29-0.34-2.75-0.98-4.19-1.9c-1.45-0.92-2.68-1.98-3.58-3.04c-0.75-0.87-1.29-1.74-1.57-2.48l0-0.01
			c-0.05-0.16-0.09-0.3-0.13-0.45c-0.14-0.59-0.1-1.02,0.08-1.37c0.1-0.17,0.24-0.34,0.44-0.47c0.16-0.12,0.36-0.21,0.61-0.28
			c0.76-0.24,1.89-0.19,3.19,0.16c1.29,0.34,2.74,0.98,4.19,1.9c1.44,0.91,2.67,1.98,3.58,3.04c0.75,0.87,1.28,1.73,1.55,2.48
			c0.06,0.16,0.11,0.32,0.15,0.47C383.44,414.03,383.46,414.34,383.4,414.61z M333.84,300.68c-3.86,7.23-10.23,12.83-18.2,15.15
			c-1.1,0.32-2.2,0.57-3.3,0.74c-6.87,1.12-13.63-0.44-19.32-4.05c-6.58-4.19-11.7-11.12-13.77-19.82
			c-2.08-8.71-0.72-17.51,3.14-24.73c1.99-3.71,4.64-6.99,7.82-9.62l31.12-3.3c0.63,0.34,1.26,0.7,1.88,1.09
			c2.99,1.91,5.69,4.38,7.91,7.33c2.69,3.53,4.73,7.75,5.86,12.5C339.06,284.66,337.7,293.46,333.84,300.68z M480.61,271.17
			C480.58,270.98,480.82,270.95,480.61,271.17L480.61,271.17z"/>
		<polygon class="st1" points="24.33,302 24.33,302 24.33,302 		"/>
		<polygon class="st1" points="190.64,91.48 190.64,91.49 190.64,91.49 		"/>
		<polygon class="st1" points="199.34,368.57 199.34,368.57 199.34,368.57 		"/>
		<polygon class="st1" points="127.69,391.18 127.69,391.17 127.69,391.17 		"/>
		<path class="st1" d="M263.33,243.33c7.22-10.33,17.51-18.21,29.89-21.8c15.88-4.6,31.94-1.18,44.59,7.96l-0.25-3.06
			c-0.65-7.69-6.89-13.32-13.94-12.57l-49.47,5.25c-7.05,0.75-12.23,7.58-11.58,15.28L263.33,243.33z"/>
		<path class="st1" d="M325.54,268.93c-4.6-2.4-10.63-3.54-17.1-2.85c-13.43,1.43-23.68,10.16-22.89,19.5
			c0.71,8.39,10.08,14.42,21.71,14.53c1.32,0.02,2.67-0.05,4.04-0.19c13.44-1.42,23.69-10.16,22.9-19.5
			C333.79,275.57,330.51,271.52,325.54,268.93z"/>
		<path class="st1" d="M418.72,251.76c8.13-9.83,9.57-22.89,3.21-29.17c-6.36-6.28-18.11-3.4-26.24,6.44
			c-8.13,9.83-9.57,22.89-3.21,29.17C398.83,264.48,410.58,261.6,418.72,251.76z"/>
		<path class="st1" d="M272.68,352.67c-1.57,0.46-2.51,2.21-2.1,3.93c0.41,1.72,2.02,2.74,3.59,2.28c1.57-0.46,2.51-2.22,2.1-3.93
			C275.86,353.23,274.26,352.21,272.68,352.67z"/>
		<path class="st1" d="M272.31,364.56c-1.57,0.46-2.51,2.21-2.1,3.93c0.41,1.71,2.02,2.74,3.59,2.28c1.57-0.46,2.51-2.22,2.1-3.93
			C275.48,365.13,273.88,364.11,272.31,364.56z"/>
		<path class="st1" d="M272.14,376.62c-1.57,0.46-2.51,2.22-2.1,3.93c0.41,1.72,2.02,2.74,3.59,2.28s2.51-2.22,2.1-3.93
			C275.31,377.19,273.71,376.17,272.14,376.62z"/>
		<path class="st1" d="M271.89,388.07c-1.57,0.46-2.51,2.21-2.1,3.93c0.41,1.71,2.02,2.74,3.59,2.28c1.57-0.46,2.51-2.22,2.1-3.93
			C275.07,388.64,273.47,387.61,271.89,388.07z"/>
		<path class="st1" d="M271.4,399.53c-1.57,0.46-2.51,2.22-2.1,3.93c0.41,1.72,2.02,2.74,3.59,2.28c1.57-0.46,2.51-2.22,2.1-3.93
			C274.58,400.09,272.97,399.07,271.4,399.53z"/>
		<path class="st1" d="M170.67,292.17c0.27-0.54,0.38-1.08,0.37-1.56c-0.31,0.89-0.61,1.79-0.92,2.67
			C170.3,292.9,170.49,292.53,170.67,292.17z"/>
		<path class="st1" d="M99.56,288.41c-0.41-0.04-0.79,0.05-1.12,0.23c0.78-0.05,1.55-0.1,2.31-0.16
			C100.35,288.47,99.95,288.44,99.56,288.41z"/>
		<path class="st1" d="M270.96,410.86c-1.57,0.46-2.51,2.22-2.1,3.93c0.41,1.72,2.02,2.74,3.59,2.28c1.57-0.46,2.51-2.22,2.1-3.93
			C274.13,411.42,272.53,410.4,270.96,410.86z"/>
	</g>
</g>
</svg>
