<svg xmlns="http://www.w3.org/2000/svg" width="348.15104" height="384.44261" viewBox="0 0 348.15104 384.44261"><title>udearmadeux</title><path d="M87.53273,371.262c-.3003.51052-.61563,1.02095-.91584,1.53146a1.84708,1.84708,0,0,1,.7507-1.36633A1.70935,1.70935,0,0,0,87.53273,371.262Z" transform="translate(-25.41893 -9)"/><path d="M94.93465,367.77876a15.094,15.094,0,0,1-3.87365,6.351Q92.99777,370.95422,94.93465,367.77876Z" transform="translate(-25.41893 -9)"/><path d="M90.91089,365.73687a11.92231,11.92231,0,0,1-3.37816,5.52517C88.65878,369.41534,89.78484,367.56864,90.91089,365.73687Z" transform="translate(-25.41893 -9)"/><path d="M125.24806,355.9177a2.23684,2.23684,0,0,1-.03.31524c-.12014-.06-.24019-.13507-.37535-.19519A2.59616,2.59616,0,0,0,125.24806,355.9177Z" transform="translate(-25.41893 -9)"/><path d="M128.77633,356.35308c-.03.03006-.07505.06-.1051.09008-.06-.06-.13508-.10511-.1952-.16513A2.919,2.919,0,0,0,128.77633,356.35308Z" transform="translate(-25.41893 -9)"/><path d="M124.84266,356.03775a2.37629,2.37629,0,0,1-1.71163-.22516,1.98866,1.98866,0,0,1-.91584-1.08106C123.086,355.197,123.97181,355.6174,124.84266,356.03775Z" transform="translate(-25.41893 -9)"/><path d="M125.53334,168.64714c-.03006-.22516-.03006-.43538-.06012-.66063a3.08,3.08,0,0,1,0-.52545C125.48825,167.85144,125.51831,168.24182,125.53334,168.64714Z" transform="translate(-25.41893 -9)"/><path d="M236.33716,125.45172c-.51052.43537-.99089.9008-1.48638,1.38126a2.23091,2.23091,0,0,1,1.36624-1.33627A1.03657,1.03657,0,0,0,236.33716,125.45172Z" transform="translate(-25.41893 -9)"/><path d="M373.50569,170.94433c-.13508-8.79822-.54048-17.58151-1.096-26.3647-.54048-8.498-1.20111-17.16107-4.4442-25.13354-2.94269-7.2368-7.41695-13.768-11.62087-20.32911-3.8436-6.00563-7.76225-11.9812-11.84613-17.8217-8.00243-11.44071-16.68061-22.5211-26.80008-32.17514-9.90925-9.44382-21.22991-17.40126-33.97685-22.52111-7.46194-3.00281-15.31437-4.53428-23.03153-6.66625a79.88037,79.88037,0,0,1-12.07137-4.36905,83.01948,83.01948,0,0,0-11.44072-4.65442c-8.04752-2.34219-16.56047-2.07195-24.83324-1.56143-7.25182.4504-14.48861,1.096-21.71037,1.98187a285.92,285.92,0,0,0-43.21045,8.49792C119.798,27.695,93.28314,40.72732,72.47357,60.81607c-21.71029,20.95967-36.06374,48.82579-42.67,78.11825-7.31185,32.35531-5.05974,66.3021,3.6484,98.162,2.20712,8.09261,4.84952,16.05005,7.8374,23.88735,1.02094,2.68758,5.375,1.51644,4.339-1.20111-2.11694-5.52516-4.03879-11.14041-5.76535-16.80075,3.16795.75071,5.55523,3.55833,7.507,6.1408,2.53738,3.36314,5.01464,6.441,8.63309,8.70814a116.45018,116.45018,0,0,0,11.99623,6.05063c2.61243,1.23116,5.23989,2.43236,7.85232,3.6485a110.50866,110.50866,0,0,1-16.33531,17.071c-1.62146,1.35121-.36032,3.39319,1.29128,3.6934-.09008.19519-.19519.39038-.27034.58557a1.85965,1.85965,0,0,0-1.77165-1.051q-3.15286-7.58961-7.02657-14.87891c-1.36624-2.55241-5.25492-.28527-3.88859,2.28217a167.36593,167.36593,0,0,1,14.909,39.35182c.60051,2.50733,4.369,1.90682,4.41414-.60051a42.47875,42.47875,0,0,0-.13517-4.36914c.10511.09008.18016.16513.28527.25521,3.30312,2.86774,7.492,5.67537,8.79823,10.07448.84078,2.80762,4.92466,1.63657,4.33909-1.18608-1.21614-6.09571-5.5402-10.72007-9.77418-14.96908a57.61087,57.61087,0,0,1-7.13168-7.94241,15.75522,15.75522,0,0,1,4.0989-9.92428c2.58238-2.82265,5.85543-4.8496,8.85825-7.17677a42.66332,42.66332,0,0,0,7.372-7.53709q11.62083,5.24745,23.36189,10.17958c4.234,1.77165,8.528,3.45322,12.807,5.14982.13517,3.69349.18016,7.40193.03006,11.11045-.22525,6.09571-.58557,12.19142.16513,18.25707,1.23117,10.11947,5.46515,21.335,3.57336,31.66471a85.97987,85.97987,0,0,1-8.15263-5.39009q-10.3147-7.40939-20.65938-14.78882a1.84553,1.84553,0,0,0-1.65151-.34539,3.76491,3.76491,0,0,1-1.54649-2.04189c-.55551-2.83768-4.90954-1.63648-4.33909,1.20111.69068,3.51333,4.75953,4.56434,5.90061,7.92747,1.30622,3.82857.88578,8.39282.66062,12.35655a87.79035,87.79035,0,0,1-1.84679,13.9781,53.68021,53.68021,0,0,1-1.27616,5.26995,11.92231,11.92231,0,0,1-3.37816,5.52517c-.3003.51052-.61563,1.02095-.91584,1.53146-.46543.75071-.931,1.51644-1.39639,2.26714-1.50141,2.4923,2.38728,4.75944,3.88869,2.28208.66062-1.06594,1.30621-2.147,1.95181-3.21294q1.93677-3.17556,3.87365-6.351l.27024-.4504c1.65152-2.70251,3.55833-5.45011,4.279-8.588.7507-3.24309.31533-6.66625.54057-9.96937.07506-1.00592.18017-2.01192.31524-3.00281a1.00289,1.00289,0,0,0,.09008-.22525c.58557-1.87676,3.0479-2.147,4.66945-1.68157,2.43227.70571,4.42907,2.55241,6.39591,4.05382a77.47187,77.47187,0,0,0,10.72007,6.81635c.87084.46544,1.75662.88587,2.62747,1.30622a2.59616,2.59616,0,0,0,.4054-.12,2.23684,2.23684,0,0,1-.03.31524,25.58676,25.58676,0,0,1-.45041,3.3482,27.0023,27.0023,0,0,1-2.65752,7.462c-2.73257,5.04471-7.07157,8.04752-11.93611,10.85514q-9.84184,5.67537-19.68352,11.3357c-2.50732,1.44129-.24018,5.345,2.26714,3.88859q9.70659-5.58519,19.39816-11.17047c5.345-3.07786,10.22458-6.456,13.42258-11.87609a31.828,31.828,0,0,0,4.204-12.74693c-.37535-.28527-.73576-.58557-1.11111-.88587-.06-.06-.13508-.10511-.1952-.16513a2.919,2.919,0,0,0,.3003.075,2.48012,2.48012,0,0,0,1.051,0c-.015.33036-.015.64559-.045.976a24.66253,24.66253,0,0,0,8.81326,4.65433c4.51915,1.18607,9.53389.33035,14.03812,1.5014a2.56426,2.56426,0,0,0,1.77164.88587q.74323.0675,1.48638.13508c2.162.21022,3.153-3.28809,1.14109-4.18889-5.11976-2.28217-10.44974-1.41133-15.79483-2.35722-3.79852-.67566-6.92147-2.70252-9.81917-5.07477q-.83328-22.13829-1.66654-44.27648c-.24028-6.11074-.48047-12.2365-.61563-18.34724,1.5014.63066,3.00281,1.26122,4.48928,1.92184,8.16766,3.67847,15.31428,9.29372,23.587,12.74694,8.10763,3.39319,16.77078,5.13478,24.8633,8.61806,7.91244,3.40822,15.56958,7.41695,23.60216,10.53991,7.88239,3.07786,15.94494,4.54921,24.2627,5.82546,8.67818,1.30622,17.68662,2.80763,24.98344,8.04752,5.60022,4.00873,10.07447,9.594,16.26026,12.56677-10.66,3.91865-21.63533,7.04161-32.58055,9.93931-15.975,4.234-32.40039,7.58209-49.00595,7.11665a89.90322,89.90322,0,0,1-23.78224-3.78348c-2.79268-.85581-3.97876,3.49821-1.2012,4.339,16.2753,4.96965,33.4514,4.72947,50.132,2.117,16.74072-2.62746,33.27123-7.31184,49.36627-12.56677,15.35937-5.01474,30.52363-11.29061,43.81105-20.61438a131.99624,131.99624,0,0,0,30.38846-30.02814c18.15206-24.623,28.13636-54.27581,32.37034-84.349A331.331,331.331,0,0,0,373.50569,170.94433Zm-252.912,71.40692a180.64958,180.64958,0,0,0-1.65151,18.2271c-.15011,5.01465.13516,10.01436.46543,14.99905-2.35722-1.33628-4.72938-2.6425-7.14671-3.88869-7.0866-3.63338-14.44353-6.71124-21.8154-9.74412.39038-.58557.7957-1.171,1.20111-1.74159,4.98468-7.17677,11.57588-12.65685,18.09193-18.37721,4.35412-3.81363,8.498-7.85242,12.53681-11.98129C121.7197,234.01846,121.13422,238.17729,120.59365,242.35125ZM127.8605,118.305c-.58557,13.873-2.73257,27.6109-2.59741,41.51385.03,2.55241.12,5.0898.21013,7.64221.015.39038.04509.78076.06012,1.18608q.58557,6.17089.67565,12.32658a271.51917,271.51917,0,0,1-2.53738,38.21083,42.05581,42.05581,0,0,1-6.47107,5.5402c-6.77136,5.17987-14.11326,9.579-20.55426,15.1792a56.6486,56.6486,0,0,0-8.78329,9.594c-2.08688,2.91274-3.91865,5.97557-5.81044,9.00844-15.044-6.20081-30.08816-12.97217-42.05442-24.23273a2.11792,2.11792,0,0,0-2.67246-.27024c-6.20082-23.467-8.85834-47.83481-6.63619-72.08257A165.05679,165.05679,0,0,1,50.43292,97.09011a2.2897,2.2897,0,0,0,2.2972-.93086A33.79472,33.79472,0,0,1,81.497,82.6015a69.46656,69.46656,0,0,0-.19519,27.716c.51052,2.5974,4.294,1.83167,4.42917-.6006A75.24138,75.24138,0,0,1,88.4185,93.18649a41.99471,41.99471,0,0,1,2.53739-7.29691,7.9881,7.9881,0,0,1,5.10482-4.14389c5.10482-1.62146,10.73509-2.177,16.035-2.71755a142.84745,142.84745,0,0,1,15.41948-.67556C127.99567,91.67006,128.416,104.98753,127.8605,118.305Zm0-66.91772c-.16513,3.87365-.3453,7.74722-.51052,11.62087-.07505,1.74169-.1501,3.49831-.22516,5.2399-.04508,1.006-.09008,1.9969-.13516,3.00281-.03.54058.13516,1.78668-.25522,2.25212-.6006.73567-3.03287-.16514-3.82857-.3003-1.8017-.28518-3.61844-.4954-5.43508-.61554a69.47657,69.47657,0,0,0-10.75013.3003c-7.02657.69059-13.96307,2.072-20.97461,2.8977-3.79861.45041-7.85233.99089-11.666.58557-1.32125-.15019-3.00282-.49549-3.8436-1.62154-.43538-.58557-.96093-2.11694-.21022-2.67255a2.41306,2.41306,0,0,0,.70571-3.01775c15.96-16.99594,36.15391-29.65279,57.89425-38.16584a.53585.53585,0,0,1,.13508-.06Q128.311,41.10263,127.8605,51.38728Zm12.31155-24.35287a1.83659,1.83659,0,0,0,.03006-.28518c23.18164-7.58218,47.54954-11.38069,71.84229-12.8821,8.21266-.51052,16.65056-.87084,24.60809,1.57646a97.69074,97.69074,0,0,1,10.93019,4.56424,82.43871,82.43871,0,0,0,11.57589,4.174c7.552,2.10191,15.25425,3.58838,22.58113,6.441a90.54794,90.54794,0,0,1,17.6265,9.36877c14.5787,9.83429,26.34977,23.03162,36.75451,37.21994a10.95411,10.95411,0,0,0-1.98187-.09008,25.83943,25.83943,0,0,0-8.51295-1.111c-6.57617.12-13.16737.70562-19.72851,1.02095q-21.01224.99093-42.06946,1.41132-12.882.24771-25.77913.25522c-2.22215-.22525-4.45923-.49549-6.66625-.85582-6.57617-1.081-12.777-3.45321-19.27811-4.77446-12.20645-2.49239-24.45789.42035-36.57426,2.132q-.54048.06763-1.081.13517a119.48639,119.48639,0,0,1-16.02008-.96092,116.9715,116.9715,0,0,1-19.84855-4.54931,108.38031,108.38031,0,0,1-1.5465-14.2783C136.83888,45.93716,138.28027,36.43323,140.17205,27.03441ZM132.84518,196.243c.22525-7.34181,1.81674-14.50355,2.32716-21.81539.52555-7.52207-1.5464-14.939-.66062-22.431.88587-3.48327,1.6516-6.98158,2.26714-10.52488a57.72736,57.72736,0,0,0,2.25211-13.7829,2.1909,2.1909,0,0,0-.31533-1.17114c.6456-7.04161.96092-14.14323,1.14109-21.21489.21022-8.28771.61562-16.68061.04508-24.96841-.06011-.66053-.12014-1.30622-.18016-1.95181.87075-.015,1.75662-.03,2.6424-.03a52.392,52.392,0,0,1,9.77418,1.20111,64.36293,64.36293,0,0,0,18.36227.7507c1.12605-.10511,2.267-.24027,3.3931-.39038h.03006c6.68128,0,13.34753-.57054,19.95376.73568,3.16794.61563,6.2908,1.3963,9.48881,1.81673a92.9369,92.9369,0,0,0,10.20964.63057q12.54414.20275,25.10348.16513c2.31214.22525,4.60933.42044,6.92147.58557,13.57278.96092,27.20549,1.42636,40.82326,1.3963q11.50839-.02254,23.0166-.52546c3.39319-.13516,6.77136-.33035,10.14952-.54048a24.43183,24.43183,0,0,1-7.13168,4.14381c-3.49831,1.15611-7.16174,1.63657-10.63,2.88276-6.80133,2.4473-12.92709,6.2909-19.26308,9.66907a66.00537,66.00537,0,0,1-9.684,4.38408c-3.46825,1.21614-7.0416,2.132-10.49491,3.3932a47.21157,47.21157,0,0,0-17.70156,11.9362c-.78076.81073-1.56143,1.63648-2.34219,2.46224-1.29119.55551-2.59741,1.066-3.88869,1.56152-.70561.28527-1.39629.57054-2.11694.84079-.51052.43537-.99089.9008-1.48638,1.38126a37.40377,37.40377,0,0,0-5.70533,7.14672,63.94135,63.94135,0,0,1-10.2396,6.456c-6.54612,3.4983-12.852,6.96655-18.31719,12.08631-6.21585,5.81044-11.4858,12.5818-18.5274,17.46137-3.67838,2.53738-7.58209,4.71444-11.29052,7.20674-3.33317,2.22214-6.54611,4.62435-9.654,7.14671-10.20964,8.27277-19.173,17.86678-28.07633,27.49076C132.87524,206.63281,132.68005,201.43791,132.84518,196.243Zm235.78094.37536c-1.56143,31.13917-7.80734,62.39847-22.73124,90.03943A142.83922,142.83922,0,0,1,321.27177,320.034a122.13378,122.13378,0,0,1-29.20239,21.335,2.78214,2.78214,0,0,0-.73567-.19519,81.65107,81.65107,0,0,1-14.38351-2.3422,55.1079,55.1079,0,0,1-13.07719-5.81043,115.97888,115.97888,0,0,0-25.29877-10.7351c-8.7382-2.58238-17.64153-4.57927-26.34967-7.28179a119.63459,119.63459,0,0,1-12.8821-4.80452,105.68891,105.68891,0,0,0-13.58772-5.39009c-4.83448-1.38127-9.81917-2.072-14.69874-3.28809a83.919,83.919,0,0,1-12.56677-4.18889,186.2343,186.2343,0,0,1-23.55708-12.53671c-1.96684-1.18617-3.94871-2.37225-5.91555-3.57336,0-6.00563.15011-12.02628.60051-18.03191,1.09609-14.80385,3.82866-29.41261,3.61844-44.30654-.015-.21022-.015-.40541-.015-.6006,9.05344-9.81917,18.047-19.71348,28.22644-28.37654,6.456-5.51014,13.46767-9.90934,20.56929-14.50364,7.14672-4.60933,12.71688-10.59993,18.61749-16.62059a59.95638,59.95638,0,0,1,10.16446-8.63309,70.95552,70.95552,0,0,1,6.456-3.45322,4.2773,4.2773,0,0,1,6.1408,4.21895c-.76573,9.17367-3.243,18.25716-3.49831,27.4608-.36032,12.47668,1.59149,24.87832,1.60652,37.355,0,.15011-.015.28527-.015.42035q-.92329,9.63909-2.35722,19.203c-.43537,2.79269,3.54339,4.06885,4.33909,1.2012a76.81323,76.81323,0,0,0,2.50732-20.224c.85582-8.90333,1.41133-17.83672,1.59149-26.78505.16523-7.462-.105-14.924,0-22.386.12014-7.14672.73577-14.45856,3.55842-21.10978,2.73248-6.47106,7.477-11.87609,12.04122-17.116.6456-.7507,1.30622-1.50141,1.98187-2.23717,9.95434-4.38409,19.39816-9.8792,28.84207-15.29934,5.94551-3.39311,11.90614-6.75634,18.0769-9.74412a143.794,143.794,0,0,1,19.203-7.432A47.1621,47.1621,0,0,0,321.527,89.85332c2.55241-1.5464,5.52517-3.88868,8.66315-3.93368a45.03189,45.03189,0,0,1,1.171,20.14886,2.25906,2.25906,0,0,0,4.11393,1.72665c2.32717-3.58838,3.15292-7.80733,4.05373-11.92117.78076-3.52836,1.54649-7.04161,2.32725-10.56988,3.60333,5.25493,7.07157,10.56988,10.44974,15.83983,4.1439,6.47106,8.75323,12.95715,11.57588,20.14886,3.0929,7.85233,3.58839,16.36537,4.11384,24.69816A452.084,452.084,0,0,1,368.62612,196.61836Z" transform="translate(-25.41893 -9)"/><path d="M238.4541,124.61093c-.70561.28527-1.39629.57054-2.11694.84079a2.84353,2.84353,0,0,1,.22525-.21022A2.56992,2.56992,0,0,1,238.4541,124.61093Z" transform="translate(-25.41893 -9)"/><path d="M126.209,180.97372c-.25531-4.11384-.49549-8.21265-.67565-12.32658Q126.11891,174.818,126.209,180.97372Z" transform="translate(-25.41893 -9)"/></svg>