<svg xmlns="http://www.w3.org/2000/svg" width="388.54803" height="393" viewBox="0 0 388.54803 393"><defs><style>.a{fill:#baa860;}</style></defs><title>Udx Company</title><path class="a" d="M393.40235,177.80939a193.84289,193.84289,0,0,0-27.40408-82.804,195.0522,195.0522,0,0,0-98.90219-81.42789A193.10877,193.10877,0,0,0,223.959,3.1479q-5.60647-.68782-11.2452-1.05083c-3.17809-.20438-7.25338-.47515-7.82431,3.66605a27.6259,27.6259,0,0,0,0,6.85979c.55481,4.03071,4.56181,3.83344,7.68679,4.04351A184.47138,184.47138,0,0,1,384.15353,189.01666c1.88448,30.18621-5.16215,61.12687-18.46159,88.19047A184.493,184.493,0,0,1,15.74918,205.9186c-.15412-2.90211.60982-7.13862-2.33971-8.896-2.17611-1.29646-5.579-.73738-6.93377,1.47145a6.60649,6.60649,0,0,0-.66483,3.60345c-.01138,1.62367,0,3.24543.05122,4.86815q.17,5.376.63495,10.73686a193.86163,193.86163,0,0,0,26.99769,83.135,195.86038,195.86038,0,0,0,60.70294,62.84491,194.36739,194.36739,0,0,0,289.42-99.40959C393.17947,236.61932,396.08727,206.89641,393.40235,177.80939ZM5.8893,202.57614l-.00054.00735c-.01031-.31694-.02045-.63395-.03331-.95071C5.86962,201.9809,5.88046,202.29162,5.8893,202.57614Z" transform="translate(-5.80684 -2)"/><path class="a" d="M100.67525,240.172a106.68756,106.68756,0,0,0,84.69087,66.42132,4.40857,4.40857,0,0,0,4.55233-2.5787,6.12441,6.12441,0,0,0,.38932-2.47628c.01707-1.45579.09531-2.94668-.02371-4.39963-.3713-4.52483-5.58182-4.28014-8.93822-4.93264a96.61094,96.61094,0,0,1-21.90761-7.058,96.935,96.935,0,0,1-56.20229-79.95882c-.16923-2.00249-.25779-4.00694-.3115-6.01476l.00137-.06686q.0192-.80022.05358-1.60043.0697-1.66942.19727-3.33553a97.21258,97.21258,0,0,1,65.45965-84.367A97.19017,97.19017,0,0,1,287.30557,159.1586a96.36072,96.36072,0,0,1,7.51609,21.52967q.63732,2.8829,1.09635,5.80137c.31108,1.97647,1.0698,3.7092,3.13542,4.36692a6.56673,6.56673,0,0,0,4.34083-.2352,4.60118,4.60118,0,0,0,2.48577-4.33657,39.72145,39.72145,0,0,0-.349-7.0215q-.44242-2.83239-1.03755-5.63872A106.06352,106.06352,0,0,0,292.11682,141.781a106.82472,106.82472,0,0,0-198.914,51.45317,133.03874,133.03874,0,0,0,1.33345,24.64186A106.27469,106.27469,0,0,0,100.67525,240.172Z" transform="translate(-5.80684 -2)"/><path class="a" d="M193.20419,183.221q-6.68766-6.68765-13.37484-13.37483-9.4781-9.47809-18.95618-18.95666c-.63022-.62974-1.25474-1.26564-1.89017-1.89017a4.9516,4.9516,0,0,0-6.86833-.36276c-1.37139,1.24715-1.53261,2.88267-1.543,4.623-.01185,1.958-.33573,4.31475.589,6.13521a8.58451,8.58451,0,0,0,1.7517,2.12205l17.26329,17.26328q5.06232,5.06306,10.12561,10.12562c1.88922,1.88969,3.69829,4.04161,5.75348,5.75348.101.0844.19015.19015.28357.28357a4.64953,4.64953,0,0,1-.02205-1.80333c.00071.36407.0003.7282.00451,1.092a2.86624,2.86624,0,0,1,.01754.7113l6.866-6.866c.2646-.26508.02418-2.041.02418-2.42791,0-.57236-.00047-1.14472-.00711-1.71708C193.21984,183.80472,193.28433,183.30111,193.20419,183.221Zm-42.116-30.753a4.696,4.696,0,0,0-.33805.94051l-.02632-.08351C150.52557,152.70691,150.88134,152.17421,151.08821,152.468Zm-.33675,3.34116c.00249.01031.00676.02033.00937.03064-.03883.14689-.07178.28251-.11665.44089C150.688,156.12561,150.71851,155.96722,150.75146,155.80914Z" transform="translate(-5.80684 -2)"/><path class="a" d="M206.90006,215.30589c.17332.5177.63282.832,1.07928,1.27844l3.4427,3.4427q11.20158,11.20158,22.4041,22.4041,3.49533,3.49391,6.98877,6.98877c1.73083,1.72989,4.20237,2.45921,6.42542,1.06221,1.87215-1.176,2.18038-3.08515,2.19271-5.11568.01328-2.1358.36513-4.65475-.8327-6.561a12.22733,12.22733,0,0,0-1.81144-2.00018q-1.70571-1.70428-3.40951-3.40951-5.39736-5.39592-10.79376-10.79376L220.98,210.99635c-2.30082-2.29988-4.51154-4.78469-6.94514-6.94515-.11855-.10527-.22572-.22572-.33763-.33763a5.82758,5.82758,0,0,1,0,2.05886v-2.05886c-.36419,0-1.14662,1.08592-1.39036,1.32966l-2.91634,2.91633c-.74924.74924-1.56771,1.46813-2.26668,2.26574a1.46136,1.46136,0,0,0-.28707.36063l-.006-.00593.00011.01506-.00675.01055a6.63782,6.63782,0,0,0-.01707,2.01914c-.00095.76252-.00664,1.526.00853,2.28945.00071.03337.01612.0556.01885.08737l-.00367.37355Zm42.0164,30.85163a4.69487,4.69487,0,0,0,.33822-.94087l.02662.08434C249.47969,245.91941,249.12339,246.45229,248.91646,246.15752Zm.3368-3.34087c-.00255-.01066-.007-.02092-.00966-.03153.03876-.14671.07166-.28209.11641-.4403C249.31645,242.5,249.28616,242.65845,249.25326,242.81665Z" transform="translate(-5.80684 -2)"/><path class="a" d="M249.51656,156.39726c.27308.11008.36638-3.21769.06271-3.32652a6.455,6.455,0,0,0-1.50434-4.25826,4.54768,4.54768,0,0,1,.02193,1.81388c-.00083-.36757-.00059-.73525-.00486-1.10258-.001-.12187.06165-.63922-.01707-.7113a5.00927,5.00927,0,0,0-7.19648.33052q-1.35715,1.34862-2.70579,2.70579-5.5382,5.53747-11.07543,11.075-12.213,12.21376-24.428,24.428-6.44582,6.44652-12.89258,12.89258-9.52788,9.52859-19.05576,19.05623-5.94365,5.94365-11.88775,11.88727-2.76127,2.76128-5.52207,5.52255c-.41967.41919-.84408.83459-1.259,1.25853a5.68027,5.68027,0,0,0-1.55716,4.25844c-.284-.19246-.35713,3.37335-.05589,3.40115a5.79766,5.79766,0,0,0,1.74535,4.42115,4.90819,4.90819,0,0,0,6.35809,0c1.86977-1.60564,3.53469-3.51762,5.27643-5.25889q2.68517-2.68587,5.3708-5.37175,12.68037-12.67965,25.36074-25.36026,6.48708-6.48708,12.97462-12.97509,10.78617-10.78547,21.5714-21.57093c6.30118-6.3007,12.7598-12.47859,18.91872-18.91824a5.38307,5.38307,0,0,0,1.48994-3.81969C249.5079,156.65025,249.51229,156.52376,249.51656,156.39726Z" transform="translate(-5.80684 -2)"/></svg>