<svg xmlns="http://www.w3.org/2000/svg" width="400" height="400" viewBox="0 0 400 400"><title>UdxCreativos</title><path d="M271.02479,71.96208l-2.01473-.65486a10.92256,10.92256,0,0,0-8.333.65427L234.7924,85.14661l-13.127-25.85579a10.9218,10.9218,0,0,0-6.36188-5.44184l-2.01444-.65456A10.92056,10.92056,0,0,0,200.188,68.54884L214.0634,95.70521l-27.21979,13.86447a10.97058,10.97058,0,0,0,1.62565,20.2057l1.89644.61651a10.92046,10.92046,0,0,0,8.33266-.65486l25.96346-13.22435L237.829,142.44634a10.91943,10.91943,0,0,0,6.3613,5.44213l1.94776.633a10.92628,10.92628,0,0,0,13.117-15.34794l-13.86417-27.2192L272.61032,92.089a10.92637,10.92637,0,0,0-1.58553-20.12694Z"/><path d="M341.09667,92.61025A106.47517,106.47517,0,0,0,313.5521,40.08746Q292.36956,17.57486,259.532,6.93381,226.73319-3.72759,196.46121,2.025A107.36006,107.36006,0,0,0,143.4166,28.3513q-22.72278,20.62325-33.12386,52.71983l-22.46,69.09313a36.305,36.305,0,0,0,51.0051,43.6391,37.61285,37.61285,0,0,0,3.37519-1.91679,36.42216,36.42216,0,0,0,22.78179,21.6225,36.00442,36.00442,0,0,0,27.70739-2.19644c.785-.40029,1.58966-.85928,2.33449-1.33774a36.27257,36.27257,0,0,0,49.68831,17.65853,14.27148,14.27148,0,0,0,1.6873-.95811,36.27335,36.27335,0,0,0,22.2812,20.54287,33.93717,33.93717,0,0,0,10.37747,1.73538,83.10784,83.10784,0,0,1-4.3793,25.76642,87.38336,87.38336,0,0,1-11.64532,23.73221,36.221,36.221,0,0,0-39.57542-1.20235,14.27693,14.27693,0,0,0-.80117-1.76753,36.33827,36.33827,0,0,0-50.555-14.99218c-.32123-.82507-.72152-1.61031-1.12122-2.39556A36.00494,36.00494,0,0,0,149.87376,260.026a36.42173,36.42173,0,0,0-31.14128,4.09406,37.5854,37.5854,0,0,0-1.60323-3.53507,36.30465,36.30465,0,0,0-66.8961,5.24774l-6.29906,19.3768a11.36371,11.36371,0,0,0,.48141,9.00139,11.507,11.507,0,0,0,6.9787,5.74124l137.65293,44.74646a89.57746,89.57746,0,0,0,8.9241,2.37638,76.83655,76.83655,0,0,0,34.97075-.55663,75.56861,75.56861,0,0,0,21.35112-9.04564,47.11184,47.11184,0,0,0,5.03859-3.40675,82.37285,82.37285,0,0,0,11.55121-9.93854,70.741,70.741,0,0,0,5.97812-6.9017l.01947-.0593a109.68785,109.68785,0,0,0,18.8473-35.6082l41.22113-126.80909a123.48179,123.48179,0,0,0,6.38047-42.80577A103.15994,103.15994,0,0,0,341.09667,92.61025ZM101.3117,285.05763l-1.92594,5.92561L64.7802,279.73438l1.92624-5.9256a18.21549,18.21549,0,0,1,22.92721-11.67865,18.29578,18.29578,0,0,1,11.678,22.9275ZM155.11678,302.548l-1.92623,5.92561-34.54657-11.23,1.92624-5.92561a18.163,18.163,0,1,1,34.54656,11.23Zm51.67649,17.38774-1.541,4.74066a63.61621,63.61621,0,0,1-8.98162-2.19909l-25.777-8.37927,1.75279-5.39228a18.16267,18.16267,0,0,1,22.90833-11.61906,18.08233,18.08233,0,0,1,11.63853,22.849Zm21.64344,3.75984a39.28872,39.28872,0,0,1-3.95394.8764A18.143,18.143,0,0,1,247.197,313.34851a8.337,8.337,0,0,1,1.16577.44483A57.2748,57.2748,0,0,1,228.43671,323.6956ZM140.43344,164.70748a18.19393,18.19393,0,0,1-34.60526-11.24885l1.75278-5.39258,34.60556,11.24886Zm53.80508,17.49039a18.163,18.163,0,0,1-34.54656-11.23l1.44453-4.4442,34.54686,11.22968ZM246.26161,198.519a18.163,18.163,0,0,1-34.54656-11.23l1.27108-3.91087,34.54686,11.23Zm28.82715,29.026a18.1177,18.1177,0,0,1-11.966-21.84138,39.29819,39.29819,0,0,1,2.68257,3.03419,56.69541,56.69541,0,0,1,10.17217,19.096Zm44.7152-91.60323a64.577,64.577,0,0,1-1.62417,6.80967.061.061,0,0,0,.04011.07846c-.49911,1.73774-1.018,3.53478-1.59585,5.31234l-13.04058,40.11672L117.518,127.7754l13.04058-40.11672c.57787-1.77756,1.19586-3.47666,1.83273-5.23535l.01917-.059a93.24606,93.24606,0,0,1,12.45888-23.00892l.01917-.05929A85.15277,85.15277,0,0,1,157.43623,45.4883,87.65392,87.65392,0,0,1,200.827,24.672q24.8533-4.50084,51.578,4.187c17.77682,5.77871,32.54364,14.77154,44.181,26.941a88.80758,88.80758,0,0,1,22.97588,42.38985,87.56311,87.56311,0,0,1,2.14836,18.58477A91.80814,91.80814,0,0,1,319.804,135.94169Z"/><path d="M.43382,368.91791a1.49645,1.49645,0,0,1,1.10543-.43381A1.48729,1.48729,0,0,1,3.08011,370.025v19.11052A7.33548,7.33548,0,0,0,4.245,393.223a7.80352,7.80352,0,0,0,3.25685,2.80375,10.8795,10.8795,0,0,0,4.77843,1.00743,10.53429,10.53429,0,0,0,4.69809-1.00743,7.86328,7.86328,0,0,0,3.21829-2.80375,7.34836,7.34836,0,0,0,1.16489-4.08753V370.025a1.54045,1.54045,0,1,1,3.08011,0v19.11052a10.2398,10.2398,0,0,1-1.56014,5.58822,10.58743,10.58743,0,0,1-4.32373,3.84974,13.85593,13.85593,0,0,1-6.27751,1.38179,14.19757,14.19757,0,0,1-6.35785-1.38179,10.52963,10.52963,0,0,1-4.3639-3.84974A10.23871,10.23871,0,0,1,0,389.13547V370.025A1.49645,1.49645,0,0,1,.43382,368.91791Z"/><path d="M55.71355,379.22512v9.2789a11.11632,11.11632,0,0,1-1.44124,5.60751,10.48549,10.48549,0,0,1-3.94775,3.96863,11.55131,11.55131,0,0,1-11.17484,0,10.47829,10.47829,0,0,1-3.94936-3.96863,11.11632,11.11632,0,0,1-1.44124-5.60751,11.242,11.242,0,0,1,1.40268-5.58662,10.3941,10.3941,0,0,1,9.25961-5.3906,10.19657,10.19657,0,0,1,4.6981,1.08616,9.76931,9.76931,0,0,1,3.51393,2.98049V370.025a1.48729,1.48729,0,0,1,1.54086-1.54085,1.43531,1.43531,0,0,1,1.08615.43381,1.54078,1.54078,0,0,1,.41454,1.107V378.87A1.22391,1.22391,0,0,1,55.71355,379.22512Zm-6.909,16.44655a7.84179,7.84179,0,0,0,2.86159-2.96122,8.488,8.488,0,0,0,1.0476-4.20643,8.92011,8.92011,0,0,0-.04017-.98654.45045.45045,0,0,1-.04017-.19763,7.9316,7.9316,0,0,0-2.58524-5.05478,7.66065,7.66065,0,0,0-5.31187-1.97468,7.993,7.993,0,0,0-4.08592,1.06687,7.63821,7.63821,0,0,0-2.88249,2.94193,8.96571,8.96571,0,0,0,0,8.41126,8.06648,8.06648,0,0,0,11.03667,2.96122Z"/><path d="M82.20862,398.02071a1.2025,1.2025,0,0,1-.41454.9287,1.35093,1.35093,0,0,1-.92709.37437,1.77153,1.77153,0,0,1-.79051-.15746,1.64828,1.64828,0,0,1-.59128-.55272l-6.47675-8.2538-6.71294,8.49a1.24336,1.24336,0,0,1-1.06526.474,1.31688,1.31688,0,0,1-1.3818-1.34324,1.52516,1.52516,0,0,1,.39365-1.06526l6.83184-8.53016-6.47514-8.212a1.52762,1.52762,0,0,1-.39526-1.06688,1.422,1.422,0,0,1,.35509-.98653,1.30726,1.30726,0,0,1,1.0267-.39526,1.56125,1.56125,0,0,1,1.14561.474l6.35624,8.17346,6.27912-7.93727a1.61739,1.61739,0,0,1,1.30307-.71018,1.31688,1.31688,0,0,1,1.38179,1.34323,1.83356,1.83356,0,0,1-.43382,1.144l-6.55548,8.1349,6.71294,8.60728A1.75217,1.75217,0,0,1,82.20862,398.02071Z"/><path d="M105.66535,381.31709a1.21934,1.21934,0,0,1,.31492.82908,1.3498,1.3498,0,0,1-.67162,1.107,1.33141,1.33141,0,0,1-.75034.23619,1.58166,1.58166,0,0,1-1.144-.59289,8.08417,8.08417,0,0,0-2.60612-1.95379,7.50666,7.50666,0,0,0-3.15884-.65233,7.22564,7.22564,0,0,0-3.87063,1.04759,6.95962,6.95962,0,0,0-2.62541,2.94193,9.56822,9.56822,0,0,0-.92869,4.26428,8.87764,8.87764,0,0,0,.98814,4.20482,7.34624,7.34624,0,0,0,2.76359,2.94194,7.75437,7.75437,0,0,0,4.06665,1.06687,7.449,7.449,0,0,0,5.09495-1.69832,1.63543,1.63543,0,0,1,1.06527-.43543,1.3612,1.3612,0,0,1,.86924.31653,1.38946,1.38946,0,0,1,.55272,1.06687,1.12093,1.12093,0,0,1-.39526.86764A10.13472,10.13472,0,0,1,98.043,399.5214a10.68345,10.68345,0,0,1-5.52717-1.44124,10.35332,10.35332,0,0,1-3.84974-3.94935,11.24207,11.24207,0,0,1-1.40268-5.58662,11.81871,11.81871,0,0,1,1.34323-5.667,9.98008,9.98008,0,0,1,3.71156-3.92847,10.15759,10.15759,0,0,1,5.33115-1.422A9.84392,9.84392,0,0,1,105.66535,381.31709Z"/><path d="M127.284,377.92206a1.35418,1.35418,0,0,1,.96887,1.22433,1.358,1.358,0,0,1-.53344,1.10544,1.83833,1.83833,0,0,1-.92869.19762q-.35429,0-1.22434-.07873a8.05867,8.05867,0,0,0-.94636-.04016,7.25648,7.25648,0,0,0-4.83788,1.57942,5.117,5.117,0,0,0-1.87506,4.10681v11.80629a1.5032,1.5032,0,1,1-3.00139,0v-18.598a1.5032,1.5032,0,1,1,3.00139,0V380.962a7.83614,7.83614,0,0,1,2.921-2.56595,8.29712,8.29712,0,0,1,3.83046-.90942A6.527,6.527,0,0,1,127.284,377.92206Z"/><path d="M148.74675,378.88931a9.3034,9.3034,0,0,1,3.493,3.771,11.76959,11.76959,0,0,1,1.24522,5.48861,1.33086,1.33086,0,0,1-.39526,1.00742,1.42741,1.42741,0,0,1-1.0267.37437H136.10977a7.76724,7.76724,0,0,0,8.05617,7.26566,8.7755,8.7755,0,0,0,2.8616-.49327,6.95482,6.95482,0,0,0,2.31049-1.24361,1.72672,1.72672,0,0,1,1.06687-.39526,1.47031,1.47031,0,0,1,.86763.31653,1.42061,1.42061,0,0,1,.51416,1.06526,1.19545,1.19545,0,0,1-.43382.90781,10.72911,10.72911,0,0,1-3.31791,1.8365,11.43811,11.43811,0,0,1-9.51669-.67162,9.985,9.985,0,0,1-3.8883-3.90918,11.39877,11.39877,0,0,1-1.40268-5.66535,12.03658,12.03658,0,0,1,1.32234-5.70552,9.746,9.746,0,0,1,3.673-3.91079,10.25013,10.25013,0,0,1,5.35043-1.40108A9.80038,9.80038,0,0,1,148.74675,378.88931Zm-10.14975,3.2183a8.04537,8.04537,0,0,0-2.4085,4.89572h14.45259a7.72164,7.72164,0,0,0-2.21087-4.89572,6.6534,6.6534,0,0,0-4.85716-1.85578A6.98274,6.98274,0,0,0,138.597,382.10761Z"/><path d="M176.20907,378.968a10.49684,10.49684,0,0,1,3.94775,3.96864,11.1206,11.1206,0,0,1,1.44124,5.60751v9.27889a1.45187,1.45187,0,0,1-.43382,1.06688,1.499,1.499,0,0,1-1.10543.43382,1.53427,1.53427,0,0,1-1.10544-.41454,1.42823,1.42823,0,0,1-.43542-1.08616v-2.36832a9.75359,9.75359,0,0,1-3.51393,2.98049,10.19657,10.19657,0,0,1-4.6981,1.08615,10.39411,10.39411,0,0,1-9.25961-5.39059,11.24207,11.24207,0,0,1-1.40268-5.58662,11.1206,11.1206,0,0,1,1.44124-5.60751,10.4896,10.4896,0,0,1,3.94935-3.96864,11.55133,11.55133,0,0,1,11.17485,0Zm-1.52,16.72291a7.68747,7.68747,0,0,0,2.86159-2.94194,8.96571,8.96571,0,0,0,0-8.41126,7.95936,7.95936,0,0,0-13.89826,0,8.96571,8.96571,0,0,0,0,8.41126,7.63821,7.63821,0,0,0,2.88248,2.94194,7.99311,7.99311,0,0,0,4.08593,1.06687A7.89541,7.89541,0,0,0,174.6891,395.691Z"/><path d="M201.0267,396.71765a1.58628,1.58628,0,0,1,.39365,1.10543,1.38968,1.38968,0,0,1-.474,1.06688,1.6847,1.6847,0,0,1-1.18417.43382h-.82907a7.045,7.045,0,0,1-6.337-3.73084,8.05542,8.05542,0,0,1-.92869-3.88991v-10.5434h-2.566a1.36428,1.36428,0,0,1-1.00742-.37437,1.25859,1.25859,0,0,1-.37437-.92869,1.30643,1.30643,0,0,1,.37437-.96726,1.35891,1.35891,0,0,1,1.00742-.376h2.566v-6.12006a1.53952,1.53952,0,0,1,.41454-1.10543,1.43288,1.43288,0,0,1,1.08615-.43382,1.48471,1.48471,0,0,1,1.53925,1.53925v6.12006h4.46351a1.36014,1.36014,0,0,1,1.00582.376,1.30759,1.30759,0,0,1,.376.96726,1.26,1.26,0,0,1-.376.92869,1.36552,1.36552,0,0,1-1.00582.37437h-4.46351V391.703a4.66708,4.66708,0,0,0,1.18577,3.297,3.94749,3.94749,0,0,0,3.04,1.28378H200A1.3246,1.3246,0,0,1,201.0267,396.71765Z"/><path d="M212.99046,369.90606a2.01564,2.01564,0,0,1,.633,1.53925,2.15876,2.15876,0,0,1-2.17231,2.1723,2.0307,2.0307,0,0,1-1.52-.63144,2.13142,2.13142,0,0,1-.61216-1.54086,2.01441,2.01441,0,0,1,.63144-1.53925,2.16608,2.16608,0,0,1,1.54086-.59289A2.1158,2.1158,0,0,1,212.99046,369.90606Zm-2.60613,8.25219a1.50017,1.50017,0,0,1,1.107-.43382,1.43173,1.43173,0,0,1,1.08455.43382,1.53952,1.53952,0,0,1,.41454,1.10543v18.52084a1.5369,1.5369,0,0,1-.41454,1.10544,1.43173,1.43173,0,0,1-1.08455.43382,1.4848,1.4848,0,0,1-1.54086-1.53926V379.26368A1.50154,1.50154,0,0,1,210.38433,378.15825Z"/><path d="M241.3413,379.10622a1.61155,1.61155,0,0,1-.11729.55272L232.575,398.29707a1.61764,1.61764,0,0,1-1.49908,1.02671,1.51821,1.51821,0,0,1-1.422-1.02671l-8.76635-18.598a1.22786,1.22786,0,0,1-.1189-.55272,1.36733,1.36733,0,0,1,.86925-1.2645,1.25683,1.25683,0,0,1,.63144-.15746,1.41864,1.41864,0,0,1,.73107.19763,1.1715,1.1715,0,0,1,.49327.59128l7.58218,16.42726,7.50185-16.42726a1.23439,1.23439,0,0,1,.51255-.61056,1.49325,1.49325,0,0,1,.79051-.21852,1.2456,1.2456,0,0,1,.63145.15907A1.31693,1.31693,0,0,1,241.3413,379.10622Z"/><path d="M263.13828,378.94876a10.39269,10.39269,0,0,1,3.92846,3.94775,11.82061,11.82061,0,0,1,.02089,11.27446,10.24677,10.24677,0,0,1-3.93007,3.92847,11.84377,11.84377,0,0,1-11.25358,0,10.25372,10.25372,0,0,1-3.92847-3.92847,11.2038,11.2038,0,0,1-1.422-5.62678,11.321,11.321,0,0,1,1.422-5.64768,10.21615,10.21615,0,0,1,3.92847-3.94775,11.80563,11.80563,0,0,1,11.2343,0Zm-9.69344,2.4085a7.63818,7.63818,0,0,0-2.88248,2.94193,9.04311,9.04311,0,0,0,0,8.44982,7.63821,7.63821,0,0,0,2.88248,2.94194,8.39763,8.39763,0,0,0,8.19274,0,7.553,7.553,0,0,0,2.84393-2.94194,9.206,9.206,0,0,0,0-8.44982,7.553,7.553,0,0,0-2.84393-2.94193,8.39763,8.39763,0,0,0-8.19274,0Z"/><path d="M289.39715,378.41533a7.97509,7.97509,0,0,1,3.11868,2.46794,1.79841,1.79841,0,0,1,.31652.90781,1.207,1.207,0,0,1-.63144,1.06687,1.26726,1.26726,0,0,1-.75035.19763,1.8098,1.8098,0,0,1-1.38179-.59289,6.67073,6.67073,0,0,0-5.291-2.21086,6.06476,6.06476,0,0,0-3.47537.88852,2.63576,2.63576,0,0,0-.07873,4.50047,11.324,11.324,0,0,0,4.343,1.36251q4.2249.711,6.04132,2.31048a5.07629,5.07629,0,0,1,1.81722,3.96864,5.19708,5.19708,0,0,1-1.08615,3.23757,7.04414,7.04414,0,0,1-3.02067,2.21087,11.50259,11.50259,0,0,1-4.38317.79051,13.49008,13.49008,0,0,1-4.6997-.82907,9.11632,9.11632,0,0,1-3.63283-2.32977,1.44387,1.44387,0,0,1-.39365-.9078,1.50224,1.50224,0,0,1,.63145-1.18577,1.62418,1.62418,0,0,1,.98653-.35509,1.45978,1.45978,0,0,1,1.1456.55271,6.05353,6.05353,0,0,0,2.50651,1.69832,9.65513,9.65513,0,0,0,3.45609.59289,7.37213,7.37213,0,0,0,4.14538-.948,2.99128,2.99128,0,0,0,1.422-2.48883,2.79975,2.79975,0,0,0-1.3818-2.36833,11.06376,11.06376,0,0,0-4.38317-1.422,12.258,12.258,0,0,1-5.78425-2.19158,4.709,4.709,0,0,1-1.91523-3.771,5.14671,5.14671,0,0,1,2.23015-4.46191,9.43833,9.43833,0,0,1,5.58823-1.57942A10.78419,10.78419,0,0,1,289.39715,378.41533Z"/><path d="M303.967,396.02675a2.27763,2.27763,0,0,1,.67162,1.63887,2.2761,2.2761,0,1,1-2.29121-2.32976A2.17646,2.17646,0,0,1,303.967,396.02675Z"/><path d="M330.385,381.31709a1.21929,1.21929,0,0,1,.31492.82908,1.34979,1.34979,0,0,1-.67161,1.107,1.33142,1.33142,0,0,1-.75035.23619,1.58162,1.58162,0,0,1-1.144-.59289,8.08421,8.08421,0,0,0-2.60613-1.95379,7.50663,7.50663,0,0,0-3.15884-.65233,7.22563,7.22563,0,0,0-3.87062,1.04759,6.95949,6.95949,0,0,0-2.62541,2.94193,9.56822,9.56822,0,0,0-.92869,4.26428,8.87764,8.87764,0,0,0,.98814,4.20482A7.34621,7.34621,0,0,0,318.696,395.691a7.7544,7.7544,0,0,0,4.06665,1.06687,7.449,7.449,0,0,0,5.095-1.69832,1.63541,1.63541,0,0,1,1.06526-.43543,1.36125,1.36125,0,0,1,.86925.31653,1.38949,1.38949,0,0,1,.55272,1.06687,1.121,1.121,0,0,1-.39526.86764,10.13473,10.13473,0,0,1-7.18693,2.64629,10.68348,10.68348,0,0,1-5.52717-1.44124,10.35346,10.35346,0,0,1-3.84974-3.94935,11.24207,11.24207,0,0,1-1.40268-5.58662,11.81871,11.81871,0,0,1,1.34323-5.667,9.98015,9.98015,0,0,1,3.71156-3.92847,10.15759,10.15759,0,0,1,5.33115-1.422A9.84389,9.84389,0,0,1,330.385,381.31709Z"/><path d="M355.06282,378.94876a10.39682,10.39682,0,0,1,3.93008,3.94775,11.82651,11.82651,0,0,1,.01928,11.27446,10.25778,10.25778,0,0,1-3.93008,3.92847,11.84375,11.84375,0,0,1-11.25357,0,10.25359,10.25359,0,0,1-3.92847-3.92847,11.2038,11.2038,0,0,1-1.422-5.62678,11.321,11.321,0,0,1,1.422-5.64768,10.216,10.216,0,0,1,3.92847-3.94775,11.80561,11.80561,0,0,1,11.23429,0Zm-9.69343,2.4085a7.63818,7.63818,0,0,0-2.88248,2.94193,9.043,9.043,0,0,0,0,8.44982,7.63821,7.63821,0,0,0,2.88248,2.94194,8.39763,8.39763,0,0,0,8.19274,0,7.51177,7.51177,0,0,0,2.84071-2.94194,9.1932,9.1932,0,0,0,0-8.44982,7.51174,7.51174,0,0,0-2.84071-2.94193,8.39763,8.39763,0,0,0-8.19274,0Z"/><path d="M396.18882,378.59367a7.4759,7.4759,0,0,1,2.80215,3.138,10.50506,10.50506,0,0,1,1.009,4.719v11.37247a1.423,1.423,0,0,1-1.50069,1.5007,1.53162,1.53162,0,0,1-1.10543-.41454,1.42131,1.42131,0,0,1-.43382-1.08616V386.45061a6.4915,6.4915,0,0,0-1.44285-4.44262,4.78414,4.78414,0,0,0-3.7694-1.63727,5.24387,5.24387,0,0,0-4.0297,1.65815,5.99939,5.99939,0,0,0-1.50069,4.343v11.4512a1.423,1.423,0,0,1-1.50069,1.5007,1.53688,1.53688,0,0,1-1.10543-.41454,1.4329,1.4329,0,0,1-.43382-1.08616V386.45061a6.4915,6.4915,0,0,0-1.44285-4.44262,4.78413,4.78413,0,0,0-3.7694-1.63727,5.38215,5.38215,0,0,0-4.02648,1.618,5.68832,5.68832,0,0,0-1.581,4.147v11.68739a1.423,1.423,0,0,1-1.50069,1.5007,1.53688,1.53688,0,0,1-1.10543-.41454,1.4329,1.4329,0,0,1-.43382-1.08616v-18.5594a1.48471,1.48471,0,0,1,1.53925-1.53925,1.43532,1.43532,0,0,1,1.08616.43382,1.53955,1.53955,0,0,1,.41453,1.10543v.86925a7.6558,7.6558,0,0,1,2.62541-1.95379,7.87961,7.87961,0,0,1,3.297-.69251,7.78965,7.78965,0,0,1,3.91079.98815,7.34856,7.34856,0,0,1,2.76359,2.76358,8.00385,8.00385,0,0,1,2.9821-2.76358,8.58585,8.58585,0,0,1,4.1261-.98815A7.713,7.713,0,0,1,396.18882,378.59367Z"/></svg>