<svg xmlns="http://www.w3.org/2000/svg" width="279.22625" height="400.00002" viewBox="0 0 279.22625 400.00002"><title>UdxCreativos</title><path d="M240.55347,80.9585a12.7365,12.7365,0,0,0-12.66089-12.81171l-2.46881-.01447a12.729,12.729,0,0,0-9.02173,3.67426l-24.079,23.79718L168.6004,71.53638a12.72831,12.72831,0,0,0-8.98932-3.79242l-2.46844-.01422a12.72689,12.72689,0,0,0-9.11633,21.6842l25.01361,25.24695-25.32117,25.02392a12.78518,12.78518,0,0,0,8.95245,21.86188l2.324.01373a12.72683,12.72683,0,0,0,9.02118-3.67462L192.169,134.017l23.79467,24.13983a12.72541,12.72541,0,0,0,8.98877,3.79278l2.38678.014a12.73353,12.73353,0,0,0,9.13635-21.68261l-25.02337-25.32068,25.32062-25.02484A12.72412,12.72412,0,0,0,240.55347,80.9585Z" transform="translate(-51.15757 0.00001)"/><path d="M322.324,86.96661A120.21737,120.21737,0,0,0,313.006,66.28845a124.086,124.086,0,0,0-49.1651-48.57922Q232.35589.20362,192.12811.00323q-40.19182-.23674-71.77179,16.85932A125.11747,125.11747,0,0,0,70.76678,64.85944Q52.82987,95.79777,52.63385,135.11786l-.49957,84.66748a42.31,42.31,0,0,0,72.07379,30.41577,43.803,43.803,0,0,0,3.06995-3.32239,42.44612,42.44612,0,0,0,32.94592,15.95154,41.95957,41.95957,0,0,0,29.99-12.23987c.73-.72216,1.4613-1.5166,2.11908-2.31128a42.27225,42.27225,0,0,0,61.42157,2.03211,16.63009,16.63009,0,0,0,1.53473-1.66077,42.27293,42.27293,0,0,0,32.00824,14.92975,39.55153,39.55153,0,0,0,12.1372-1.74377,96.84871,96.84871,0,0,1,4.25147,30.1607A101.834,101.834,0,0,1,299.15,322.4693a42.21208,42.21208,0,0,0-44.37085,12.664,16.62978,16.62978,0,0,0-1.51489-1.67932,42.34872,42.34872,0,0,0-61.44067,1.23517c-.64862-.80249-1.37079-1.5329-2.09241-2.26343a41.9599,41.9599,0,0,0-29.84344-12.593,42.44627,42.44627,0,0,0-33.1319,15.56189,43.78529,43.78529,0,0,0-3.0307-3.35834,42.30956,42.30956,0,0,0-72.42676,29.49048l-.14044,23.74463a13.24345,13.24345,0,0,0,3.71863,9.82514,13.41058,13.41058,0,0,0,9.78015,3.90655l168.68145.99542a104.38378,104.38378,0,0,0,10.75013-.518,89.54708,89.54708,0,0,0,38.63549-12.98834,88.0633,88.0633,0,0,0,20.5091-17.59711,54.88988,54.88988,0,0,0,4.38995-5.56525,96.00316,96.00316,0,0,0,9.31116-15.122,82.43215,82.43215,0,0,0,4.1969-9.7785l.00061-.07269c5.45612-13.98279,8.233-29.288,8.33276-46.20722l.91657-155.39312A143.90452,143.90452,0,0,0,322.324,86.96661Zm-207.549,285.101-42.406-.24994.04291-7.26123A21.22844,21.22844,0,0,1,93.73987,343.478a21.322,21.322,0,0,1,21.07776,21.32831Zm65.9331.38928-42.3338-.24982.04291-7.26129a21.16725,21.16725,0,1,1,42.33374.24988Zm63.542-.42383a74.15767,74.15767,0,0,1-10.75128.73505l-31.58746-.18634.03894-6.60773a21.16694,21.16694,0,0,1,21.32794-21.00556,21.07317,21.07317,0,0,1,21.0061,21.25531Zm25.39765-9.29028a45.76055,45.76055,0,0,1-4.08051,2.37176A21.14386,21.14386,0,0,1,286.8197,344.617a9.71458,9.71458,0,0,1,1.45191.08155A66.74743,66.74743,0,0,1,269.64789,362.74274ZM115.68781,217.328a21.20338,21.20338,0,0,1-42.40577-.25l.03888-6.60815,42.406.24994Zm65.93328.38916a21.16727,21.16727,0,0,1-42.33374-.24981l.032-5.44593,42.334.24933Zm63.54108-.27887a21.1673,21.1673,0,0,1-42.3338-.24981l.02808-4.79236,42.334.24963Zm42.27777,22.03406a21.11438,21.11438,0,0,1-21.0133-20.02051,45.82386,45.82386,0,0,1,4.05212,2.42035A66.072,66.072,0,0,1,288.529,239.47858Zm17.74451-53.70367L77.17786,184.42352l.29-49.15948c.01288-2.17822.09809-4.28351.18323-6.46173l.00037-.07221a108.6668,108.6668,0,0,1,5.69574-29.95678l.00024-.07264a99.24366,99.24366,0,0,1,9.049-19.77105A102.15212,102.15212,0,0,1,133.21515,40.466q26.00565-13.78939,58.75458-13.59546c21.78387.12854,41.36236,4.89093,58.58954,14.28766a103.49763,103.49763,0,0,1,40.50756,38.94348,102.04366,102.04366,0,0,1,8.95966,19.87714,106.996,106.996,0,0,1,4.66333,21.95783,75.29957,75.29957,0,0,1,.60528,8.13616.071.071,0,0,0,.07227.07294c.06049,2.1062.12,4.28516.10712,6.46338Z" transform="translate(-51.15757 0.00001)"/></svg>